<svg xmlns="http://www.w3.org/2000/svg" viewBox="0 0 414.59 389.16"><defs><style>.cls-1{font-size:125.94px;font-family:BebasNeue-Regular, Bebas Neue;}.cls-1,.cls-4{fill:#0a0a0a;}.cls-2{letter-spacing:0em;}.cls-3{letter-spacing:0em;}</style></defs><g id="Capa_2" data-name="Capa 2"><g id="Variables"><text class="cls-1" transform="translate(74.13 363.97) scale(0.99 1)">Á<tspan class="cls-2" x="50.5" y="0">l</tspan><tspan class="cls-3" x="94.33" y="0">amo</tspan></text><g id="yMxmIj"><path class="cls-4" d="M377.81,154.53l1.37-1.19c.94-.43,2.12-1.48,2.77-1.2,4.53,1.91,4.18-.49,3.14-3.8l5.67.54L386.92,142l6,.37c.23-1,.44-2,.7-3s.56-1.94,1.1-3.8c1.82,2.73,3,4.54,4.9,7.38.53-2.66.83-4.15,1.12-5.59l4.11,3.42.94-.86-3.07-4.26,4.15-2c-.91-1.95-1.91-4.12-3-6.49l2.27-1.44c1.05,1.79,1.87,3.79,3.26,5.24.47.5,2.33-.39,3.55-.65l-.15-1.18-2.37-.75c-.8-2.95-1.37-5.09-1.95-7.23l-1.35.15-1,4.56-2.11-3.12c-.65,1.31-1.12,2.27-1.6,3.22-1.36-.85-3.18-1.4-4-2.64-1.2-1.84-1.67-4.16-2.48-6.35,2.06-1.07,4.1-2.26,1.4-5.3-.45-.51.16-2.7.91-3.47,1.08-1.12,2.74-1.65,4.16-2.43a1.4,1.4,0,0,0-.1.44c0,.14.09.38.16.39,1.39.2,2.78.37,4.79.62l-2.78,2.33,6.16,7.43c.78-1.77,1.3-2.93,1.82-4.13l-2.94-.88,1.84-5.11,3.18.37-10.33-7.7c-.69,2.55-1.23,4.5-1.76,6.46l-3.06-3c1.37-1.33,2.95-2.17,3.43-3.45,1.77-4.7-2.23-11.59-6.79-13.27a10.63,10.63,0,0,1-5-4.68c-1.5-2.72-2.17-5.92-3.14-8.93s-1.86-6-2.53-8.24L381,59.5l-3.16,2.2-5.07-5.82c0,3.45-.73,6.1.14,7.95,2.24,4.76,2.52,4.86-1,9.07l1.62-4.06L366,51.72l-4.33,1.69-4.58-7.66-4.65,6.07h4.88l-4.35,9,3.78,2.21-.84,2.27-4.74-4.44L349.66,62l1.49,3.47-4-3.35,2.44-3.06c-4.82,1-5.56,3.76-2.46,7.93a55.13,55.13,0,0,1-5.91-3.81,38.17,38.17,0,0,1-4.05-4.6l3.5.39-2.14-9.44-7.89-3.69-.35,8-2.57-.45A43.68,43.68,0,0,1,326.08,59c-.09.2-1.95-.38-3-.59,3.62-1.33,2.95-3.5,1.51-6.78-2.47,4.85-9.71,2-11.14,8.54-.88.81-3.17,2.65-3.05,2.85a63.71,63.71,0,0,0,5.09,6.36l-5.3-.81-1,6L307,70.25l-.83.32,1.17,6.63-4.9-2.07c-.19,1.58-.61,2.83-.39,3.94a20.2,20.2,0,0,0,1.64,4l-1.27-.67a26,26,0,0,0-2.52,3.79c-.79,1.72-1.07,3.68-1.84,5.41-.86,1.94.05,12,1.33,13.45,1.9,2.21,3.7,4.5,5.51,6.7-3.71,3.61-2.9,7.37,1.31,10.33-.63,2.37-2,4.75-1.59,6.78s2.49,3.92,3.84,5.86l-1.09,1.09c3.89.1,7.3,1.1,8.53,5.18a63.37,63.37,0,0,1,1.37,7l5.84-2.87-1,9.49-.95-.92L318,155.39l5.91,6.73-9.45,2.46,6.3,6.47c1.75,2.39,2.62,6,4.84,7.92,3.05,2.71,2.67,4,.19,6.68-.94,1-.16,3.71-.16,5.88l5.06-1-3.46,4.74h6.24l-6.25,6.88c1.39,0,2.16.24,2.44,0,2-2,3.63-2.11,5.9.06,2.42,2.31,5.69,3.67,8.23,5.89,1,.89,1.41,2.94,1.46,4.48.24,6.72.38,13.45.26,20.18,0,2.55-.88,5.09-1.42,7.93-4.2-3-24.24-1.84-33.22,1.47h81.61l0-1.34c-10.21-.81-20.28-3.1-30.72-1.72-3.14.41-6.48-.76-9.73-1.21l.26-.82-3.37,1.58c-.66-5.42-1.44-10.25-1.76-15.11a13.13,13.13,0,0,1,1.17-6.36c.94-1.93,2.82-3.37,4.65-5.43,2.05,2.39,3.42,1,4.05-.92-1-2.18-1.63-3.64-2.28-5.1l3.65-1.24c1.69,2.51,2.65,5.48,4.55,6.39,2.44,1.17,6,1.72,8.39.71,3.46-1.47,6.26-4.57,9.34-7l.14,1.48a33.78,33.78,0,0,0,5.74.39c.57,0,1-1.56,1.18-1.82h5.44a25.89,25.89,0,0,0-1.16-3.94c-.44-.93-1.18-2.24-2-2.38a35.78,35.78,0,0,0-8.62-.75c-2.61.17-4.28-.2-5.71-2.77s-3.6-2.36-5.79-.24l3.48,3-1,1.05c-1.65-1.81-3.25-3.65-5-5.4-2.46-2.52-5-5-7.48-7.47,0,0,.12-.24.19-.37,3.53.61,7.87-2.73,10.53,2.34.22.42,1.48.43,2.24.38,2.49-.18,4.27,0,4.38,3.46,0,1.35,1.87,2.63,2.4,3.32l7.4-7.6-4.6-3.65c1.85-.2,2.72-.09,3.4-.4,1.26-.59,3.3-1.33,3.38-2.18a4.87,4.87,0,0,0-1.87-4c-4.12-2.24-2.75-5-1.5-8.41l2.75,3.09-1.6,3.78c6.27-2.06,7.47-11.59,3.05-15.81l2.08-4.35-4.43.45.2,3.7-4.45,2.24-.82-.84,2.86-3.49-7.76-2.52Z"/><path class="cls-4" d="M337.15,58.61a38.17,38.17,0,0,0,4.05,4.6,55.23,55.23,0,0,0,5.89,3.8c2,1.37,3.57,1.5,4.06-1.51L349.66,62l1.54-1.12,4.74,4.44.84-2.27L353,60.87l4.35-9h-4.88l4.65-6.07,4.58,7.66L366,51.72l7.43,17.12-1.62,4.06c3.54-4.21,3.26-4.31,1-9.07-.87-1.85-.14-4.5-.14-7.95l5.07,5.82L381,59.5l4.43,4.85c.67,2.2,1.57,5.23,2.53,8.24s1.64,6.21,3.14,8.93a10.63,10.63,0,0,0,5,4.68c4.56,1.68,8.56,8.57,6.79,13.27-.48,1.28-2.06,2.12-3.43,3.45l3.06,3,0-.22c-1.42.78-3.08,1.31-4.16,2.43-.75.77-1.36,3-.91,3.47,2.7,3,.66,4.23-1.4,5.3.81,2.19,1.28,4.51,2.48,6.35.8,1.24,2.62,1.79,4,2.64.48-1,.95-1.91,1.6-3.22l2.11,3.12v-.14l-2.27,1.44c1.1,2.37,2.1,4.54,3,6.49l-4.15,2,3.07,4.26-.94.86-4.11-3.42c-.29,1.44-.59,2.93-1.12,5.59-1.88-2.84-3.08-4.65-4.9-7.38-.54,1.86-.85,2.82-1.1,3.8s-.47,2-.7,3l-6-.37,3.84,6.93-5.67-.54c1,3.31,1.39,5.71-3.14,3.8-.65-.28-1.83.77-2.75,1.18,3.42-4-1.54-5.59-1.88-8.12l-7.9,1.62.08.7h7.22l.95,7c-4.3-.12-4.31,4.16-6.31,6.42-3.07,3.45-3.14,3.39-2,8.09l1.47-4c4,.43,4.25-2.69,5-5.55a29.29,29.29,0,0,1,2-4.6l7.76,2.52-2.86,3.49.82.84L388,159.5l-.2-3.7,4.43-.45-2.08,4.35c4.42,4.22,3.22,13.75-3.05,15.81l1.6-3.78-2.75-3.09c-1.25,3.39-2.62,6.17,1.5,8.41a4.87,4.87,0,0,1,1.87,4c-.08.85-2.12,1.59-3.38,2.18-.68.31-1.55.2-3.4.4l4.6,3.65-7.4,7.6c-.53-.69-2.35-2-2.4-3.32-.11-3.43-1.89-3.64-4.38-3.46-.76.05-2,0-2.24-.38-2.66-5.07-7-1.73-10.53-2.34-.07.13-.22.35-.19.37,2.49,2.5,5,4.95,7.48,7.47,1.71,1.75,3.31,3.59,5,5.4l1-1.05-3.48-3c2.19-2.12,4.41-2.21,5.79.24s3.1,2.94,5.71,2.77a35.78,35.78,0,0,1,8.62.75c.78.14,1.52,1.45,2,2.38a25.89,25.89,0,0,1,1.16,3.94h-5.44c-.16.26-.61,1.78-1.18,1.82a33.78,33.78,0,0,1-5.74-.39l-.14-1.48c-3.08,2.4-5.88,5.5-9.34,7-2.36,1-6,.46-8.39-.71-1.9-.91-2.86-3.88-4.55-6.39l-3.65,1.24c.65,1.46,1.3,2.92,2.28,5.1-.63,1.91-2,3.31-4.05.92-1.83,2.06-3.71,3.5-4.65,5.43a13.13,13.13,0,0,0-1.17,6.36c.32,4.86,1.1,9.69,1.76,15.11L352.3,237l-.26.82c3.25.45,6.59,1.62,9.73,1.21,10.44-1.38,20.51.91,30.72,1.72l0,1.34H310.84c9-3.31,29-4.44,33.22-1.47.54-2.84,1.38-5.38,1.42-7.93.12-6.73,0-13.46-.26-20.18-.05-1.54-.45-3.59-1.46-4.48-2.54-2.22-5.81-3.58-8.23-5.89-2.27-2.17-3.86-2.07-5.9-.06-.28.28-1.05,0-2.44,0l6.25-6.88H327.2l3.46-4.74-5.06,1c0-2.17-.78-4.88.16-5.88,2.48-2.65,2.86-4-.19-6.68-2.22-2-3.09-5.53-4.84-7.92l-6.3-6.47,9.45-2.46L318,155.39l3.22-1.73.95.92,1-9.49L317.26,148a63.37,63.37,0,0,0-1.37-7c-1.23-4.08-4.64-5.08-8.53-5.18l1.09-1.09c-1.35-1.94-3.43-3.73-3.84-5.86s1-4.41,1.59-6.78c-4.21-3-5-6.72-1.31-10.33-1.81-2.2-3.61-4.49-5.51-6.7-1.28-1.48-2.19-11.51-1.33-13.45.77-1.73,1.05-3.69,1.84-5.41a26,26,0,0,1,2.52-3.79l1.27.67a20.2,20.2,0,0,1-1.64-4c-.22-1.11.2-2.36.39-3.94l4.9,2.07-1.17-6.63.83-.32,2.19,4.35,1-6,5.3.81A63.71,63.71,0,0,1,310.42,63c-.12-.2,2.17-2,3.05-2.85,1.43-6.51,8.67-3.69,11.14-8.54,1.44,3.28,2.11,5.45-1.51,6.78,1,.21,2.89.79,3,.59a43.68,43.68,0,0,0,1.62-5.61l2.57.45-.1-.14,3,8.31c-.27.94-.53,1.87-.79,2.81h-.12l.89-1.27v5.55l7-3-6.5-5.17,3.15-2.56A2.6,2.6,0,0,1,337.15,58.61Zm22.66,95.75,1.29-1.09.21-3.14v.15l-3-.35.12.12c-.6.81-1.2,1.61-1.79,2.42h.92l.36,1.84,1.77.06Zm-15.62,10.86,9.86-2.18c-2.19-3.14-8.14-3.95-11.71-1.06-.18.15-.17.54-.26.86Zm38.22-28.73c-3.57-2.23-3.65-2.29-6.19,1.63a3.17,3.17,0,0,0,.62,3C382.1,144,379.42,137.05,382.41,136.49Zm-7,42.07-5,3.09,3.8-.22v3.82c5.86-6.37,5.86-6.37.05-9.94Zm19-83.27-5.74,3.29,5.9,4.29,1.11-.73C395.21,99.83,394.78,97.52,394.37,95.29Zm-12,3L376.89,97c1.53,1.93,3.71,2.53,5.09,4,1.58,1.61,2.44,4,3.62,6l1.07-.6Zm-29.14,67.51-.93,1.16,3.17,7.34c.56-1.36,1.33-3.22,2.32-5.65Zm4.5-7.08,6.7,9.61C365.3,164,361.75,158.85,357.76,158.76Zm17.55-54.66-2.43,5.77,7.11-.36Zm-16.76,68.67c.77,1.75-.54,5.39,3.31,4.17.85-.28.94-3.08,1.46-5ZM374,116l9-.73C380.33,112,377.75,111.86,374,116Z"/><path class="cls-4" d="M402.46,105.68l0,.22c.53-2,1.07-3.91,1.76-6.46l10.33,7.7-3.18-.37-1.84,5.11,2.94.88c-.52,1.2-1,2.36-1.82,4.13l-6.16-7.43,2.78-2.33c-2-.25-3.4-.42-4.79-.62-.07,0-.15-.25-.16-.39A1.4,1.4,0,0,1,402.46,105.68Z"/><path class="cls-4" d="M337.15,58.61a2.6,2.6,0,0,0-.36-.3q-.29-3.39-.55-6.78l-.8.12-.38,4-4.89-1.93.1.14c.11-2.54.22-5.09.35-8l7.89,3.69L340.65,59Z"/><path class="cls-4" d="M377.78,154.89a29.29,29.29,0,0,0-2,4.6c-.71,2.86-.93,6-5,5.55l-1.47,4c-1.17-4.7-1.1-4.64,2-8.09,2-2.26,2-6.54,6.31-6.42l.14,0Z"/><path class="cls-4" d="M406.15,125.63v.14c.33-1.52.65-3,1-4.56l1.35-.15c.58,2.14,1.15,4.28,1.95,7.23l2.37.75.15,1.18c-1.22.26-3.08,1.15-3.55.65C408,129.42,407.2,127.42,406.15,125.63Z"/><path class="cls-4" d="M377.81,154.53l-.14,0c-.33-2.38-.65-4.77-.95-7H369.5l-.08-.7,7.9-1.62c.34,2.53,5.3,4.09,1.88,8.12Z"/><path class="cls-4" d="M351.15,65.5c-.49,3-2.06,2.88-4.06,1.51-3.08-4.16-2.34-6.93,2.48-7.92l-2.44,3.06Z"/><path class="cls-4" d="M344.19,165.22l-2.11-2.38c.09-.32.08-.71.26-.86,3.57-2.89,9.52-2.08,11.71,1.06Z"/><path class="cls-4" d="M330.17,53.7l4.89,1.93.38-4,.8-.12q.27,3.39.55,6.78l-3.14,2.55a3.11,3.11,0,0,1-.28.43l-.14.2L333,62l.17,0Z"/><path class="cls-4" d="M382.41,136.49c-3,.56-.31,7.55-5.57,4.61a3.17,3.17,0,0,1-.62-3C378.76,134.2,378.84,134.26,382.41,136.49Z"/><path class="cls-4" d="M333.37,61.29a3.11,3.11,0,0,0,.28-.43c2,1.58,3.94,3.15,6.49,5.18l-7,3V63.54l-.13,0L333,62l.25-.54Z"/><path class="cls-4" d="M375.4,178.56l-1.11-3.25c5.81,3.57,5.81,3.57-.05,9.94v-3.82l-3.8.22Z"/><path class="cls-4" d="M394.37,95.29c.41,2.23.84,4.54,1.27,6.85l-1.11.73-5.9-4.29Z"/><path class="cls-4" d="M382.4,98.33l4.27,8-1.07.6c-1.18-2-2-4.36-3.62-6-1.38-1.43-3.56-2-5.09-4Z"/><path class="cls-4" d="M353.26,165.84l4.56,2.85c-1,2.43-1.76,4.29-2.32,5.65L352.33,167Z"/><path class="cls-4" d="M357.76,158.76c4,.09,7.54,5.19,6.7,9.61Z"/><path class="cls-4" d="M375.31,104.1l4.68,5.41-7.11.36Z"/><path class="cls-4" d="M358.55,172.77l4.77-.81c-.52,1.9-.61,4.7-1.46,5C358,178.16,359.32,174.52,358.55,172.77Z"/><path class="cls-4" d="M374,116c3.72-4.18,6.3-4.08,9-.73Z"/><path class="cls-4" d="M358.33,149.93l3,.36-.23,0,.22-.2-.21,3.14.08.12-1.08,0,.13-.12-1,0,.14.06-1.82-.92h-.92c.59-.81,1.19-1.61,1.78-2.43a.2.2,0,0,1,.11,0Z"/><path class="cls-4" d="M333,62l0,1.47,0,.14-.6,1.18c.26-.94.52-1.87.79-2.81Z"/><path class="cls-4" d="M357.58,152.47l1.82.92-1.46.92Z"/><path class="cls-4" d="M333,63.5l.13,0-.89,1.26.72-1.16Z"/><path class="cls-4" d="M333,63.64l-.72,1.16.12,0Z"/><polygon class="cls-4" points="361.31 150.13 361.09 150.33 361.32 150.29 361.31 150.13"/><path class="cls-4" d="M356.66,152.47h0Z"/><path class="cls-4" d="M357.94,154.31l1.46-.92-.14-.06.45,1Z"/><path class="cls-4" d="M359.71,154.37l-.45-1,1,0-.42,1.07Z"/><path class="cls-4" d="M359.81,154.36l.42-1.07-.13.12,1.08,0-.08-.12Z"/><path class="cls-4" d="M333.37,61.29l-.14.2Z"/><path class="cls-4" d="M358.33,149.93l.22.09a.2.2,0,0,0-.11,0Z"/><path class="cls-4" d="M361.18,153.39l-1.08,0Z"/></g><g id="yMxmIj-2" data-name="yMxmIj"><path class="cls-4" d="M229.53,154.53l1.37-1.19c.93-.43,2.11-1.48,2.77-1.2,4.53,1.91,4.18-.49,3.14-3.8l5.67.54L238.64,142l6,.37c.24-1,.45-2,.7-3s.57-1.94,1.11-3.8l4.9,7.38c.53-2.66.83-4.15,1.11-5.59l4.12,3.42.94-.86-3.08-4.26,4.15-2c-.9-1.95-1.91-4.12-3-6.49l2.27-1.44c1,1.79,1.87,3.79,3.25,5.24.48.5,2.33-.39,3.56-.65l-.16-1.18-2.36-.75c-.8-2.95-1.38-5.09-2-7.23l-1.35.15-1,4.56-2.11-3.12-1.6,3.22c-1.37-.85-3.18-1.4-4-2.64-1.19-1.84-1.67-4.16-2.48-6.35,2.06-1.07,4.1-2.26,1.41-5.3-.45-.51.15-2.7.9-3.47,1.09-1.12,2.75-1.65,4.17-2.43a1.4,1.4,0,0,0-.1.44c0,.14.09.38.16.39,1.39.2,2.77.37,4.78.62-1.57,1.32-2.17,1.83-2.78,2.33l6.17,7.43,1.82-4.13-2.94-.88,1.84-5.11,3.17.37L256,99.44c-.69,2.55-1.23,4.5-1.77,6.46l-3.05-3c1.37-1.33,2.94-2.17,3.43-3.45,1.77-4.7-2.24-11.59-6.79-13.27a10.66,10.66,0,0,1-5-4.68c-1.49-2.72-2.16-5.92-3.13-8.93s-1.86-6-2.54-8.24l-4.43-4.85-3.15,2.2-5.07-5.82c0,3.45-.73,6.1.14,7.95,2.23,4.76,2.52,4.86-1,9.07l1.62-4.06-7.43-17.12-4.34,1.69-4.57-7.66-4.66,6.07h4.89c-1.63,3.37-2.89,6-4.36,9l3.79,2.21-.84,2.27-4.75-4.44L201.38,62l1.49,3.47-4-3.35,2.44-3.06c-4.82,1-5.56,3.76-2.46,7.93a55.13,55.13,0,0,1-5.91-3.81,36.51,36.51,0,0,1-4-4.6l3.5.39-2.14-9.44-7.89-3.69-.35,8-2.57-.45A42,42,0,0,1,177.79,59c-.09.2-1.94-.38-3-.59,3.62-1.33,3-3.5,1.51-6.78-2.47,4.85-9.71,2-11.14,8.54-.88.81-3.18,2.65-3.05,2.85a63.71,63.71,0,0,0,5.09,6.36l-5.3-.81-1,6-2.19-4.35-.83.32L159,77.2l-4.89-2.07c-.19,1.58-.61,2.83-.39,3.94a19.61,19.61,0,0,0,1.64,4l-1.27-.67a26,26,0,0,0-2.53,3.79c-.78,1.72-1.06,3.68-1.83,5.41-.86,1.94,0,12,1.33,13.45,1.89,2.21,3.7,4.5,5.5,6.7-3.7,3.61-2.9,7.37,1.32,10.33-.63,2.37-2,4.75-1.59,6.78s2.49,3.92,3.84,5.86l-1.09,1.09c3.88.1,7.3,1.1,8.53,5.18a63.37,63.37,0,0,1,1.37,7l5.84-2.87-1,9.49-.95-.92-3.21,1.73,5.91,6.73-9.45,2.46,6.29,6.47c1.75,2.39,2.63,6,4.85,7.92,3.05,2.71,2.67,4,.18,6.68-.94,1-.15,3.71-.15,5.88l5.05-1-3.45,4.74h6.24l-6.26,6.88c1.4,0,2.17.24,2.45,0,2-2,3.63-2.11,5.9.06s5.69,3.67,8.22,5.89c1,.89,1.41,2.94,1.47,4.48.23,6.72.38,13.45.26,20.18,0,2.55-.89,5.09-1.42,7.93-4.21-3-24.24-1.84-33.22,1.47h81.61l0-1.34c-10.22-.81-20.29-3.1-30.72-1.72-3.14.41-6.49-.76-9.74-1.21L204,237l-3.37,1.58c-.66-5.42-1.44-10.25-1.76-15.11a13.13,13.13,0,0,1,1.16-6.36c.95-1.93,2.82-3.37,4.65-5.43,2.05,2.39,3.43,1,4.05-.92-1-2.18-1.62-3.64-2.28-5.1l3.66-1.24c1.69,2.51,2.65,5.48,4.54,6.39,2.44,1.17,6,1.72,8.4.71,3.45-1.47,6.26-4.57,9.33-7l.15,1.48a33.78,33.78,0,0,0,5.74.39c.57,0,1-1.56,1.18-1.82h5.44a27.09,27.09,0,0,0-1.16-3.94c-.44-.93-1.18-2.24-2-2.38a35.87,35.87,0,0,0-8.62-.75c-2.61.17-4.28-.2-5.72-2.77s-3.59-2.36-5.78-.24l3.48,3-1.05,1.05c-1.64-1.81-3.25-3.65-4.95-5.4-2.46-2.52-5-5-7.48-7.47,0,0,.12-.24.19-.37,3.52.61,7.86-2.73,10.53,2.34.22.42,1.48.43,2.23.38,2.49-.18,4.27,0,4.39,3.46.05,1.35,1.87,2.63,2.4,3.32l7.39-7.6-4.6-3.65c1.85-.2,2.72-.09,3.41-.4,1.25-.59,3.3-1.33,3.38-2.18a4.88,4.88,0,0,0-1.88-4c-4.11-2.24-2.74-5-1.49-8.41l2.75,3.09-1.6,3.78c6.26-2.06,7.47-11.59,3-15.81l2.08-4.35-4.44.45.21,3.7-4.46,2.24-.81-.84,2.85-3.49-7.75-2.52Z"/><path class="cls-4" d="M188.87,58.61a36.51,36.51,0,0,0,4,4.6,55.23,55.23,0,0,0,5.89,3.8c2,1.37,3.57,1.5,4.06-1.51L201.38,62l1.53-1.12,4.75,4.44.84-2.27-3.79-2.21c1.47-3.06,2.73-5.68,4.36-9h-4.89l4.66-6.07,4.57,7.66,4.34-1.69,7.43,17.12-1.62,4.06c3.54-4.21,3.25-4.31,1-9.07-.87-1.85-.14-4.5-.14-7.95l5.07,5.82,3.15-2.2,4.43,4.85c.68,2.2,1.57,5.23,2.54,8.24s1.64,6.21,3.13,8.93a10.66,10.66,0,0,0,5,4.68c4.55,1.68,8.56,8.57,6.79,13.27-.49,1.28-2.06,2.12-3.43,3.45l3.05,3,0-.22c-1.42.78-3.08,1.31-4.17,2.43-.75.77-1.35,3-.9,3.47,2.69,3,.65,4.23-1.41,5.3.81,2.19,1.29,4.51,2.48,6.35.81,1.24,2.62,1.79,4,2.64l1.6-3.22,2.11,3.12v-.14l-2.27,1.44c1.09,2.37,2.1,4.54,3,6.49l-4.15,2,3.08,4.26-.94.86-4.12-3.42c-.28,1.44-.58,2.93-1.11,5.59l-4.9-7.38c-.54,1.86-.85,2.82-1.11,3.8s-.46,2-.7,3l-6-.37,3.84,6.93-5.67-.54c1,3.31,1.39,5.71-3.14,3.8-.66-.28-1.84.77-2.75,1.18,3.42-4-1.54-5.59-1.88-8.12l-7.9,1.62.08.7h7.22l.94,7c-4.29-.12-4.3,4.16-6.3,6.42-3.07,3.45-3.14,3.39-2,8.09l1.47-4c4,.43,4.25-2.69,5-5.55a29.29,29.29,0,0,1,2-4.6l7.75,2.52-2.85,3.49.81.84,4.46-2.24-.21-3.7,4.44-.45-2.08,4.35c4.42,4.22,3.21,13.75-3,15.81l1.6-3.78-2.75-3.09c-1.25,3.39-2.62,6.17,1.49,8.41a4.88,4.88,0,0,1,1.88,4c-.08.85-2.13,1.59-3.38,2.18-.69.31-1.56.2-3.41.4l4.6,3.65-7.39,7.6c-.53-.69-2.35-2-2.4-3.32-.12-3.43-1.9-3.64-4.39-3.46-.75.05-2,0-2.23-.38-2.67-5.07-7-1.73-10.53-2.34-.07.13-.22.35-.19.37,2.48,2.5,5,4.95,7.48,7.47,1.7,1.75,3.31,3.59,4.95,5.4l1.05-1.05-3.48-3c2.19-2.12,4.41-2.21,5.78.24s3.11,2.94,5.72,2.77a35.87,35.87,0,0,1,8.62.75c.78.14,1.52,1.45,2,2.38a27.09,27.09,0,0,1,1.16,3.94h-5.44c-.16.26-.61,1.78-1.18,1.82a33.78,33.78,0,0,1-5.74-.39l-.15-1.48c-3.07,2.4-5.88,5.5-9.33,7-2.36,1-6,.46-8.4-.71-1.89-.91-2.85-3.88-4.54-6.39l-3.66,1.24c.66,1.46,1.31,2.92,2.28,5.1-.62,1.91-2,3.31-4.05.92-1.83,2.06-3.7,3.5-4.65,5.43a13.13,13.13,0,0,0-1.16,6.36c.32,4.86,1.1,9.69,1.76,15.11L204,237l-.27.82c3.25.45,6.6,1.62,9.74,1.21,10.43-1.38,20.5.91,30.72,1.72l0,1.34H162.56c9-3.31,29-4.44,33.22-1.47.53-2.84,1.37-5.38,1.42-7.93.12-6.73,0-13.46-.26-20.18-.06-1.54-.45-3.59-1.47-4.48-2.53-2.22-5.8-3.58-8.22-5.89s-3.87-2.07-5.9-.06c-.28.28-1,0-2.45,0l6.26-6.88h-6.24l3.45-4.74-5.05,1c0-2.17-.79-4.88.15-5.88,2.49-2.65,2.87-4-.18-6.68-2.22-2-3.1-5.53-4.85-7.92l-6.29-6.47,9.45-2.46-5.91-6.73,3.21-1.73.95.92,1-9.49L169,148a63.37,63.37,0,0,0-1.37-7c-1.23-4.08-4.65-5.08-8.53-5.18l1.09-1.09c-1.35-1.94-3.43-3.73-3.84-5.86s1-4.41,1.59-6.78c-4.22-3-7.63-5.73-3.92-9.33-1.8-2.2-1-5.49-2.9-7.7-1.28-1.48-2.19-11.51-1.33-13.45.77-1.73,1-3.69,1.83-5.41a26,26,0,0,1,2.53-3.79l1.27.67a19.61,19.61,0,0,1-1.64-4c-.22-1.11.2-2.36.39-3.94L159,77.2l-1.17-6.63.83-.32,2.19,4.35,1-6,5.3.81A63.71,63.71,0,0,1,162.14,63c-.13-.2,2.17-2,3.05-2.85,1.43-6.51,8.67-3.69,11.14-8.54,1.44,3.28,2.11,5.45-1.51,6.78,1,.21,2.88.79,3,.59a42,42,0,0,0,1.63-5.61l2.57.45-.1-.14q1.49,4.15,3,8.31l-.8,2.81H184l.89-1.27v5.55l7-3-6.5-5.17,3.14-2.56A3.47,3.47,0,0,1,188.87,58.61Zm22.66,95.75,1.28-1.09.22-3.14v.15l-3-.35.12.12-1.8,2.42h.93l.35,1.84,1.77.06Zm-15.62,10.86,9.86-2.18c-2.19-3.14-8.14-3.95-11.71-1.06-.18.15-.18.54-.27.86Zm38.21-28.73c-3.56-2.23-3.64-2.29-6.19,1.63a3.19,3.19,0,0,0,.62,3C233.82,144,231.14,137.05,234.12,136.49Zm-7,42.07-5,3.09,3.79-.22v3.82c5.87-6.37,5.87-6.37.06-9.94Zm19-83.27-5.74,3.29,5.9,4.29,1.11-.73C246.93,99.83,246.5,97.52,246.09,95.29Zm-12,3L228.6,97c1.54,1.93,3.71,2.53,5.1,4,1.57,1.61,2.44,4,3.61,6l1.07-.6C236.82,103.42,235.26,100.49,234.12,98.33ZM205,165.84l-.93,1.16,3.17,7.34,2.32-5.65Zm4.49-7.08,6.7,9.61C217,164,213.46,158.85,209.47,158.76ZM227,104.1c-.93,2.21-1.68,4-2.44,5.77l7.11-.36Zm-16.76,68.67c.77,1.75-.54,5.39,3.3,4.17.86-.28,1-3.08,1.47-5ZM225.74,116l9-.73C232,112,229.47,111.86,225.74,116Z"/><path class="cls-4" d="M254.18,105.68l0,.22c.54-2,1.08-3.91,1.77-6.46l10.32,7.7-3.17-.37-1.84,5.11,2.94.88-1.82,4.13-6.17-7.43c.61-.5,1.21-1,2.78-2.33-2-.25-3.39-.42-4.78-.62-.07,0-.15-.25-.16-.39A1.4,1.4,0,0,1,254.18,105.68Z"/><path class="cls-4" d="M188.87,58.61a3.47,3.47,0,0,0-.37-.3q-.27-3.39-.55-6.78l-.79.12-.39,4-4.88-1.93.1.14c.11-2.54.22-5.09.35-8l7.89,3.69L192.37,59Z"/><path class="cls-4" d="M229.5,154.89a29.29,29.29,0,0,0-2,4.6c-.71,2.86-.93,6-5,5.55l-1.47,4c-1.17-4.7-1.1-4.64,2-8.09,2-2.26,2-6.54,6.3-6.42l.15,0Z"/><path class="cls-4" d="M257.87,125.63v.14c.32-1.52.65-3,1-4.56l1.35-.15c.57,2.14,1.15,4.28,2,7.23l2.36.75.16,1.18c-1.23.26-3.08,1.15-3.56.65C259.74,129.42,258.91,127.42,257.87,125.63Z"/><path class="cls-4" d="M229.53,154.53l-.15,0c-.32-2.38-.64-4.77-.94-7h-7.22l-.08-.7,7.9-1.62c.34,2.53,5.3,4.09,1.88,8.12Z"/><path class="cls-4" d="M202.87,65.5c-.49,3-2.06,2.88-4.06,1.51-3.08-4.16-2.34-6.93,2.48-7.92l-2.44,3.06Z"/><path class="cls-4" d="M195.91,165.22l-2.12-2.38c.09-.32.09-.71.27-.86,3.57-2.89,9.52-2.08,11.71,1.06Z"/><path class="cls-4" d="M181.89,53.7l4.88,1.93.39-4,.79-.12q.28,3.39.55,6.78c-1,.85-2.09,1.71-3.14,2.55a2.77,2.77,0,0,1-.27.43l-.14.2-.25.54.17,0Z"/><path class="cls-4" d="M234.12,136.49c-3,.56-.3,7.55-5.57,4.61a3.19,3.19,0,0,1-.62-3C230.48,134.2,230.56,134.26,234.12,136.49Z"/><path class="cls-4" d="M185.09,61.29a2.77,2.77,0,0,0,.27-.43c2,1.58,3.94,3.15,6.5,5.18l-7,3V63.54l-.13,0,0-1.47.25-.54Z"/><path class="cls-4" d="M227.11,178.56l-1.1-3.25c5.81,3.57,5.81,3.57-.06,9.94v-3.82l-3.79.22Z"/><path class="cls-4" d="M246.09,95.29c.41,2.23.84,4.54,1.27,6.85l-1.11.73-5.9-4.29Z"/><path class="cls-4" d="M234.12,98.33c1.14,2.16,2.7,5.09,4.26,8l-1.07.6c-1.17-2-2-4.36-3.61-6-1.39-1.43-3.56-2-5.1-4Z"/><path class="cls-4" d="M205,165.84l4.56,2.85-2.32,5.65L204.05,167Z"/><path class="cls-4" d="M209.47,158.76c4,.09,7.55,5.19,6.7,9.61Z"/><path class="cls-4" d="M227,104.1l4.67,5.41-7.11.36C225.35,108.09,226.1,106.31,227,104.1Z"/><path class="cls-4" d="M210.27,172.77,215,172c-.52,1.9-.61,4.7-1.47,5C209.73,178.16,211,174.52,210.27,172.77Z"/><path class="cls-4" d="M225.74,116c3.73-4.18,6.3-4.08,9-.73Z"/><path class="cls-4" d="M210.05,149.93l3,.36-.23,0,.22-.2c-.07,1.05-.14,2.1-.22,3.14l.09.12-1.08,0,.12-.12-1,0,.14.06-1.82-.92h-.93c.6-.81,1.2-1.61,1.79-2.43a.2.2,0,0,1,.11,0Z"/><path class="cls-4" d="M184.7,62l0,1.47-.05.14-.6,1.18.8-2.81Z"/><path class="cls-4" d="M209.3,152.47l1.82.92-1.47.92Z"/><path class="cls-4" d="M184.72,63.5l.13,0L184,64.8c.24-.39.48-.77.71-1.16Z"/><path class="cls-4" d="M184.67,63.64c-.23.39-.47.77-.71,1.16l.11,0Z"/><polygon class="cls-4" points="213.03 150.13 212.81 150.33 213.04 150.29 213.03 150.13"/><path class="cls-4" d="M208.37,152.47h0Z"/><path class="cls-4" d="M209.65,154.31l1.47-.92-.14-.06c.15.34.29.69.44,1Z"/><path class="cls-4" d="M211.42,154.37c-.15-.35-.29-.7-.44-1l1,0-.42,1.07Z"/><path class="cls-4" d="M211.53,154.36l.42-1.07-.13.12,1.08,0-.09-.12C212.39,153.64,212,154,211.53,154.36Z"/><path class="cls-4" d="M185.09,61.29l-.14.2Z"/><path class="cls-4" d="M210.05,149.93l.22.09a.2.2,0,0,0-.11,0Z"/><path class="cls-4" d="M212.9,153.39l-1.08,0Z"/></g><g id="W3ptpP"><path class="cls-4" d="M168.81,90.94l.11-.09-1.13,1.08q-.14-.23-.27-.42c-1.5-4-2.62-7.83-.76-12.56,1.72-4.37,2.68-9.13-.52-13.67-1.21-1.73-1.56-4.67-2.26-6.93l-3-2.41-.11.12c1-.76,2.23-1.2,2.83-2.34a48.48,48.48,0,0,0,2.32-6.47l-3,1.5-1.19-5.33c-1.46,1.32-2.57,2.38-3.73,3.34a12.71,12.71,0,0,1-1.76,1.07,20,20,0,0,1-.12-3.35,6.78,6.78,0,0,1,1-2.5c1.37-2.24,3.8-4,1.47-7.73-.15-.25,1-2,1.69-3.54L158,29.28V7.35C152.39,9.46,155.19,2,152.93,0c-3,7-7.64,1.75-11.4,2l-.44,7.1-.69,0L139.1.23l-1.2.44V7.12c-4.68-3.95-8.43-5.12-7.14,6.43l-1.14-3.22-3,2.59c-.78,4.2-1.42,7.93-2.17,11.63-.69,3.47-1.49,6.9-2.2,10.17l-3-3.31c.2,2.33.47,3.21.3,3.87-.41,1.64-.78,3.58-1.64,4.6-.42.49-1.94-.71-2.9-1.32a13.45,13.45,0,0,1-1.82-1.74,18.85,18.85,0,0,0,.44,3.71c1.07,3.23,2.31,6.34,3.49,9.49l-.72.85-2.79-2.68-.6,2.63-1.35-5.17-.88.32,1.28,13c-1.78.33-2.68,2-1.81,4.79.26.86,1.16,1.35,1.77,2l1.24-.65c0,5.37,1.14,11.46-.29,15.93-1.77,5.52.88,8.53,1.36,12.68a19.41,19.41,0,0,1-.15,5.8c-.51,2.56-1.44,5-2.19,7.42l.74.31-2.4,1.53c.4,2.55,1,4.42.89,6.18-.24,3.28-1.42,6.52-1.31,9.73.13,3.94,1.17,7.83,1.85,12l-2.19,7.25c.75.31,1.57.46,1.58.69a17.56,17.56,0,0,1-.13,4.36c-.91,4.28.28,9.31,2.78,10.85,1,.62,2.09,1,3.13,1.57l-.31,1.63c-1.47-.36-2.94-.78-4.43-1-.36-.07-1.08.32-1.1.58-.14,2.07-.51,4.35,0,6.18.22.87,2.11.9,3.46,1.39a2.18,2.18,0,0,0-.16,1.16c1.79,5.79,3.61,11.56,5.51,17.28a6.49,6.49,0,0,0,1.7,2.85c2.88,2.35,5.86,4.49,9,6.88l3.32-6.44c1.72,8.93.37,16.86-.48,24.62s-2.45,15.6-3.76,23.57c4,2.92,9-1.08,9.72-9.17l1.25,3.65.62-.23V207.18c1.57-1.36,3-2.14,4-3.6a41.93,41.93,0,0,0,2.9-5.91c1.83-4.37,4.34-5.12,7.31-5.39-1.14-8.71-1.14-8.71-4-8.36-1.28-7.37,4.93-1.94,5.14-6.42l5.73,9.63c-.1-4.32-1.47-8.41,2.63-10.21a15.73,15.73,0,0,0-.71-5.08c-.53-1.34-1.76-2.14-2.66-3.16.62-.15,1.38,0,1.83-.49,1-1.05,1.79-2.39,3.4-4.62l-5.63-2.24c.2,3.1.34,5.29.48,7.48-.57-.85-1.68-1.78-1.62-2.53.22-2.89.82-5.73,1.22-8.19h3.17l-1.79-4.83,3.59-5.69L164.72,144l-3.25,4.83c-.05-3.83,3.95-8.07-2-9.94l3.13-5.13,6.89-2.16c-3.29-4.72-5-.91-6.9,1.53,0-1,.07-2,.07-1.89-1.73-1.64-3.38-2.58-4.32-4.3-.83-1.5-.84-3.87-1.22-5.85-.4-2.19-.56-6.23-1.15-6.36-2.3-.5-1.88-1.66-1.15-3.66,2-5.41,5.72-6.83,9.42-8.34l-.14.15c.53-1.74,1.06-3.48,1.59-5.19l2.48-5.25.75-.5-.1-.1.84-.54,0,.15Zm-1.28,20.73,3.34-3c-3.73-2.48-6.09-1.49-8.3.91l1.09-2.57-.88-1c-.79,1.46-2.3,3-2.24,4.38.18,3.78,1.06,7.49,1.57,11.25.19,1.45.13,3,.22,5.59,1.2-.73,3.18-1.29,4.53-2.9,1.94-2.31,1.62-5.34,0-8a19.78,19.78,0,0,1,2.78.21c2.93.6,2.93.64,2.48-3.27Z"/><path class="cls-4" d="M161.71,168.66c.91,1,2.14,1.84,2.67,3.18a15.73,15.73,0,0,1,.71,5.08c-4.1,1.8-2.73,5.89-2.63,10.21l-5.73-9.63c-.21,4.48-6.42-.95-5.14,6.42,2.84-.35,2.84-.35,4,8.36-3,.27-5.48,1-7.31,5.39a41.93,41.93,0,0,1-2.9,5.91c-.94,1.46-2.42,2.24-4,3.6v27.14l-.62.23-1.25-3.65c-.72,8.09-5.71,12.09-9.72,9.17,1.31-8,2.9-15.69,3.76-23.57s2.2-15.69.48-24.62l-3.32,6.44c-3.17-2.39-6.15-4.53-9-6.88a6.49,6.49,0,0,1-1.7-2.85c-1.9-5.72-3.72-11.49-5.51-17.28a2.18,2.18,0,0,1,.16-1.16c-1.35-.49-3.24-.52-3.46-1.39-.48-1.83-.11-4.11,0-6.18,0-.26.74-.65,1.1-.58,1.49.26,3,.68,4.43,1l.31-1.63c-1-.52-2.12-.95-3.13-1.57-2.5-1.54-3.69-6.57-2.78-10.85a17.56,17.56,0,0,0,.13-4.36c0-.23-.83-.38-1.58-.69l2.19-7.25c-.68-4.12-1.72-8-1.85-12-.11-3.21,1.07-6.45,1.31-9.73.13-1.76-.49-3.63-.89-6.18l2.4-1.53-.74-.31c.75-2.47,1.68-4.86,2.19-7.42a19.41,19.41,0,0,0,.15-5.8c-.48-4.15-3.13-7.16-1.36-12.68,1.43-4.47.29-10.56.29-15.93l-1.24.65c-.61-.66-1.51-1.15-1.77-2-.87-2.83,0-4.46,1.81-4.79l-1.28-13,.88-.32,1.35,5.17.6-2.63,2.79,2.68.72-.85c-1.18-3.15-2.42-6.26-3.49-9.49a18.85,18.85,0,0,1-.44-3.71,13.45,13.45,0,0,0,1.82,1.74c1,.61,2.48,1.81,2.9,1.32.86-1,1.23-3,1.64-4.6.17-.66-.1-1.54-.3-3.87l3,3.31c.71-3.27,1.51-6.7,2.2-10.17.75-3.7,1.39-7.43,2.17-11.63l3-2.59,1.14,3.22C129.47,2,133.22,3.17,137.9,7.12V.67l1.2-.44,1.3,8.89.69,0,.44-7.1c3.76-.23,8.4,5.05,11.4-2,2.26,2-.54,9.46,5.08,7.35V29.28l2.44,1.43c-.72,1.49-1.84,3.29-1.69,3.54,2.33,3.75-.1,5.49-1.47,7.73a6.78,6.78,0,0,0-1,2.5,20,20,0,0,0,.12,3.35,12.71,12.71,0,0,0,1.76-1.07c1.16-1,2.27-2,3.73-3.34l1.19,5.33,3-1.5a48.48,48.48,0,0,1-2.32,6.47c-.6,1.14-1.87,1.58-2.83,2.33.67-1.2,1.34-2.4,2-3.6l-.73-1.52-7,5.08-5-8.09c1.62-2.86,3.25-5.71,5.12-9L152.36,38c-1.32,5.86-4.29,3.55-6.27,3.68l.75-5c-1.3,1.93-4.74,3.62-1.57,6.39,2.46,2.17.78,3.2,0,5.9l-.26-2.35-1,.52c.16.57.26,1.56.49,1.63a2.08,2.08,0,0,0,1.84-.22,45.6,45.6,0,0,0,3.46-3.63l.38,3.15L149,53l9.47,8.92.72-1-.69-4.76,2.5-.16,3,2.41c.7,2.26,1.05,5.2,2.26,6.93,3.2,4.54,2.24,9.3.52,13.67-1.86,4.73-.74,8.53.75,12.54-2.91-3.74-4.15.26-6.06,3.42,0-4.53-.9-6.88-3.87-4.5V86.05L157.37,84h.12l-1.89,1.9,0-.14,1,1.64-2.11,8.91.9.77,3.13-4.32c-.81,5.55,2.53,5.85,4.76,7.4.41.28,1.58-1.57,2.4-2.44q-.81,2.61-1.6,5.22l.14-.15c-3.7,1.51-7.43,2.93-9.42,8.34-.73,2-1.15,3.16,1.15,3.66.59.13.75,4.17,1.15,6.36.38,2,.39,4.35,1.22,5.85.94,1.72,2.59,2.66,4.32,4.3,0-.14,0,.87-.07,1.89,0,.21,0,.42,0,.63l-3.13,5.13c5.94,1.87,1.94,6.11,2,9.94l3.25-4.83,1.65,3.54-3.59,5.69,1.79,4.83H161.4c-.4,2.46-1,5.3-1.22,8.19-.06.75,1,1.68,1.62,2.53ZM133.44,123.2c-.45,1.56-1.22,3.11-1.26,4.69a74.33,74.33,0,0,0,.47,9c.16,1.74.63,3.43.95,5.14l1.14-.5-.81-11.1.15-.19-.75-7.13,1.74-.52.38,4,.47-.09c.43-2.53.86-5.05,1.06-6.19l-1.37-6.31-2.17,1.93ZM150,20.67l-.6-11.82,1.15-1.26L146.14,4c-.57,1.55-1.65,3.16-1.68,4.81-.07,3.71.35,7.46.61,11.18.36,4.9.76,9.8,1.15,14.94,1.9-.92,2.46-3,1.9-5.8s-1.23-5.3-2-8.45Zm9.11,111.63c-1-3-3.07-2.25-5.18-1.86-3.1.59-6.32,2.85-9-.89q-.89,3.33-1.6,6l11.5-1.76v6.56C156.29,137.68,157.56,135.26,159.13,132.3ZM134,29.24c3.2-9.4,3.2-9.4-.32-13.81-.29,2.34-1.23,4.92-.67,6.39,1.31,3.48-.16,5.55-1.48,8.85h4.71V29.45Zm4.91,15.26.9-8.8,2.32.35.21-.82-4.47-4.35L137.28,32l1.32,2.9-1.74-.47.49,1.06a24,24,0,0,0-2.28,3,3,3,0,0,0-.08,2.12A49.69,49.69,0,0,0,138.88,44.5Zm26,26.2c-4.16,1.6-4.16,1.6-3.64,10.69l4.22-4.17ZM131,93.11a35.26,35.26,0,0,1-.52-3.7c0-1,.48-2.18.21-2.86a13,13,0,0,0-2.3-3.66c-.16-.19-1.38.76-1.62,1.49C125.66,87.83,127.82,92.51,131,93.11ZM149.94,82l-2-12.19-1.53.41c.17,2.28.35,4.57.52,6.85l-.59-.57L144.76,80Zm6-49.13L157,31.18c-5.78-2.87-2.67-8.1-2.13-13l-4.13,5.12L153,24.73l-1.3,5.66ZM135.8,88.3a42.83,42.83,0,0,0,1.2-5.81,50.83,50.83,0,0,0-.42-6.77C133.47,80.94,133.77,87.26,135.8,88.3Zm16.81,85-7.41-1.4-.18,1.69,6.73,4ZM142.56,111.7c5.71,3.77,3.27-6.1,7.18-6.7l-4-.51Zm-1.34-87.11.54-.26L141,19.19c3.32,0,1.81-2.68.9-6.49-1.29,2.24-2.84,3.75-2.73,5C139.35,20.06,140.48,22.29,141.22,24.59Zm2.69,27.15-3.33-1.67c.25,3.44.47,6.45.69,9.46l.9.1Zm-11,126.57,6.38,2c-.72-4.35-3.47-3.25-5.48-3.84C133.5,176.39,133,178.09,132.87,178.31Zm9.94-24.09-3.69-5.31-.85.31a14.36,14.36,0,0,0,.87,3.61,42.15,42.15,0,0,0,3.37,4.5ZM130.23,82.75l1.27-.42L130,71.91l-1.38.48ZM160,67.28l1.7.73,1.83-7.2L161.85,60Z"/><path class="cls-4" d="M166.83,116.33c1.65,2.66,2,5.69,0,8-1.35,1.61-3.33,2.17-4.53,2.9-.09-2.62,0-4.14-.22-5.59-.51-3.76-1.39-7.47-1.57-11.25-.06-1.39,1.45-2.92,2.24-4.38l.88,1c-.36.86-.73,1.71-1.09,2.55,1.59.72,3.17,1.46,4.76,2.19Z"/><path class="cls-4" d="M157.58,86.05v4.36c3-2.38,3.85,0,3.87,4.5,1.91-3.16,3.15-7.16,6.06-3.42l.28.44q.38,0,.39.54c-.83,1.75-1.65,3.5-2.48,5.24-.81.85-2,2.7-2.39,2.42-2.23-1.55-5.57-1.85-4.76-7.4l-3.13,4.32-.9-.77c.7-3,1.41-5.94,2.1-8.91Z"/><path class="cls-4" d="M167.33,111.74c-1.59-.73-3.17-1.47-4.76-2.19,2.21-2.38,4.57-3.37,8.3-.89-1.44,1.3-2.39,2.15-3.33,3Z"/><path class="cls-4" d="M167.33,111.74l.21-.07,4.55,1.61c.45,3.91.45,3.87-2.48,3.27a21.41,21.41,0,0,0-2.78-.22C167,114.8,167.16,113.27,167.33,111.74Z"/><path class="cls-4" d="M161.8,168.81c-.14-2.19-.28-4.38-.48-7.48l5.63,2.24c-1.61,2.23-2.43,3.57-3.4,4.62-.45.47-1.21.34-1.84.48Z"/><path class="cls-4" d="M162.61,133.79c0-.21,0-.42,0-.63,1.92-2.44,3.61-6.25,6.9-1.53Z"/><path class="cls-4" d="M164.25,102.76l-.14.15Z"/><path class="cls-4" d="M169.67,91.33l-.84.54Z"/><path class="cls-4" d="M169.67,91.33l-.84.54.1.1V90.85l-.11.09.82.54Z"/><path class="cls-4" d="M168.92,90.85V92l-.75.5q0-.52-.39-.54Z"/><path class="cls-4" d="M169.63,91.48l-.82-.54Z"/><path class="cls-4" d="M150,20.67h-3.87c.74,3.15,1.44,5.77,2,8.45s0,4.88-1.9,5.8c-.39-5.14-.79-10-1.15-14.94-.26-3.72-.68-7.47-.61-11.18,0-1.65,1.11-3.26,1.68-4.81l4.43,3.6-1.15,1.26Z"/><path class="cls-4" d="M159.13,132.3c-1.57,3-2.84,5.38-4.25,8.06V133.8l-11.5,1.76q.72-2.69,1.6-6c2.65,3.74,5.87,1.48,9,.89C156.06,130.05,158.09,129.31,159.13,132.3Z"/><path class="cls-4" d="M161,55.94l-2.5.16.69,4.76-.72,1L149,53l1.19-4.9-.1-.14,5,8.09,7-5.08.73,1.52c-.66,1.2-1.33,2.4-2,3.6A1.14,1.14,0,0,0,161,55.94Z"/><path class="cls-4" d="M150.21,48.06l-.38-3.15a45.6,45.6,0,0,1-3.46,3.63,2.08,2.08,0,0,1-1.84.22c-.23-.07-.33-1.06-.49-1.63l1-.52.26,2.35c.74-2.7,2.42-3.73,0-5.9-3.17-2.77.27-4.46,1.57-6.39l-.75,5c2-.13,4.95,2.18,6.27-3.68l2.87.95c-1.87,3.27-3.5,6.12-5.12,9Z"/><path class="cls-4" d="M134,29.24l2.24.21v1.22H131.5c1.32-3.3,2.79-5.37,1.48-8.85-.56-1.47.38-4.05.67-6.39C137.17,19.84,137.17,19.84,134,29.24Z"/><path class="cls-4" d="M138.88,44.5a49.69,49.69,0,0,1-3.89-4,3,3,0,0,1,.08-2.12,24,24,0,0,1,2.28-3l-.49-1.06,1.74.47L137.28,32l.56-1.07,4.47,4.35-.21.82-2.32-.35Z"/><path class="cls-4" d="M164.85,70.7l.58,6.52-4.22,4.17C160.69,72.3,160.69,72.3,164.85,70.7Z"/><path class="cls-4" d="M131,93.11c-3.19-.6-5.35-5.28-4.23-8.73.24-.73,1.46-1.68,1.62-1.49a13,13,0,0,1,2.3,3.66c.27.68-.25,1.9-.21,2.86A35.26,35.26,0,0,0,131,93.11Z"/><path class="cls-4" d="M133.33,123.06l.75,7.13-.15.19.81,11.1-1.14.5c-.32-1.71-.79-3.4-.95-5.14a74.33,74.33,0,0,1-.47-9c0-1.58.81-3.13,1.26-4.69Z"/><path class="cls-4" d="M149.94,82l-5.18-2,1.61-3.51L147,77c-.17-2.28-.35-4.57-.52-6.85l1.53-.41Z"/><path class="cls-4" d="M133.44,123.2v-7.34l2.17-1.93,1.37,6.31c-.2,1.14-.63,3.66-1.06,6.19l-.47.09-.38-4-1.74.52Z"/><path class="cls-4" d="M155.91,32.84l-4.21-2.45,1.3-5.66-2.28-1.41,4.13-5.12c-.54,4.88-3.65,10.11,2.13,13Z"/><path class="cls-4" d="M135.8,88.3c-2-1-2.33-7.36.78-12.58a50.83,50.83,0,0,1,.42,6.77A42.83,42.83,0,0,1,135.8,88.3Z"/><path class="cls-4" d="M152.61,173.28l-.86,4.26-6.73-4,.18-1.69Z"/><path class="cls-4" d="M142.56,111.7l3.15-7.21,4,.51C145.83,105.6,148.27,115.47,142.56,111.7Z"/><path class="cls-4" d="M141.22,24.59c-.74-2.3-1.87-4.53-2.06-6.91-.11-1.23,1.44-2.74,2.73-5,.91,3.81,2.42,6.5-.9,6.49l.77,5.14Z"/><path class="cls-4" d="M143.91,51.74l-1.74,7.89-.9-.1c-.22-3-.44-6-.69-9.46Z"/><path class="cls-4" d="M132.87,178.31c.1-.22.63-1.92.9-1.84,2,.59,4.76-.51,5.48,3.84Z"/><path class="cls-4" d="M142.81,154.22l-.3,3.11a42.15,42.15,0,0,1-3.37-4.5,14.36,14.36,0,0,1-.87-3.61l.85-.31Z"/><path class="cls-4" d="M130.23,82.75l-1.58-10.36,1.38-.48,1.47,10.42Z"/><path class="cls-4" d="M160,67.28l1.9-7.29,1.63.82L161.65,68Z"/><path class="cls-4" d="M157.58,86.05l-1,1.32c-.34-.55-.69-1.09-1-1.64l.14-.1-.12.24,1.88-1.9-.13.24,0-.24Z"/><path class="cls-4" d="M155.6,85.87l.12-.24-.14.1Z"/><path class="cls-4" d="M157.37,84l0,.24.13-.24Z"/></g><g id="W3ptpP-2" data-name="W3ptpP"><path class="cls-4" d="M285.64,93.48l.11-.08-1.13,1.07-.27-.42c-1.5-4-2.62-7.82-.76-12.55,1.72-4.38,2.68-9.13-.52-13.68-1.22-1.72-1.56-4.67-2.26-6.93l-3-2.41-.12.13c1-.76,2.24-1.21,2.84-2.35a48,48,0,0,0,2.32-6.47l-3,1.5L278.73,46c-1.46,1.33-2.58,2.38-3.73,3.34a11.81,11.81,0,0,1-1.76,1.07,18.83,18.83,0,0,1-.12-3.34,6.75,6.75,0,0,1,1-2.51c1.37-2.24,3.79-4,1.47-7.73-.15-.25,1-2,1.69-3.54l-2.44-1.43V9.89C269.22,12,272,4.58,269.76,2.55c-3,7-7.64,1.75-11.4,2l-.44,7.1-.69.05-1.3-8.9-1.2.44V9.66c-4.68-3.95-8.43-5.11-7.14,6.43l-1.14-3.22-2.95,2.6c-.78,4.2-1.43,7.93-2.17,11.62-.69,3.47-1.49,6.9-2.2,10.18L236.18,34c.2,2.33.47,3.2.3,3.86-.41,1.64-.78,3.58-1.64,4.6-.42.5-1.94-.7-2.9-1.31a12.88,12.88,0,0,1-1.82-1.74,19,19,0,0,0,.43,3.71c1.08,3.22,2.32,6.33,3.5,9.49l-.73.84-2.78-2.68-.6,2.63-1.36-5.17-.87.32,1.28,13c-1.78.33-2.68,2-1.81,4.79.26.87,1.16,1.35,1.76,2l1.25-.64c0,5.37,1.13,11.46-.29,15.93-1.77,5.52.87,8.52,1.36,12.67a19.81,19.81,0,0,1-.15,5.81,77,77,0,0,1-2.19,7.41l.74.31-2.4,1.54c.4,2.54,1,4.41.89,6.18-.25,3.28-1.42,6.52-1.31,9.72.13,3.95,1.17,7.84,1.85,12-.62,2.06-1.44,4.75-2.2,7.25.75.31,1.58.46,1.59.68a17.64,17.64,0,0,1-.13,4.37c-.91,4.27.28,9.31,2.78,10.84,1,.62,2.08,1.06,3.13,1.58l-.31,1.63c-1.47-.36-3-.78-4.43-1.05-.36-.06-1.09.33-1.1.58-.14,2.08-.51,4.36,0,6.18.23.88,2.12.91,3.47,1.4a2.23,2.23,0,0,0-.17,1.16c1.79,5.78,3.61,11.55,5.52,17.27a6.55,6.55,0,0,0,1.69,2.86c2.89,2.35,5.87,4.49,9,6.87l3.32-6.44c1.72,8.93.37,16.86-.48,24.62s-2.46,15.6-3.76,23.58c4,2.91,9-1.08,9.72-9.18l1.25,3.65.62-.23V209.73c1.57-1.37,3.05-2.14,4-3.61a40.2,40.2,0,0,0,2.89-5.9c1.84-4.37,4.35-5.13,7.32-5.4-1.14-8.71-1.14-8.71-4-8.35-1.29-7.37,4.93-1.94,5.13-6.42l5.73,9.62c-.1-4.31-1.46-8.41,2.64-10.2a16,16,0,0,0-.71-5.08c-.53-1.34-1.76-2.14-2.66-3.16.61-.15,1.38,0,1.82-.5a51.2,51.2,0,0,0,3.4-4.61l-5.62-2.25.48,7.48c-.57-.85-1.68-1.78-1.63-2.53.23-2.89.83-5.72,1.23-8.19h3.17l-1.79-4.83,3.59-5.69-1.66-3.53-3.24,4.82c-.05-3.83,3.95-8.07-2-9.93l3.13-5.14,6.89-2.15c-3.29-4.72-5-.92-6.9,1.52,0-1,.07-2,.07-1.88-1.73-1.64-3.38-2.59-4.33-4.31-.82-1.49-.84-3.86-1.21-5.84-.4-2.19-.56-6.23-1.15-6.36-2.3-.5-1.88-1.66-1.15-3.66,2-5.41,5.71-6.84,9.42-8.35l-.14.16c.53-1.74,1.06-3.48,1.59-5.19L285,95l.76-.51-.1-.1.83-.54,0,.16Zm-1.28,20.73,3.33-3c-3.73-2.47-6.08-1.49-8.29.91l1.09-2.56-.88-1c-.79,1.47-2.3,3-2.24,4.38.17,3.78,1.06,7.49,1.57,11.26.19,1.45.12,3,.22,5.58,1.19-.72,3.18-1.28,4.53-2.89,1.94-2.31,1.61-5.34,0-8a23.32,23.32,0,0,1,2.78.21c2.93.61,2.93.64,2.48-3.27Z"/><path class="cls-4" d="M278.53,171.21c.92,1,2.15,1.84,2.68,3.18a16,16,0,0,1,.71,5.08c-4.1,1.79-2.74,5.89-2.64,10.2l-5.73-9.62c-.2,4.48-6.42-1-5.13,6.42,2.84-.36,2.84-.36,4,8.35-3,.27-5.48,1-7.32,5.4a40.2,40.2,0,0,1-2.89,5.9c-.94,1.47-2.42,2.24-4,3.61v27.13l-.62.23-1.25-3.65c-.73,8.1-5.72,12.09-9.72,9.18,1.3-8,2.9-15.7,3.76-23.58s2.2-15.69.48-24.62l-3.32,6.44c-3.17-2.38-6.15-4.52-9-6.87a6.55,6.55,0,0,1-1.69-2.86c-1.91-5.72-3.73-11.49-5.52-17.27a2.23,2.23,0,0,1,.17-1.16c-1.35-.49-3.24-.52-3.47-1.4-.47-1.82-.1-4.1,0-6.18,0-.25.74-.64,1.1-.58,1.48.27,3,.69,4.43,1.05l.31-1.63c-1.05-.52-2.12-1-3.13-1.58-2.5-1.53-3.69-6.57-2.78-10.84a17.64,17.64,0,0,0,.13-4.37c0-.22-.84-.37-1.59-.68.76-2.5,1.58-5.19,2.2-7.25-.68-4.12-1.72-8-1.85-12-.11-3.2,1.06-6.44,1.31-9.72.13-1.77-.49-3.64-.89-6.18l2.4-1.54-.74-.31a77,77,0,0,0,2.19-7.41,19.81,19.81,0,0,0,.15-5.81c-.49-4.15-3.13-7.15-1.36-12.67,1.42-4.47.29-10.56.29-15.93l-1.25.64c-.6-.66-1.5-1.14-1.76-2-.87-2.82,0-4.46,1.81-4.79l-1.28-13,.87-.32,1.36,5.17.6-2.63,2.78,2.68.73-.84c-1.18-3.16-2.42-6.27-3.5-9.49a19,19,0,0,1-.43-3.71,12.88,12.88,0,0,0,1.82,1.74c1,.61,2.48,1.81,2.9,1.31.86-1,1.23-3,1.64-4.6.17-.66-.1-1.53-.3-3.86l2.95,3.31c.71-3.28,1.51-6.71,2.2-10.18.74-3.69,1.39-7.42,2.17-11.62l2.95-2.6,1.14,3.22c-1.29-11.54,2.46-10.38,7.14-6.43V3.21l1.2-.44,1.3,8.9.69-.05.44-7.1c3.76-.22,8.4,5.06,11.4-2,2.26,2-.54,9.45,5.08,7.34V31.82l2.44,1.43c-.73,1.49-1.84,3.29-1.69,3.54,2.32,3.76-.1,5.49-1.47,7.73a6.75,6.75,0,0,0-1,2.51,18.83,18.83,0,0,0,.12,3.34A11.81,11.81,0,0,0,275,49.3c1.15-1,2.27-2,3.73-3.34l1.18,5.33,3-1.5a48,48,0,0,1-2.32,6.47c-.6,1.14-1.87,1.59-2.83,2.34.67-1.21,1.34-2.4,2-3.6L279,53.47l-7,5.09c-1.72-2.77-3.39-5.43-5.05-8.1l5.13-9-2.87-.94c-1.32,5.85-4.29,3.55-6.27,3.67l.74-5c-1.29,1.94-4.73,3.62-1.57,6.4,2.47,2.16.79,3.2,0,5.89l-.25-2.35-1,.53c.16.57.26,1.56.49,1.62a2,2,0,0,0,1.84-.22,49.14,49.14,0,0,0,3.46-3.62l.38,3.15-1.19,4.9,9.46,8.92.73-1-.69-4.77,2.5-.16,3,2.41c.7,2.26,1,5.21,2.26,6.93,3.2,4.55,2.24,9.3.52,13.68-1.86,4.73-.74,8.53.75,12.54-2.91-3.74-4.15.25-6.06,3.41,0-4.53-.91-6.87-3.87-4.49V88.6l-.21-2.09h.11l-1.88,1.91,0-.14,1,1.64-2.1,8.91.89.77,3.14-4.32c-.82,5.55,2.53,5.85,4.75,7.39.42.29,1.59-1.57,2.41-2.43q-.81,2.61-1.6,5.22l.14-.16c-3.71,1.51-7.43,2.94-9.42,8.35-.73,2-1.15,3.16,1.15,3.66.59.13.75,4.17,1.15,6.36.37,2,.39,4.35,1.21,5.84.95,1.72,2.6,2.67,4.33,4.31,0-.14,0,.87-.07,1.88,0,.21,0,.42,0,.63l-3.13,5.14c5.94,1.86,1.94,6.1,2,9.93l3.24-4.82,1.66,3.53-3.59,5.69,1.79,4.83h-3.17c-.4,2.47-1,5.3-1.23,8.19-.05.75,1.06,1.68,1.63,2.53Zm-28.26-45.46c-.45,1.56-1.22,3.1-1.26,4.69a74.54,74.54,0,0,0,.47,8.95c.16,1.74.62,3.43,1,5.14l1.14-.5-.81-11.1.15-.19-.75-7.13,1.74-.53.38,4,.47-.1c.43-2.52.86-5,1.05-6.19l-1.37-6.31-2.16,1.94ZM266.85,23.22l-.6-11.83,1.14-1.26L263,6.54c-.57,1.54-1.65,3.15-1.68,4.8-.07,3.72.35,7.46.61,11.19.35,4.9.75,9.79,1.15,14.93,1.9-.91,2.45-3,1.9-5.8s-1.23-5.29-2-8.44ZM276,134.84c-1-3-3.08-2.24-5.18-1.85-3.1.58-6.33,2.84-9-.89q-.88,3.33-1.6,6l11.5-1.75v6.55ZM250.8,31.78c3.2-9.39,3.2-9.39-.32-13.8-.29,2.33-1.23,4.92-.67,6.39,1.31,3.48-.16,5.54-1.48,8.84H253V32ZM255.71,47l.9-8.79,2.32.34.21-.82-4.48-4.34-.56,1.06,1.33,2.91-1.74-.48.48,1.06a25,25,0,0,0-2.27,3,3,3,0,0,0-.08,2.12A48.24,48.24,0,0,0,255.71,47Zm26,26.2c-4.16,1.61-4.16,1.61-3.65,10.7l4.23-4.18ZM247.84,95.66a35.4,35.4,0,0,1-.52-3.71c0-1,.47-2.17.21-2.86a13,13,0,0,0-2.3-3.65c-.17-.19-1.38.75-1.62,1.49C242.49,90.38,244.65,95.06,247.84,95.66Zm18.93-11.14-2-12.19-1.52.4c.17,2.29.35,4.57.52,6.86l-.6-.57-1.6,3.5Zm6-49.14,1.06-1.65c-5.78-2.87-2.66-8.1-2.12-13l-4.13,5.12,2.28,1.42-1.3,5.66ZM252.63,90.84a42.38,42.38,0,0,0,1.2-5.8,52.83,52.83,0,0,0-.42-6.78C250.3,83.49,250.6,89.81,252.63,90.84Zm16.81,85-7.41-1.4-.18,1.68,6.73,4Zm-10.05-61.58c5.7,3.77,3.27-6.11,7.17-6.7l-4-.51Zm-1.34-87.12.54-.25-.78-5.14c3.33,0,1.82-2.68.91-6.49-1.29,2.24-2.84,3.74-2.74,5C256.18,22.61,257.31,24.84,258.05,27.13Zm2.69,27.16-3.33-1.67c.25,3.44.47,6.44.69,9.45l.9.11Zm-11,126.56,6.38,2c-.73-4.34-3.47-3.24-5.48-3.83C250.33,178.94,249.8,180.64,249.7,180.85Zm9.94-24.09c-1.63-2.33-2.66-3.82-3.69-5.3l-.85.31a13.77,13.77,0,0,0,.87,3.6,42.15,42.15,0,0,0,3.37,4.5ZM247.06,85.29l1.26-.42-1.46-10.41-1.38.48Zm29.71-15.46,1.71.73,1.83-7.2-1.63-.82Z"/><path class="cls-4" d="M283.66,118.87c1.64,2.67,2,5.7,0,8-1.35,1.61-3.34,2.17-4.53,2.89-.1-2.61,0-4.13-.22-5.58-.51-3.77-1.4-7.48-1.57-11.26-.06-1.38,1.45-2.91,2.24-4.38l.88,1c-.37.85-.73,1.71-1.09,2.55,1.59.72,3.17,1.45,4.76,2.19Z"/><path class="cls-4" d="M274.41,88.6V93c3-2.38,3.85,0,3.87,4.49,1.91-3.16,3.15-7.15,6.06-3.41l.28.43c.25,0,.38.19.38.55-.82,1.75-1.65,3.5-2.47,5.23-.81.85-2,2.71-2.4,2.42-2.22-1.54-5.57-1.84-4.75-7.39l-3.14,4.32-.89-.77,2.1-8.91Z"/><path class="cls-4" d="M284.16,114.29c-1.59-.74-3.17-1.47-4.76-2.19,2.21-2.39,4.56-3.37,8.29-.9l-3.32,3Z"/><path class="cls-4" d="M284.16,114.29l.21-.08,4.55,1.61c.45,3.91.45,3.88-2.48,3.27a23.32,23.32,0,0,0-2.78-.21C283.83,117.35,284,115.82,284.16,114.29Z"/><path class="cls-4" d="M278.63,171.35l-.48-7.48,5.62,2.25a51.2,51.2,0,0,1-3.4,4.61c-.44.47-1.21.35-1.83.49Z"/><path class="cls-4" d="M279.44,136.33c0-.21,0-.42,0-.63,1.91-2.44,3.61-6.24,6.9-1.52Z"/><path class="cls-4" d="M281.08,105.3l-.14.16Z"/><path class="cls-4" d="M286.49,93.87l-.83.54Z"/><path class="cls-4" d="M286.49,93.87l-.83.54.1.1V93.4l-.11.08.82.55Z"/><path class="cls-4" d="M285.75,93.4v1.11L285,95c0-.36-.13-.54-.38-.55Z"/><path class="cls-4" d="M286.46,94l-.82-.55Z"/><path class="cls-4" d="M266.85,23.22H263c.74,3.15,1.43,5.76,2,8.44s0,4.89-1.9,5.8c-.4-5.14-.8-10-1.15-14.93-.26-3.73-.68-7.47-.61-11.19,0-1.65,1.11-3.26,1.68-4.8l4.42,3.59-1.14,1.26Z"/><path class="cls-4" d="M276,134.84l-4.25,8.06v-6.55l-11.5,1.75q.72-2.67,1.6-6c2.64,3.73,5.87,1.47,9,.89C272.88,132.6,274.92,131.85,276,134.84Z"/><path class="cls-4" d="M277.85,58.48l-2.5.16.69,4.77-.73,1-9.46-8.92,1.19-4.9-.11-.15c1.66,2.67,3.33,5.33,5.05,8.1l7-5.09.73,1.53c-.66,1.2-1.33,2.39-2,3.6Z"/><path class="cls-4" d="M267,50.61l-.38-3.15a49.14,49.14,0,0,1-3.46,3.62,2,2,0,0,1-1.84.22c-.23-.06-.33-1-.49-1.62l1-.53.25,2.35c.75-2.69,2.43-3.73,0-5.89-3.16-2.78.28-4.46,1.57-6.4l-.74,5c2-.12,4.95,2.18,6.27-3.67l2.87.94-5.13,9Z"/><path class="cls-4" d="M250.8,31.78,253,32v1.22h-4.71c1.32-3.3,2.79-5.36,1.48-8.84-.56-1.47.38-4.06.67-6.39C254,22.39,254,22.39,250.8,31.78Z"/><path class="cls-4" d="M255.71,47a48.24,48.24,0,0,1-3.89-4A3,3,0,0,1,251.9,41a25,25,0,0,1,2.27-3l-.48-1.06,1.74.48-1.33-2.91.56-1.06,4.48,4.34-.21.82-2.32-.34Z"/><path class="cls-4" d="M281.68,73.24l.58,6.52L278,83.94C277.52,74.85,277.52,74.85,281.68,73.24Z"/><path class="cls-4" d="M247.84,95.66c-3.19-.6-5.35-5.28-4.23-8.73.24-.74,1.45-1.68,1.62-1.49a13,13,0,0,1,2.3,3.65c.26.69-.25,1.9-.21,2.86A35.4,35.4,0,0,0,247.84,95.66Z"/><path class="cls-4" d="M250.16,125.6l.75,7.14-.15.19.81,11.1-1.14.5c-.33-1.71-.79-3.4-1-5.14a74.54,74.54,0,0,1-.47-8.95c0-1.59.81-3.13,1.26-4.69Z"/><path class="cls-4" d="M266.77,84.52l-5.18-2c.54-1.17,1.07-2.33,1.6-3.5l.6.57c-.17-2.29-.35-4.57-.52-6.86l1.52-.4Z"/><path class="cls-4" d="M250.27,125.75v-7.34l2.16-1.94,1.37,6.31c-.19,1.15-.62,3.67-1.05,6.19l-.47.1-.38-4-1.74.52Z"/><path class="cls-4" d="M272.74,35.38l-4.21-2.44,1.3-5.66-2.28-1.42,4.13-5.12c-.54,4.89-3.66,10.12,2.12,13Z"/><path class="cls-4" d="M252.63,90.84c-2-1-2.33-7.35.78-12.58a52.83,52.83,0,0,1,.42,6.78A42.38,42.38,0,0,1,252.63,90.84Z"/><path class="cls-4" d="M269.44,175.83l-.86,4.25-6.73-4,.18-1.68Z"/><path class="cls-4" d="M259.39,114.25l3.15-7.21,4,.51C262.66,108.14,265.09,118,259.39,114.25Z"/><path class="cls-4" d="M258.05,27.13c-.74-2.29-1.87-4.52-2.07-6.91-.1-1.23,1.45-2.73,2.74-5,.91,3.81,2.42,6.49-.91,6.49l.78,5.14Z"/><path class="cls-4" d="M260.74,54.29,259,62.18l-.9-.11c-.22-3-.44-6-.69-9.45Z"/><path class="cls-4" d="M249.7,180.85c.1-.21.63-1.91.9-1.83,2,.59,4.75-.51,5.48,3.83Z"/><path class="cls-4" d="M259.64,156.76l-.3,3.11a42.15,42.15,0,0,1-3.37-4.5,13.77,13.77,0,0,1-.87-3.6l.85-.31C257,152.94,258,154.43,259.64,156.76Z"/><path class="cls-4" d="M247.06,85.29l-1.58-10.35,1.38-.48,1.46,10.41Z"/><path class="cls-4" d="M276.77,69.83l1.91-7.29,1.63.82-1.83,7.2Z"/><path class="cls-4" d="M274.41,88.6l-1,1.32c-.34-.55-.69-1.1-1-1.64l.14-.1-.12.24,1.88-1.91c0,.09-.09.17-.13.25l0-.25Z"/><path class="cls-4" d="M272.43,88.42l.12-.24-.14.1Z"/><path class="cls-4" d="M274.2,86.51l0,.25c0-.08.09-.16.13-.25Z"/></g><g id="PY8cEr"><path class="cls-4" d="M347.6,244c-3.74,3.22-4.07,3.19-7.33-.1a2.56,2.56,0,0,0-1.49-.53c-2.58-.23-5.17-.39-8.09-.6-1.14,3.34-4.29,2-7,1.91-1.14-3.33-3.22-3.93-6.12-1.59-1.47,1.19-2.74,3-4.39.21-.16-.26-1.1-.27-1.57-.1-1.8.68-3.53,2-5.33,2.11-2.54.11-5.12-.62-7.66-1.12A13.13,13.13,0,0,1,296,243l-1.77,1.36-1.77-2.49c-.07.89-.11,1.34-.09,1.16l-5.82.71c1.11-2.18-1.09-5.7,3.27-7.13l-2.94-1c2.76-2.42,4.91-4.63,7.42-6.28.7-.46,2.47.83,3.78,1.15a17.16,17.16,0,0,0,2.9.16v-3.77l3.14,2.5c.83-.79,1.45-1.81,2.25-2,.5-.11,1.27,1.06,1.9,1.68,1,1,2,1.95,3,3,2.26-3.79,2.25-3.76-1.19-4.91-.49-.16-.84-.76-1.26-1.15.44-.34.83-.87,1.32-1a9.73,9.73,0,0,1,3-.23c1.78.19,3.55.57,5.6.92l-1.5-4-2.54-.23-.44-3.18,7.86,4c.12-2,.21-3.57.3-5.18l-.75-.32a23,23,0,0,1,2.89-4.2c.59-.55,2-.22,3-.28l.12.84-2.4,1.27,7.81.54c0-3.31-1.16-4.09-4-3.05a5.69,5.69,0,0,1-.81-1.59c-.36-2-.46-4.36-2.94-1.17-.24.31-1.29.3-1.74,0a1.74,1.74,0,0,1-.7-1.52,22.87,22.87,0,0,1,1.8-3.16c-.31-.36-1-1.75-1.61-1.73-4.53.16-3.27-3-3.62-5.7,2.5.6,2.92,1.84,1.41,4.22l5.08-.72,2.41-5.75c-1.57,1.59-3.38-2.31-4.11,1.87-.64-.78-1.07-1.34-1.54-1.88-1.39-1.61-1.45-4.82-5-3.88-.67.18-2.12-1-2.52-1.86s-1.71-2.48.7-2.94c.16,0,0-1.08.2-1.62a6.33,6.33,0,0,1,1.06-2.7c.48-.48,1.61-.41,2.45-.42a6.65,6.65,0,0,1,1.71.41c-2.49-2.55-5-4.71-4.24-9,2.76.77,4.15-.13,4.07-3.37.56,1.41,1.12,2.83,1.69,4.24l1.24-.18c-.08-1.91-.17-3.82-.25-5.64-2.74-2.61-4.15,4.38-6.71,1.54l3.59-5.91-.8-.56h3.58l.39,2.39.62.08.92-2.39,4.05.53L329,162l3,.8a17,17,0,0,0-1.89-2.88c-3.52-3.25-7.31-1.09-11.27-.18,2.57-2.83.47-4.91-.61-7-.13-.25-1.65.2-2.66.35-2.94-3.08-2.94-3.08-1.39-5.08l2.32,2,.92-.95-5.61-6.55.66-1.75c.44.33.86.88,1.34.94,1.53.19,3.08.19,5.41.3-.62-.7-1.11-1.74-1.7-1.8a27.52,27.52,0,0,0-4.6.28l-.55-4.64-4.86-2.92.85,6.68-2-.09-.47-3.79c-3.05,1.16-2.65-2.66-4.57-3.15l3.31-.15-2.28-2.11a22.89,22.89,0,0,0,2.53-1.79,2.1,2.1,0,0,0,.7-1.61c-.15-.57-.86-1.41-1.31-1.4-3.21.1-6.51-2.51-9.67.23-.22.19-.82-.08-1.24-.08-3.46.06-3.94-2.86-5.07-5.47l-2.71,2,.27.53,2.85-.17c-2.58,2.76-.25,3.26,1.4,4L288.65,129l4.81,1.12c-2.4,1.61-3.87,2.5-5.65-.78-1.13,2.33-1.73,4.43-3,6-3.05,3.77-3.18,3.67-3.05,4.17l5.36.37-.06,1.06h-3.87l-.07.57,3.11.84-2.35,5.27-.61-.22.49-4.4-1.61-.51c-.87,1.19-1.28,2.16-2,2.64a7.23,7.23,0,0,1-2.58.51c.2-2.73-2.83-1.64-3.75-3.16-.5-.81-1.55-1.28-2.89-2.33L269.88,146l-2-4.36-3.23-.25c-.4,1.72-.66,3.52-1.23,5.21-1,3-.1,5.28,2.9,6.72-1.11,1-2.2,2-4,3.59l6-1,.44-1-2.6-1.54c.45-1.62.49-4.27,1.43-4.65,2.11-.83,4.67-.52,7.41-.71l-2.29,6.45-2.8-.17-.62,3.14c-1.11-.07-2.5-.47-2.72-.12-.6.92-.51,2.25-1,3.26-.61,1.22,2,3.5-1.24,3.84a2.39,2.39,0,0,0-.18,1.35c2.75,1.36.38,3.68,1.69,6l-8.07-.54,1.25,1.84,2.13-.72,2.23,4.81-4-2.52-2.47,3-3.2-3.45c.5,7.09-3.23,1-4.72,2.59l1.43,2c-2.91.28-3.06.59-2.13,2.78,1.12-.57,2.24-1.24,3.43-1.71a8.33,8.33,0,0,1,3.55-.88,16.53,16.53,0,0,1,4,1.45l-.34.91-2.3-.15.89,4.4-2.77-.89v8l-3.18-5.3-.91.49a35.41,35.41,0,0,0,2.35,5.82c.91,1.47,2.08,1.2,2.43-.69l3.44.85-.82,3.17,4.52,1.72c-2.5.66-4.12,1.37-2.08,4.85l-9.17-2c-3.12,3-.47,5.18,1.59,6.41.82.49,3.3-1.8,4.87-2.73.39,1,.63,2.75,1.65,3.71s2.66.77,4,1.1l-.23.87-2.6.31-.28.76c1.54,1,3.08,1.91,4.61,2.88l-2.54,1.53-1.61,2.31-1.53-.87-.7.69a14.6,14.6,0,0,1,2,2.52c.52,1.1,1.24,2.53.92,3.51-.52,1.64-.65,2.55,1.24,3.07a22.51,22.51,0,0,1,3,1.33l-1.49,1,1.41,1.25-2.17,1.37c.86.09,1.54.37,2,.18,1.63-.6,3.32-2.16,4.75-1.91,2.57.44,5,1.91,7.43,2.95l.46.78c.89,1,1.6,2.48,2.72,3,2.18.95,2.66,2.44,2.54,4.7-2.73.51-5.42,1.42-8.11,1.42-5,0-10.08-.76-15.11-.71-4.76.06-9.5.82-14.26,1.16-3.27.24-6.55.29-9.83.43M278.8,135.13l-2.66-2c-2.91.81-4.36,2.25-3.48,4.63l6.44-2.67-.37,4.8a21.85,21.85,0,0,0,2.37-7.14c.07-.37-.65-1.12-1.13-1.26a1.59,1.59,0,0,0-1.31.84A9.92,9.92,0,0,0,278.8,135.13Zm-18.51,90.6c-1.79-3.28-5.2-.17-7.28-1.86C255.25,225,256.64,229.18,260.29,225.73Zm65.49-72.92.7.26c.43-1.12,1.16-2.25,1.16-3.37,0-.62-1.11-1.46-1.9-1.79-.46-.18-1.25.45-1.06.37ZM331,199l2.14,1.85-.33.57h3.39C334.93,198.88,333.7,197.37,331,199ZM299.78,119.5c.06-.13-.24.55-.53,1.24l.76.31,1.47-2.88-4.7-1.38-.39.92Zm32.58,112.07c.31-1.5.59-2.83.94-4.46l-3.55,1.22Zm-82.25-22.41-.48-.16a9.61,9.61,0,0,0-.37,1.15s.33.18.51.27Z"/><path class="cls-4" d="M236.12,244.5c3.28-.14,6.56-.19,9.83-.43,4.76-.34,9.5-1.1,14.26-1.16,5,0,10.07.73,15.11.71,2.69,0,5.38-.91,8.11-1.42.12-2.26-.36-3.75-2.54-4.7-1.12-.49-1.83-1.95-2.72-3a48.71,48.71,0,0,0,6.3-.86c.37-.09.72-2,.39-2.74a8,8,0,0,0-2.29-2.79c-2.79,1.79-2.63-.75-3.21-2.27l-5.86,1.22-.08.77,1.71.62,2.58,5.27c-2.46-1-4.86-2.51-7.43-2.95-1.43-.25-3.12,1.31-4.75,1.91-.5.19-1.18-.09-2-.18l2.17-1.37-1.41-1.25,1.49-1a22.51,22.51,0,0,0-3-1.33c-1.89-.52-1.76-1.43-1.24-3.07.32-1-.4-2.41-.92-3.51a14.6,14.6,0,0,0-2-2.52l.7-.69,1.53.87,1.61-2.32c1.09,1.34,1.85,3.24,4.19,2.38,1.17-2.1,2.52-3.29,4.67-1a2,2,0,0,0,1.41.51c1.29-.09,2.58-.34,4-.54l-1.1,4,5.13-2.64-3.28-4.17,1.21-.78-7.1-.93V206.3c-.17-.19-.77-.86-1.33-1.57s-1.08-1.5-1.61-2.26c-.5.74-1,1.45-1.46,2.22a22.82,22.82,0,0,0-1,2.18l-1.93-1.54,2.49-.27-5-1.82c.52,2.13.43,4,1.3,4.75,1.06.93,2.93.93,3.8,1.17L265.41,214l-.4.82-4.61-2.87.28-.76,2.6-.31.23-.87c-1.38-.33-3.14-.26-4-1.1s-1.26-2.74-1.65-3.71c-1.57.93-4,3.22-4.87,2.73-2.06-1.23-4.71-3.39-1.59-6.41l9.17,2c-2-3.48-.42-4.19,2.08-4.85L258.09,197l.82-3.17-3.44-.85-.69-.32v-8l2.77.89-.89-4.4,2.3.15.34-.91a16.53,16.53,0,0,0-4-1.45,8.33,8.33,0,0,0-3.55.88c-1.19.47-2.31,1.14-3.43,1.71-.93-2.19-.78-2.5,2.13-2.78l-1.43-2c1.49-1.56,5.22,4.5,4.72-2.59l3.2,3.45,2.47-3,4,2.52-2.23-4.81-2.13.72-1.25-1.84,8.07.54c-1.31-2.29,1.06-4.61-1.69-6a2.39,2.39,0,0,1,.18-1.35c3.28-.34.63-2.62,1.24-3.84.51-1,.42-2.34,1-3.26.22-.35,1.61.05,2.72.12l.62-3.14,2.8.17,2.29-6.45c-2.74.19-5.3-.12-7.41.71-.94.38-1,3-1.43,4.65l.1-.06c-3-1.44-3.91-3.73-2.9-6.72.57-1.69.83-3.49,1.23-5.21l3.23.25,2,4.36,1.06-5.85c1.34,1.05,2.39,1.52,2.89,2.33.92,1.52,3.95.43,3.75,3.16a7.23,7.23,0,0,0,2.58-.51c.73-.48,1.14-1.45,2-2.64l1.61.51-.49,4.4.61.22,2.35-5.27-3.11-.84.07-.57h3.87l.06-1.06-5.36-.37c-.13-.5,0-.4,3.05-4.17,1.25-1.55,1.85-3.65,3-6,1.78,3.28,3.25,2.39,5.65.78L288.65,129l1.41-2.46c-1.65-.76-4-1.26-1.4-4l-2.85.17-.27-.53,2.71-2c1.13,2.61,1.61,5.53,5.07,5.47.42,0,1,.27,1.24.08,3.16-2.74,6.46-.13,9.67-.23.45,0,1.16.83,1.31,1.4a2.1,2.1,0,0,1-.7,1.61,22.89,22.89,0,0,1-2.53,1.79l2.28,2.11-3.31.15c1.92.49,1.52,4.31,4.57,3.15l.47,3.79,2,.09-.85-6.68,4.86,2.92c.24,2,.4,3.33.55,4.63a1.19,1.19,0,0,1-.45.29l-.66,1.75,5.61,6.55-.92.95-2.32-2c-1.55,2-1.55,2,1.39,5.08,1-.15,2.53-.6,2.66-.35,1.08,2.1,3.18,4.18.61,7,4-.91,7.75-3.07,11.27.18a17,17,0,0,1,1.89,2.88l-3-.8.46,1.67-4.05-.53-.92,2.39-.62-.08-.39-2.39h-3.58l.8.56-3.59,5.91c2.56,2.84,4-4.15,6.71-1.54.08,1.82.17,3.73.25,5.64l-1.24.18c-.57-1.41-1.13-2.83-1.69-4.24.08,3.24-1.31,4.14-4.07,3.37-.74,4.29,1.75,6.45,4.24,9a6.65,6.65,0,0,0-1.71-.41c-.84,0-2-.06-2.45.42a6.33,6.33,0,0,0-1.06,2.7c-.15.54,0,1.59-.2,1.62-2.41.46-1,2.21-.7,2.94s1.85,2,2.52,1.86c3.58-.94,3.64,2.27,5,3.88.47.54.9,1.1,1.54,1.88.73-4.18,2.54-.28,4.11-1.87l-2.41,5.75-5.08.72c1.51-2.38,1.09-3.62-1.41-4.22.35,2.65-.91,5.86,3.62,5.7.63,0,1.3,1.37,1.61,1.73a22.87,22.87,0,0,0-1.8,3.16,1.74,1.74,0,0,0,.7,1.52c.45.26,1.5.27,1.74,0,2.48-3.19,2.58-.88,2.94,1.17a5.69,5.69,0,0,0,.81,1.59c2.88-1,4-.26,4,3.05l-7.81-.54,2.4-1.27-.12-.84c-1,.06-2.41-.27-3,.28a23,23,0,0,0-2.89,4.2l.75.32c-.09,1.61-.18,3.14-.3,5.18l-7.86-4,.44,3.18,2.54.23,1.5,4c-2.05-.35-3.82-.73-5.6-.92a9.73,9.73,0,0,0-3,.23c-.49.11-.88.64-1.32,1,.42.39.77,1,1.26,1.15,3.44,1.15,3.45,1.12,1.19,4.91-1.07-1.06-2-2-3-3-.63-.62-1.4-1.79-1.9-1.68-.8.16-1.42,1.18-2.25,2l-3.14-2.5v3.77a17.16,17.16,0,0,1-2.9-.16c-1.31-.32-3.08-1.61-3.78-1.15-2.51,1.65-4.66,3.86-7.42,6.28l2.94,1c-4.36,1.43-2.16,5-3.27,7.13l5.82-.71c0,.18,0-.27.09-1.16l1.77,2.49L296,243a13.13,13.13,0,0,0,2.6,1.16c2.54.5,5.12,1.23,7.66,1.12,1.8-.08,3.53-1.43,5.33-2.11.47-.17,1.41-.16,1.57.1,1.65,2.78,2.92,1,4.39-.21,2.9-2.34,5-1.74,6.12,1.59,2.73,0,5.88,1.43,7-1.91,2.92.21,5.51.37,8.09.6a2.56,2.56,0,0,1,1.49.53c3.26,3.29,3.59,3.32,7.33.1m-64.92-93.21-2.6,5.16,5.09-2.82-2.58-2.25-1.45-4.13-1.22-.05-1.7,4.09ZM300,206.57c-.86,6.33,5.23,3,7.64,5,.19.16,1-.47,2-.92l-3.69-1.89,3.18-2c-1.72-.62-2.85-1.4-3.95-1.35A28.89,28.89,0,0,0,300,206.57Zm-9.32-5.22V195.7L284,199.88l3.1,5.81c.48-2.49.87-4.5,1.31-6.82Zm-15.83-1.44,6.05-4.26-4.48-2.35-.38,2.85-2.57-2.3-.54.38Zm17.51,22.46a25.42,25.42,0,0,0-2.37,1c-.05,0,.2,1,.36,1a5.31,5.31,0,0,0,2.32-.09,33.44,33.44,0,0,0,3.44-1.64l-2.46-4.05C290.46,218.62,290.46,218.63,292.35,222.37Zm-7-50.37c-2.42-2.53-.94-8-6-7.7.76,1.75,1.49,3.49,2.24,5.22C282.23,171,282.23,173.25,285.36,172Zm36.46,32.09-7.46,3.24,2.73.62a13.55,13.55,0,0,0-1.8,1.52c-.08.09.6,1,.63,1a19.51,19.51,0,0,0,4.3-2.59C321,207.11,321.19,205.67,321.82,204.09Zm-27.1,9.38c.45,1.36.48,2,.76,2.16a4.6,4.6,0,0,0,2.38.49c.32,0,.82-1.53.69-1.63a11.22,11.22,0,0,0-3.94-2.32c-.66-.14-2.05,1.22-2.42,2.17s.29,2.06.57,3.5Zm-6.35,11.62c.19,2.64.32,4.5.49,6.89l4.9-4.46ZM306.61,204l.24,1.11,5.2,1.75.43-.8-2.69-2,2.77-1.59-.4-.69Zm-9.7-4.82c-.64-1.89-1.54-3.41-3.75-2.39-.71.32-1,1.54-1.51,2.35l2.58,1.18.36-.8-1.73-1.4.36-.55Zm-6.67-31.28c1.06-3.84-3-2.5-3.9-5.27l-.65,3Zm15.19,58.35,3-3.44-4.93-.86Z"/><path class="cls-4" d="M277.71,233.75l-2.58-5.27-1.71-.62.08-.77,5.86-1.22c.58,1.52.42,4.06,3.21,2.27a8,8,0,0,1,2.29,2.79c.33.77,0,2.65-.39,2.74a48.71,48.71,0,0,1-6.3.86Z"/><path class="cls-4" d="M278.8,135.13a9.92,9.92,0,0,1-.14-2.83,1.59,1.59,0,0,1,1.31-.84c.48.14,1.2.89,1.13,1.26a21.85,21.85,0,0,1-2.37,7.14l.37-4.8-6.44,2.67c-.88-2.38.57-3.82,3.48-4.63Z"/><path class="cls-4" d="M260.29,225.73c-3.65,3.45-5-.74-7.28-1.86C255.09,225.56,258.5,222.45,260.29,225.73Z"/><path class="cls-4" d="M266.66,218.7c-2.34.86-3.1-1-4.19-2.38.85-.5,1.69-1,2.54-1.52.13-.28.26-.56.4-.83Z"/><path class="cls-4" d="M254.78,192.62l.69.32c-.35,1.89-1.52,2.16-2.43.69a35.41,35.41,0,0,1-2.35-5.82l.91-.49Z"/><path class="cls-4" d="M266.21,153.37l2.6,1.54-.44,1-6,1c1.78-1.6,2.87-2.6,4-3.59Z"/><path class="cls-4" d="M312.47,140.69a1.19,1.19,0,0,0,.45-.29,28.61,28.61,0,0,1,4.6-.27c.59.06,1.08,1.1,1.7,1.8-2.33-.11-3.88-.11-5.41-.3C313.33,141.57,312.91,141,312.47,140.69Z"/><path class="cls-4" d="M325.78,152.81l-1.1-4.53c-.19.08.6-.55,1.06-.37.79.33,1.91,1.17,1.9,1.79,0,1.12-.73,2.25-1.16,3.37Z"/><path class="cls-4" d="M331,199c2.71-1.62,3.94-.11,5.2,2.42H332.8l.33-.57Z"/><path class="cls-4" d="M299.78,119.5l-3.39-1.79.39-.92,4.7,1.38L300,121.05l-.76-.31C299.54,120.05,299.84,119.37,299.78,119.5Z"/><path class="cls-4" d="M332.36,231.57l-2.61-3.24,3.55-1.22C333,228.74,332.67,230.07,332.36,231.57Z"/><path class="cls-4" d="M250.11,209.16l-.34,1.26c-.18-.09-.52-.22-.51-.27a9.61,9.61,0,0,1,.37-1.15Z"/><path class="cls-4" d="M266.66,218.7,265.41,214l1.49-4.81c-.87-.24-2.74-.24-3.8-1.17-.87-.77-.78-2.62-1.3-4.75l5,1.82-2.49.27,1.93,1.54a22.82,22.82,0,0,1,1-2.18c.43-.77,1-1.48,1.46-2.22.53.76,1.05,1.53,1.61,2.26s1.16,1.38,1.33,1.57v6.91l7.1.93-1.21.78,3.28,4.17-5.13,2.64,1.1-4c-1.38.2-2.67.45-4,.54a2,2,0,0,1-1.41-.51C269.18,215.41,267.83,216.6,266.66,218.7Z"/><path class="cls-4" d="M300,206.57a28.89,28.89,0,0,1,5.17-1.17c1.1-.05,2.23.73,3.95,1.35l-3.18,2,3.69,1.89c-.95.45-1.8,1.08-2,.92C305.22,209.56,299.13,212.9,300,206.57Z"/><path class="cls-4" d="M290.67,201.35l-2.3-2.48c-.44,2.32-.83,4.33-1.31,6.82l-3.1-5.81,6.71-4.18Z"/><path class="cls-4" d="M274.84,199.91l-1.92-5.68.54-.38,2.57,2.3.38-2.85,4.48,2.35Z"/><path class="cls-4" d="M292.35,222.37c-1.89-3.74-1.89-3.75,1.29-3.81l2.46,4.05a33.44,33.44,0,0,1-3.44,1.64,5.31,5.31,0,0,1-2.32.09c-.16,0-.41-1-.36-1A25.42,25.42,0,0,1,292.35,222.37Z"/><path class="cls-4" d="M285.36,172c-3.13,1.25-3.13-1-3.76-2.48-.75-1.73-1.48-3.47-2.24-5.22C284.42,164,282.94,169.47,285.36,172Z"/><path class="cls-4" d="M321.82,204.09c-.63,1.58-.79,3-1.6,3.8a19.51,19.51,0,0,1-4.3,2.59s-.71-.92-.63-1a13.55,13.55,0,0,1,1.8-1.52l-2.73-.62Z"/><path class="cls-4" d="M294.72,213.47l-2,4.37c-.28-1.44-.9-2.66-.57-3.5s1.76-2.31,2.42-2.17a11.22,11.22,0,0,1,3.94,2.32c.13.1-.37,1.59-.69,1.63a4.6,4.6,0,0,1-2.38-.49C295.2,215.51,295.17,214.83,294.72,213.47Z"/><path class="cls-4" d="M288.37,225.09l5.39,2.43-4.9,4.46C288.69,229.59,288.56,227.73,288.37,225.09Z"/><path class="cls-4" d="M306.61,204l5.55-2.27.4.69L309.79,204l2.69,2-.43.8-5.2-1.75Z"/><path class="cls-4" d="M296.91,199.16l-3.69-1.61-.36.55,1.73,1.4-.36.8-2.58-1.18c.49-.81.8-2,1.51-2.35C295.37,195.75,296.27,197.27,296.91,199.16Z"/><path class="cls-4" d="M290.24,167.88l-4.55-2.23.65-3C287.25,165.38,291.3,164,290.24,167.88Z"/><path class="cls-4" d="M305.43,226.23l-1.92-4.3,4.93.86Z"/><path class="cls-4" d="M282.68,150.79h-4.46l1.7-4.09,1.22.05,1.45,4.13Z"/><path class="cls-4" d="M282.59,150.88l2.58,2.25L280.08,156l2.6-5.16Z"/></g><g id="PY8cEr-2" data-name="PY8cEr"><path class="cls-4" d="M151.75,241.81c-5.09,5-5.53,4.94-10-.15a3.19,3.19,0,0,0-2-.82c-3.52-.35-7-.61-11-.94-1.55,5.18-5.85,3-9.56,3-1.55-5.17-4.38-6.09-8.33-2.46-2,1.84-3.73,4.63-6,.31-.21-.4-1.5-.41-2.13-.14-2.45,1-4.81,3.14-7.26,3.26-3.45.18-7-1-10.43-1.73a16.61,16.61,0,0,1-3.53-1.8l-2.41,2.1c-.84-1.33-1.49-2.38-2.41-3.85-.1,1.38-.15,2.08-.13,1.79l-7.92,1.11c1.51-3.38-1.48-8.84,4.45-11.05l-4-1.5c3.76-3.75,6.68-7.17,10.1-9.72,1-.72,3.36,1.28,5.15,1.77a19.82,19.82,0,0,0,3.94.26v-5.85l4.28,3.88c1.13-1.23,2-2.81,3.06-3.06.68-.16,1.73,1.65,2.59,2.61,1.35,1.5,2.67,3,4.12,4.66,3.08-5.87,3.07-5.83-1.62-7.61-.67-.25-1.14-1.17-1.7-1.78.59-.53,1.12-1.35,1.79-1.51a11.42,11.42,0,0,1,4.06-.36c2.43.29,4.84.88,7.63,1.42l-2-6.2-3.45-.35-.6-4.94,10.7,6.18c.16-3.16.28-5.52.41-8l-1-.5c1.4-2.42,2.37-4.84,4-6.51.79-.84,2.68-.33,4.08-.44l.16,1.32-3.27,2L132,197c0-5.14-1.59-6.35-5.51-4.74a9.66,9.66,0,0,1-1.1-2.46c-.49-3.17-.63-6.76-4-1.81-.33.48-1.76.47-2.37.07a2.84,2.84,0,0,1-1-2.36,34.4,34.4,0,0,1,2.45-4.9c-.43-.55-1.34-2.71-2.19-2.68-6.18.24-4.46-4.73-4.93-8.84,3.4.93,4,2.86,1.92,6.55l6.92-1.11c1.18-3.21,2-5.38,3.28-8.93-2.14,2.47-4.61-3.57-5.6,2.91-.87-1.21-1.46-2.08-2.1-2.92-1.89-2.5-2-7.47-6.84-6-.92.27-2.89-1.55-3.43-2.89-.47-1.14-2.33-3.84,1-4.57.22-.05.07-1.67.28-2.5.36-1.46.57-3.21,1.43-4.18.65-.76,2.19-.64,3.34-.66a8.89,8.89,0,0,1,2.33.63c-3.39-3.95-6.79-7.3-5.78-13.94,3.77,1.19,5.66-.2,5.54-5.23.77,2.2,1.53,4.39,2.3,6.58l1.7-.28c-.12-3-.24-5.93-.35-8.74-3.73-4.06-5.65,6.79-9.13,2.39l4.88-9.17-1.09-.86h4.87l.54,3.69.84.13,1.26-3.69,5.52.81-.63-2.6,4.13,1.25c-1.18-2.1-1.68-3.53-2.58-4.47-4.78-5-9.94-1.68-15.34-.27,3.51-4.39.64-7.62-.82-10.86-.18-.4-2.25.31-3.62.53-4-4.77-4-4.77-1.9-7.87l3.16,3,1.26-1.46c-2.57-3.42-5.14-6.84-7.65-10.16l.9-2.71c.61.51,1.18,1.37,1.83,1.46,2.08.29,4.19.29,7.37.46-.85-1.08-1.52-2.7-2.32-2.79a32.32,32.32,0,0,0-6.26.43l-.75-7.18-6.62-4.54c.36,3.2.74,6.58,1.17,10.36l-2.78-.14-.65-5.87c-4.15,1.79-3.6-4.12-6.21-4.89l4.51-.23L90.1,65.49a28.34,28.34,0,0,0,3.45-2.78,3.52,3.52,0,0,0,1-2.49c-.21-.88-1.18-2.19-1.79-2.17-4.37.16-8.86-3.88-13.16.36-.31.3-1.11-.13-1.69-.12-4.71.09-5.37-4.44-6.91-8.49L67.28,53l.37.81,3.88-.25c-3.52,4.26-.35,5,1.9,6.22-.65,1.3-1.18,2.35-1.93,3.82l6.55,1.73c-3.25,2.5-5.27,3.88-7.68-1.21C68.83,67.73,68,71,66.31,73.39c-4.15,5.83-4.32,5.67-4.16,6.45l7.3.58-.08,1.65H64.1l-.1.87,4.25,1.31c-1.14,2.91-2.18,5.53-3.21,8.16l-.83-.33.68-6.83-2.2-.79C61.5,86.31,61,87.82,60,88.56s-2.32.55-3.51.78c.28-4.23-3.85-2.54-5.11-4.89-.67-1.26-2.1-2-3.93-3.62L46,89.9l-2.74-6.76-4.39-.38c-.54,2.66-.9,5.45-1.68,8.07C35.77,95.46,37,99,41.09,101.25l-5.4,5.56,8.22-1.58.6-1.5L41,101.34c.61-2.51.66-6.62,2-7.2,2.87-1.29,6.35-.82,10.08-1.1-1.34,4.29-2.22,7.12-3.12,10l-3.82-.26-.83,4.86c-1.51-.11-3.4-.73-3.71-.18-.81,1.42-.69,3.49-1.38,5-.83,1.89,2.77,5.42-1.69,6a4.2,4.2,0,0,0-.25,2.09c3.75,2.1.52,5.7,2.3,9.24l-11-.83,1.7,2.85,2.89-1.1,3,7.44-5.43-3.91-3.35,4.6L24,133.48c.68,11-4.39,1.61-6.43,4l1.95,3.14c-4,.42-4.15.9-2.9,4.31a50.18,50.18,0,0,1,4.68-2.65c1.55-.68,3.27-1.55,4.83-1.37,1.86.21,3.63,1.45,5.43,2.25l-.47,1.41L28,144.36l1.22,6.81-3.78-1.38v12.39L21.08,154l-1.25.76c1,3,1.74,6.29,3.21,9,1.23,2.28,2.83,1.87,3.31-1.07L31,164l-1.12,4.92,6.16,2.66c-3.41,1-5.62,2.12-2.83,7.51l-12.49-3.16c-4.25,4.68-.64,8,2.17,10,1.11.76,4.49-2.8,6.62-4.25.54,1.51.86,4.27,2.25,5.76,1.22,1.31,3.62,1.19,5.51,1.7L37,190.43l-3.53.48-.38,1.18,6.27,4.46-3.45,2.37-2.2,3.59-2.08-1.34-1,1.05a22.25,22.25,0,0,1,2.67,3.92c.72,1.7,1.69,3.91,1.26,5.44-.71,2.54-.89,3.95,1.68,4.76a28.22,28.22,0,0,1,4.07,2l-2,1.59,1.92,1.93-3,2.13c1.17.14,2.1.56,2.78.27,2.22-.93,4.52-3.34,6.46-3,3.5.68,6.76,3,10.13,4.58l.61,1.21c1.22,1.58,2.18,3.84,3.71,4.6,3,1.47,3.62,3.78,3.46,7.29-3.71.78-7.38,2.19-11,2.2-6.85,0-13.71-1.19-20.57-1.1-6.47.08-12.93,1.26-19.4,1.79-4.45.37-8.93.46-13.39.67M58.1,73.07l-3.62-3.14c-3.95,1.24-5.93,3.49-4.74,7.17L58.51,73,58,80.41a37.1,37.1,0,0,0,3.22-11.07c.09-.57-.88-1.75-1.53-2-.47-.16-1.6.67-1.78,1.3C57.65,69.61,58,70.76,58.1,73.07ZM32.91,213.49c-2.44-5.07-7.08-.26-9.92-2.87C26,212.35,27.94,218.84,32.91,213.49Zm89.15-113,1,.41c.58-1.75,1.57-3.48,1.58-5.23,0-1-1.52-2.26-2.59-2.76-.62-.3-1.7.69-1.44.56C121.2,96.43,121.63,98.45,122.06,100.47Zm7.08,71.58,2.92,2.87-.44.88h4.6C134.51,171.88,132.84,169.55,129.14,172.05ZM131,222.54c.43-2.31.81-4.38,1.27-6.91l-4.83,1.9Zm-112-34.73-.66-.25a18.24,18.24,0,0,0-.5,1.79c0,.08.46.28.7.42Z"/><path class="cls-4" d="M0,242.59c4.46-.21,8.94-.3,13.39-.67,6.47-.53,12.93-1.71,19.4-1.79,6.86-.09,13.72,1.12,20.57,1.1,3.67,0,7.34-1.42,11-2.2.16-3.51-.5-5.82-3.46-7.29-1.53-.76-2.49-3-3.71-4.6a61.65,61.65,0,0,0,8.59-1.33c.5-.14,1-3.07.53-4.26-.64-1.73-2.93-4.47-3.13-4.32-3.79,2.77-3.57-1.15-4.37-3.52l-8,1.9-.11,1.18,2.33,1,3.52,8.17c-3.37-1.61-6.63-3.9-10.13-4.58-1.94-.38-4.24,2-6.46,3-.68.29-1.61-.13-2.78-.27l3-2.13L38.3,220l2-1.59a28.22,28.22,0,0,0-4.07-2c-2.57-.81-2.39-2.22-1.68-4.76.43-1.53-.54-3.74-1.26-5.44a22.25,22.25,0,0,0-2.67-3.92l1-1.05,2.08,1.34,2.2-3.59c1.47,2.07,2.52,5,5.69,3.68,1.61-3.26,3.44-5.09,6.36-1.54a2.51,2.51,0,0,0,1.93.8c1.76-.14,3.5-.53,5.39-.84-.56,2.34-.87,3.67-1.5,6.28l7-4.1-4.46-6.46,1.65-1.22-9.68-1.43v-10.7c-.22-.3-1.05-1.34-1.8-2.44s-1.47-2.33-2.2-3.5c-.67,1.14-1.4,2.24-2,3.44-.5,1-.83,2.12-1.3,3.37l-2.62-2.38,3.39-.42L35,178.64c.7,3.3.58,6.17,1.77,7.36,1.44,1.43,4,1.45,5.17,1.81l-2,7.46-.54,1.27-6.27-4.45.38-1.18,3.53-.48.33-1.35c-1.89-.51-4.29-.39-5.51-1.7-1.39-1.49-1.71-4.25-2.25-5.76-2.13,1.45-5.51,5-6.62,4.25-2.81-1.91-6.42-5.27-2.17-10l12.49,3.16c-2.79-5.39-.58-6.49,2.83-7.51l-6.16-2.66L31,164l-4.68-1.32-1-.49V149.79l3.78,1.38L28,144.36l3.13.23.47-1.41c-1.8-.8-3.57-2-5.43-2.25-1.56-.18-3.28.69-4.83,1.37A50.18,50.18,0,0,0,16.62,145c-1.25-3.41-1.06-3.89,2.9-4.31l-1.95-3.14c2-2.41,7.11,7,6.43-4l4.37,5.36,3.35-4.6,5.43,3.91-3-7.44-2.89,1.1L29.52,129l11,.83c-1.78-3.54,1.45-7.14-2.3-9.24a4.2,4.2,0,0,1,.25-2.09c4.46-.54.86-4.07,1.69-6,.69-1.56.57-3.63,1.38-5,.31-.55,2.2.07,3.71.18l.83-4.86,3.82.26c.9-2.87,1.78-5.7,3.12-10-3.73.28-7.21-.19-10.08,1.1-1.29.58-1.34,4.69-2,7.2l.13-.1c-4.08-2.22-5.33-5.78-4-10.41.78-2.62,1.14-5.41,1.68-8.07l4.39.38L46,89.9l1.44-9.07c1.83,1.63,3.26,2.36,3.93,3.62,1.26,2.35,5.39.66,5.11,4.89,1.19-.23,2.58-.1,3.51-.78s1.55-2.25,2.74-4.1l2.2.79-.68,6.83.83.33c1-2.63,2.07-5.25,3.21-8.16L64,82.94l.1-.87h5.27l.08-1.65-7.3-.58c-.16-.78,0-.62,4.16-6.45C68,71,68.83,67.73,70.37,64.11c2.41,5.09,4.43,3.71,7.68,1.21L71.5,63.59c.75-1.47,1.28-2.52,1.93-3.82-2.25-1.18-5.42-2-1.9-6.22l-3.88.25L67.28,53,71,49.8c1.54,4.05,2.2,8.58,6.91,8.49.58,0,1.38.42,1.69.12,4.3-4.24,8.79-.2,13.16-.36.61,0,1.58,1.29,1.79,2.17a3.52,3.52,0,0,1-1,2.49,28.34,28.34,0,0,1-3.45,2.78l3.12,3.27L88.71,69c2.61.77,2.06,6.68,6.21,4.89l.65,5.87,2.78.14c-.43-3.78-.81-7.16-1.17-10.36l6.62,4.54c.33,3.12.54,5.15.75,7.17a1.51,1.51,0,0,1-.62.45L103,84.4c2.51,3.32,5.08,6.74,7.65,10.16L109.42,96l-3.16-3c-2.1,3.1-2.1,3.1,1.9,7.87,1.37-.22,3.44-.93,3.62-.53,1.46,3.24,4.33,6.47.82,10.86,5.4-1.41,10.56-4.75,15.34.27.9.94,1.4,2.37,2.58,4.47l-4.13-1.25.63,2.6-5.52-.81-1.26,3.69-.84-.13-.54-3.69H114l1.09.86-4.88,9.17c3.48,4.4,5.4-6.45,9.13-2.39.11,2.81.23,5.78.35,8.74L118,133c-.77-2.19-1.53-4.38-2.3-6.58.12,5-1.77,6.42-5.54,5.23-1,6.64,2.39,10,5.78,13.94a8.89,8.89,0,0,0-2.33-.63c-1.15,0-2.69-.1-3.34.66-.86,1-1.07,2.72-1.43,4.18-.21.83-.06,2.45-.28,2.5-3.28.73-1.42,3.43-1,4.57.54,1.34,2.51,3.16,3.43,2.89,4.86-1.47,5,3.5,6.84,6,.64.84,1.23,1.71,2.1,2.92,1-6.48,3.46-.44,5.6-2.91-1.31,3.55-2.1,5.72-3.28,8.93l-6.92,1.11c2-3.69,1.48-5.62-1.92-6.55.47,4.11-1.25,9.08,4.93,8.84.85,0,1.76,2.13,2.19,2.68a34.4,34.4,0,0,0-2.45,4.9,2.84,2.84,0,0,0,1,2.36c.61.4,2,.41,2.37-.07,3.37-4.95,3.51-1.36,4,1.81a9.66,9.66,0,0,0,1.1,2.46c3.92-1.61,5.48-.4,5.51,4.74l-10.64-.84,3.27-2-.16-1.32c-1.4.11-3.29-.4-4.08.44-1.58,1.67-2.55,4.09-4,6.51l1,.5c-.13,2.5-.25,4.86-.41,8l-10.7-6.18.6,4.94,3.45.35,2,6.2c-2.79-.54-5.2-1.13-7.63-1.42a11.42,11.42,0,0,0-4.06.36c-.67.16-1.2,1-1.79,1.51.56.61,1,1.53,1.7,1.78,4.69,1.78,4.7,1.74,1.62,7.61-1.45-1.64-2.77-3.16-4.12-4.66-.86-1-1.91-2.77-2.59-2.61-1.09.25-1.93,1.83-3.06,3.06l-4.28-3.88v5.85a19.82,19.82,0,0,1-3.94-.26c-1.79-.49-4.2-2.49-5.15-1.77-3.42,2.55-6.34,6-10.1,9.72l4,1.5c-5.93,2.21-2.94,7.67-4.45,11.05l7.92-1.11c0,.29,0-.41.13-1.79.92,1.47,1.57,2.52,2.41,3.85l2.41-2.1a16.61,16.61,0,0,0,3.53,1.8c3.46.77,7,1.91,10.43,1.73,2.45-.12,4.81-2.21,7.26-3.26.63-.27,1.92-.26,2.13.14,2.25,4.32,4,1.53,6-.31,4-3.63,6.78-2.71,8.33,2.46,3.71.07,8,2.21,9.56-3,4,.33,7.49.59,11,.94a3.19,3.19,0,0,1,2,.82c4.44,5.09,4.88,5.14,10,.15M63.38,97.35l-3.54,8L66.78,101l-3.51-3.49-2-6.4L59.63,91l-2.32,6.35ZM87,183.79c-1.17,9.82,7.11,4.64,10.4,7.78.26.25,1.42-.73,2.71-1.44l-5-2.92,4.33-3.14c-2.34-1-3.88-2.16-5.38-2.08C91.68,182.11,89.41,183.11,87,183.79Zm-12.68-8.08V167l-9.14,6.49,4.22,9c.65-3.85,1.18-7,1.78-10.57Zm-21.56-2.23L61,166.87l-6.1-3.64-.51,4.42-3.51-3.57-.73.6Zm23.83,34.8c-1.23.55-2.25,1-3.22,1.53-.06,0,.27,1.51.49,1.53A6.51,6.51,0,0,0,77,211.2a44.1,44.1,0,0,0,4.67-2.54l-3.35-6.28C74,202.48,74,202.49,76.54,208.28ZM67,130.22c-3.3-3.92-1.29-12.38-8.17-11.94,1,2.72,2,5.41,3.05,8.09C62.78,128.63,62.77,132.16,67,130.22ZM116.67,180l-10.16,5,3.71,1a21,21,0,0,0-2.45,2.35c-.11.15.83,1.59.86,1.57,2-1.25,4.24-2.27,5.85-4C115.58,184.64,115.81,182.41,116.67,180ZM79.77,194.5c.62,2.09.66,3.16,1,3.35a5.8,5.8,0,0,0,3.24.76c.43-.07,1.12-2.38.94-2.53-1.68-1.42-3.43-3.14-5.37-3.61-.9-.21-2.79,1.9-3.29,3.37-.45,1.31.4,3.19.77,5.42C78,199,78.64,197.36,79.77,194.5Zm-8.64,18c.26,4.08.43,7,.66,10.67l6.68-6.91ZM96,179.79l.32,1.71,7.08,2.71L104,183l-3.66-3.17,3.77-2.47-.55-1.07Zm-13.21-7.48c-.87-2.93-2.09-5.27-5.09-3.7-1,.5-1.39,2.39-2.07,3.64l3.52,1.82.49-1.23-2.36-2.17.5-.85Zm-9.07-48.47c1.44-6-4.08-3.88-5.31-8.18l-.89,4.72Zm20.68,90.43,4.09-5.34-6.71-1.32Z"/><path class="cls-4" d="M56.63,225.93l-3.52-8.17-2.33-1,.11-1.18,8-1.9c.8,2.37.58,6.29,4.37,3.52.2-.15,2.49,2.59,3.13,4.32.44,1.19,0,4.12-.53,4.26a61.65,61.65,0,0,1-8.59,1.33Z"/><path class="cls-4" d="M58.1,73.07c-.14-2.31-.45-3.46-.18-4.39.18-.63,1.31-1.46,1.78-1.3.65.21,1.62,1.39,1.53,2A37.1,37.1,0,0,1,58,80.41l.5-7.45L49.74,77.1c-1.19-3.68.79-5.93,4.74-7.17Z"/><path class="cls-4" d="M32.91,213.49c-5,5.35-6.87-1.14-9.92-2.87C25.83,213.23,30.47,208.42,32.91,213.49Z"/><path class="cls-4" d="M41.57,202.6c-3.17,1.33-4.22-1.61-5.69-3.68l3.45-2.37c.18-.44.36-.86.54-1.28C40.44,197.71,41,200.16,41.57,202.6Z"/><path class="cls-4" d="M25.4,162.18l1,.49c-.48,2.94-2.08,3.35-3.31,1.07-1.47-2.72-2.17-6-3.21-9l1.25-.76Z"/><path class="cls-4" d="M41,101.34l3.54,2.39-.6,1.5-8.22,1.58,5.4-5.56Z"/><path class="cls-4" d="M103.93,81.69a1.51,1.51,0,0,0,.62-.45,33.12,33.12,0,0,1,6.26-.42c.8.09,1.47,1.71,2.32,2.79-3.18-.17-5.29-.17-7.37-.46C105.11,83.06,104.54,82.2,103.93,81.69Z"/><path class="cls-4" d="M122.06,100.47c-.43-2-.86-4-1.5-7-.26.13.82-.86,1.44-.56,1.07.5,2.6,1.8,2.59,2.76,0,1.75-1,3.48-1.58,5.23Z"/><path class="cls-4" d="M129.14,172.05c3.7-2.5,5.37-.17,7.08,3.75h-4.6l.44-.88Z"/><path class="cls-4" d="M131,222.54l-3.56-5,4.83-1.9C131.82,218.16,131.44,220.23,131,222.54Z"/><path class="cls-4" d="M19.05,187.81l-.46,2c-.24-.14-.71-.34-.7-.42a18.24,18.24,0,0,1,.5-1.79Z"/><path class="cls-4" d="M41.57,202.6l-1.7-7.33c.71-2.59,1.41-5.18,2-7.46-1.19-.36-3.73-.38-5.17-1.81-1.19-1.19-1.07-4.06-1.77-7.36l6.75,2.82-3.39.42L41,184.26c.47-1.25.8-2.36,1.3-3.37.59-1.2,1.32-2.3,2-3.44.73,1.17,1.43,2.36,2.2,3.5s1.58,2.14,1.8,2.44v10.7l9.68,1.43-1.65,1.22,4.46,6.46-7,4.1c.63-2.61.94-3.94,1.5-6.28-1.89.31-3.63.7-5.39.84a2.51,2.51,0,0,1-1.93-.8C45,197.51,43.18,199.34,41.57,202.6Z"/><path class="cls-4" d="M87,183.79c2.46-.68,4.73-1.68,7-1.8,1.5-.08,3,1.12,5.38,2.08L95,187.21l5,2.92c-1.29.71-2.45,1.69-2.71,1.44C94.06,188.43,85.78,193.61,87,183.79Z"/><path class="cls-4" d="M74.27,175.71l-3.14-3.85c-.6,3.59-1.13,6.72-1.78,10.57l-4.22-9L74.27,167Z"/><path class="cls-4" d="M52.71,173.48l-2.61-8.8.73-.6,3.51,3.57.51-4.42,6.1,3.64Z"/><path class="cls-4" d="M76.54,208.28c-2.56-5.79-2.56-5.8,1.76-5.9l3.35,6.28A44.1,44.1,0,0,1,77,211.2a6.51,6.51,0,0,1-3.17.14c-.22,0-.55-1.49-.49-1.53C74.29,209.26,75.31,208.83,76.54,208.28Z"/><path class="cls-4" d="M67,130.22c-4.27,1.94-4.26-1.59-5.12-3.85-1-2.68-2-5.37-3.05-8.09C65.75,117.84,63.74,126.3,67,130.22Z"/><path class="cls-4" d="M116.67,180c-.86,2.45-1.09,4.68-2.19,5.88-1.61,1.75-3.84,2.77-5.85,4,0,0-1-1.42-.86-1.57a21,21,0,0,1,2.45-2.35l-3.71-1Z"/><path class="cls-4" d="M79.77,194.5c-1.13,2.86-1.75,4.45-2.67,6.76-.37-2.23-1.22-4.11-.77-5.42.5-1.47,2.39-3.58,3.29-3.37,1.94.47,3.69,2.19,5.37,3.61.18.15-.51,2.46-.94,2.53a5.8,5.8,0,0,1-3.24-.76C80.43,197.66,80.39,196.59,79.77,194.5Z"/><path class="cls-4" d="M71.13,212.51l7.34,3.76-6.68,6.91C71.56,219.49,71.39,216.59,71.13,212.51Z"/><path class="cls-4" d="M96,179.79l7.55-3.52.55,1.07-3.77,2.47L104,183l-.59,1.23-7.08-2.71Z"/><path class="cls-4" d="M82.75,172.31l-5-2.49-.5.85,2.36,2.17-.49,1.23-3.52-1.82c.68-1.25,1.09-3.14,2.07-3.64C80.66,167,81.88,169.38,82.75,172.31Z"/><path class="cls-4" d="M73.68,123.84l-6.2-3.46.89-4.72C69.6,120,75.12,117.88,73.68,123.84Z"/><path class="cls-4" d="M94.36,214.27l-2.62-6.66,6.71,1.32Z"/><path class="cls-4" d="M63.38,97.35H57.31L59.63,91l1.66.08,2,6.4Z"/><path class="cls-4" d="M63.27,97.48,66.78,101l-6.94,4.37,3.54-8Z"/></g></g></g></svg>