<?xml version="1.0" encoding="utf-8"?>
<!-- Generator: Adobe Illustrator 26.4.1, SVG Export Plug-In . SVG Version: 6.00 Build 0)  -->
<svg version="1.1" id="Capa_1" xmlns="http://www.w3.org/2000/svg" xmlns:xlink="http://www.w3.org/1999/xlink" x="0px" y="0px"
	 viewBox="0 0 414.6 412.4" style="enable-background:new 0 0 414.6 412.4;" xml:space="preserve">
<style type="text/css">
	.st0{enable-background:new    ;}
	.st1{fill:#FFFFFF;}
</style>
<g id="Capa_2_00000009550215000221733560000003173106928435711166_">
	<g id="Variables">
		<g class="st0">
			<path d="M107.4,344.4H93.2L90.3,364H77.1l14.5-88.2h17.7l14.5,88.2h-13.5L107.4,344.4z M105.7,331.6l-5.4-36.9L95,331.6H105.7z"
				/>
		</g>
		<g class="st0">
			<path d="M131.4,275.8h13.2v75.6h23.6V364h-36.8V275.8z"/>
		</g>
		<g class="st0">
			<path d="M200.8,344.4h-14.2l-2.9,19.5h-13.2l14.5-88.2h17.7l14.5,88.2h-13.5L200.8,344.4z M199.1,331.6l-5.4-36.9l-5.4,36.9
				H199.1z"/>
			<path d="M287.5,275.8V364h-13.2v-60.5L261.9,364h-9.2l-12.3-60.5V364h-13v-88.2h18.7l11.5,56.3l11-56.3H287.5z"/>
			<path d="M300.8,343.9v-48.1c0-12.7,8.5-21.3,21.2-21.3c12.7,0,21.2,8.6,21.2,21.3v48.1c0,12.7-8.5,21.3-21.2,21.3
				C309.3,365.2,300.8,356.7,300.8,343.9z M330,343.9v-48.1c0-5.5-3.1-8.7-8-8.7s-8,3.1-8,8.7v48.1c0,5.5,3.1,8.7,8,8.7
				S330,349.5,330,343.9z"/>
		</g>
		<g class="st0">
			<path d="M104.7,403.3v-20.6h14.9v2.4h-12.2v6.3h11.4v2.4h-11.4v7h12.7v2.4H104.7z"/>
			<path d="M131.9,403.3v-20.6h7.1c1.6,0,2.8,0.1,3.7,0.3c1.2,0.3,2.2,0.8,3,1.5c1.1,0.9,1.9,2.1,2.4,3.5c0.5,1.4,0.8,3.1,0.8,4.9
				c0,1.6-0.2,3-0.5,4.2c-0.4,1.2-0.8,2.2-1.4,3c-0.6,0.8-1.2,1.4-1.9,1.9c-0.7,0.5-1.5,0.8-2.5,1c-1,0.2-2.1,0.4-3.3,0.4H131.9z
				 M134.6,400.8h4.4c1.4,0,2.4-0.1,3.2-0.4c0.8-0.3,1.4-0.6,1.8-1.1c0.6-0.6,1.2-1.5,1.5-2.6s0.5-2.4,0.5-4c0-2.2-0.4-3.8-1.1-5
				c-0.7-1.2-1.6-1.9-2.6-2.3c-0.7-0.3-1.9-0.4-3.5-0.4h-4.3V400.8z"/>
			<path d="M161.1,403.3v-20.6h2.7v20.6H161.1z"/>
			<path d="M181.4,403.3v-18.2h-6.8v-2.4h16.3v2.4h-6.8v18.2H181.4z"/>
			<path d="M200.4,393.2c0-3.4,0.9-6.1,2.8-8c1.8-1.9,4.2-2.9,7.1-2.9c1.9,0,3.6,0.5,5.1,1.4c1.5,0.9,2.7,2.2,3.5,3.8
				c0.8,1.6,1.2,3.5,1.2,5.5c0,2.1-0.4,4-1.3,5.6s-2,2.9-3.6,3.7c-1.5,0.8-3.2,1.3-5,1.3c-1.9,0-3.7-0.5-5.2-1.4
				c-1.5-0.9-2.7-2.2-3.5-3.8C200.8,396.8,200.4,395,200.4,393.2z M203.2,393.3c0,2.5,0.7,4.4,2,5.9c1.3,1.4,3,2.1,5,2.1
				c2.1,0,3.7-0.7,5.1-2.2c1.3-1.4,2-3.5,2-6.1c0-1.7-0.3-3.1-0.9-4.4c-0.6-1.3-1.4-2.2-2.5-2.9c-1.1-0.7-2.3-1-3.7-1
				c-1.9,0-3.6,0.7-5,2C203.9,388,203.2,390.2,203.2,393.3z"/>
			<path d="M231.7,403.3v-20.6h9.1c1.8,0,3.2,0.2,4.2,0.6s1.7,1,2.3,2c0.6,0.9,0.9,2,0.9,3.1c0,1.5-0.5,2.7-1.4,3.7
				c-0.9,1-2.4,1.6-4.4,1.9c0.7,0.3,1.3,0.7,1.6,1c0.8,0.7,1.6,1.6,2.3,2.7l3.6,5.6h-3.4l-2.7-4.3c-0.8-1.2-1.5-2.2-2-2.8
				s-1-1.1-1.4-1.4c-0.4-0.3-0.8-0.4-1.2-0.5c-0.3-0.1-0.8-0.1-1.5-0.1h-3.2v9.2H231.7z M234.4,391.8h5.9c1.2,0,2.2-0.1,2.9-0.4
				s1.2-0.7,1.6-1.2s0.5-1.2,0.5-1.8c0-1-0.4-1.8-1.1-2.4c-0.7-0.6-1.8-0.9-3.4-0.9h-6.5V391.8z"/>
			<path d="M260.9,403.3v-20.6h2.7v20.6H260.9z"/>
			<path d="M272.6,403.3l7.9-20.6h2.9l8.4,20.6h-3.1l-2.4-6.2h-8.6l-2.3,6.2H272.6z M278.5,394.8h7l-2.2-5.7
				c-0.7-1.7-1.1-3.2-1.5-4.3c-0.3,1.3-0.6,2.6-1.1,3.9L278.5,394.8z"/>
			<path d="M300.3,403.3v-20.6h2.7v18.2h10.1v2.4H300.3z"/>
		</g>
		<g id="yMxmIj">
			<path class="st1" d="M377.8,154.5l1.4-1.2c0.9-0.4,2.1-1.5,2.8-1.2c4.5,1.9,4.2-0.5,3.1-3.8l5.7,0.5l-3.8-6.9l6,0.4
				c0.2-1,0.4-2,0.7-3s0.6-1.9,1.1-3.8c1.8,2.7,3,4.5,4.9,7.4c0.5-2.7,0.8-4.1,1.1-5.6l4.1,3.4l0.9-0.9l-3.1-4.3l4.1-2
				c-0.9-1.9-1.9-4.1-3-6.5l2.3-1.4c1,1.8,1.9,3.8,3.3,5.2c0.5,0.5,2.3-0.4,3.5-0.6l-0.1-1.2l-2.4-0.8c-0.8-2.9-1.4-5.1-2-7.2
				l-1.4,0.2l-1,4.6l-2.1-3.1c-0.6,1.3-1.1,2.3-1.6,3.2c-1.4-0.8-3.2-1.4-4-2.6c-1.2-1.8-1.7-4.2-2.5-6.3c2.1-1.1,4.1-2.3,1.4-5.3
				c-0.5-0.5,0.2-2.7,0.9-3.5c1.1-1.1,2.7-1.7,4.2-2.4c-0.1,0.1-0.1,0.3-0.1,0.4c0,0.1,0.1,0.4,0.2,0.4c1.4,0.2,2.8,0.4,4.8,0.6
				l-2.8,2.3l6.2,7.4c0.8-1.8,1.3-2.9,1.8-4.1l-2.9-0.9l1.8-5.1l3.2,0.4l-10.3-7.7c-0.7,2.6-1.2,4.5-1.8,6.5l-3.1-3
				c1.4-1.3,3-2.2,3.4-3.4c1.8-4.7-2.2-11.6-6.8-13.3c-2.1-1-3.9-2.6-5-4.7c-1.5-2.7-2.2-5.9-3.1-8.9s-1.9-6-2.5-8.2l-4.4-4.9
				l-3.2,2.2l-5.1-5.8c0,3.5-0.7,6.1,0.1,8c2.2,4.8,2.5,4.9-1,9.1l1.6-4.1L366,51.7l-4.3,1.7l-4.6-7.7l-4.6,6.1h4.9l-4.4,9l3.8,2.2
				l-0.8,2.3l-4.7-4.4l-1.5,1.1l1.5,3.5l-4-3.3l2.4-3.1c-4.8,1-5.6,3.8-2.5,7.9c-2-1.1-4-2.4-5.9-3.8c-1.5-1.4-2.8-3-4-4.6l3.5,0.4
				l-2.1-9.4l-7.9-3.7l-0.4,8l-2.6-0.5c-0.4,1.9-1,3.8-1.6,5.6c-0.1,0.2-2-0.4-3-0.6c3.6-1.3,3-3.5,1.5-6.8c-2.5,4.8-9.7,2-11.1,8.5
				c-0.9,0.8-3.2,2.7-3,2.8c1.6,2.2,3.3,4.4,5.1,6.4l-5.3-0.8l-1,6l-2.2-4.3l-0.8,0.3l1.2,6.6l-4.9-2.1c-0.2,1.6-0.6,2.8-0.4,3.9
				c0.4,1.4,1,2.7,1.6,4l-1.3-0.7c-0.9,1.2-1.8,2.5-2.5,3.8c-0.8,1.7-1.1,3.7-1.8,5.4c-0.9,1.9,0,12,1.3,13.4
				c1.9,2.2,3.7,4.5,5.5,6.7c-3.7,3.6-2.9,7.4,1.3,10.3c-0.6,2.4-2,4.8-1.6,6.8s2.5,3.9,3.8,5.9l-1.1,1.1c3.9,0.1,7.3,1.1,8.5,5.2
				c0.6,2.3,1,4.6,1.4,7l5.8-2.9l-1,9.5l-1-0.9l-3.2,1.7l5.9,6.7l-9.5,2.5l6.3,6.5c1.8,2.4,2.6,6,4.8,7.9c3,2.7,2.7,4,0.2,6.7
				c-0.9,1-0.2,3.7-0.2,5.9l5.1-1l-3.5,4.7h6.2l-6.2,6.9c1.4,0,2.2,0.2,2.4,0c2-2,3.6-2.1,5.9,0.1c2.4,2.3,5.7,3.7,8.2,5.9
				c1,0.9,1.4,2.9,1.5,4.5c0.2,6.7,0.4,13.4,0.3,20.2c0,2.6-0.9,5.1-1.4,7.9c-4.2-3-24.2-1.8-33.2,1.5h81.6v-1.3
				c-10.2-0.8-20.3-3.1-30.7-1.7c-3.1,0.4-6.5-0.8-9.7-1.2l0.3-0.8l-3.4,1.6c-0.7-5.4-1.4-10.2-1.8-15.1c-0.1-2.2,0.3-4.4,1.2-6.4
				c0.9-1.9,2.8-3.4,4.6-5.4c2,2.4,3.4,1,4-0.9c-1-2.2-1.6-3.6-2.3-5.1l3.6-1.2c1.7,2.5,2.6,5.5,4.5,6.4c2.4,1.2,6,1.7,8.4,0.7
				c3.5-1.5,6.3-4.6,9.3-7l0.1,1.5c1.9,0.3,3.8,0.4,5.7,0.4c0.6,0,1-1.6,1.2-1.8h5.4c-0.3-1.3-0.7-2.7-1.2-3.9
				c-0.4-0.9-1.2-2.2-2-2.4c-2.8-0.6-5.7-0.8-8.6-0.8c-2.6,0.2-4.3-0.2-5.7-2.8s-3.6-2.4-5.8-0.2l3.5,3l-1,1.1
				c-1.6-1.8-3.2-3.6-5-5.4c-2.5-2.5-5-5-7.5-7.5c0,0,0.1-0.2,0.2-0.4c3.5,0.6,7.9-2.7,10.5,2.3c0.2,0.4,1.5,0.4,2.2,0.4
				c2.5-0.2,4.3,0,4.4,3.5c0,1.4,1.9,2.6,2.4,3.3l7.4-7.6l-4.6-3.6c1.9-0.2,2.7-0.1,3.4-0.4c1.3-0.6,3.3-1.3,3.4-2.2
				c0.1-1.6-0.6-3-1.9-4c-4.1-2.2-2.8-5-1.5-8.4l2.8,3.1l-1.6,3.8c6.3-2.1,7.5-11.6,3-15.8l2.1-4.4l-4.4,0.4l0.2,3.7l-4.5,2.2
				l-0.8-0.8l2.9-3.5l-7.8-2.5L377.8,154.5z"/>
			<path d="M337.1,58.6c1.2,1.6,2.6,3.2,4,4.6c1.9,1.4,3.8,2.7,5.9,3.8c2,1.4,3.6,1.5,4.1-1.5l-1.5-3.5l1.5-1.1l4.7,4.4l0.8-2.3
				l-3.8-2.2l4.4-9h-4.9l4.6-6.1l4.6,7.7l4.3-1.7l7.4,17.1l-1.6,4.1c3.5-4.2,3.3-4.3,1-9.1c-0.9-1.8-0.1-4.5-0.1-8l5.1,5.8l3.3-2.2
				l4.4,4.8c0.7,2.2,1.6,5.2,2.5,8.2s1.6,6.2,3.1,8.9c1.1,2.1,2.9,3.7,5,4.7c4.6,1.7,8.6,8.6,6.8,13.3c-0.5,1.3-2.1,2.1-3.4,3.4
				l3.1,3v-0.2c-1.4,0.8-3.1,1.3-4.2,2.4c-0.8,0.8-1.4,3-0.9,3.5c2.7,3,0.7,4.2-1.4,5.3c0.8,2.2,1.3,4.5,2.5,6.3
				c0.8,1.2,2.6,1.8,4,2.6c0.5-1,1-1.9,1.6-3.2l2.1,3.1v-0.1l-2.3,1.4c1.1,2.4,2.1,4.5,3,6.5l-4.1,2l3.1,4.3l-0.9,0.9l-4.1-3.4
				c-0.3,1.4-0.6,2.9-1.1,5.6c-1.9-2.8-3.1-4.6-4.9-7.4c-0.5,1.9-0.9,2.8-1.1,3.8s-0.5,2-0.7,3l-6-0.4l3.8,6.9l-5.7-0.5
				c1,3.3,1.4,5.7-3.1,3.8c-0.6-0.3-1.8,0.8-2.8,1.2c3.4-4-1.5-5.6-1.9-8.1l-7.9,1.6l0.1,0.7h7.2l1,7c-4.3-0.1-4.3,4.2-6.3,6.4
				c-3.1,3.4-3.1,3.4-2,8.1l1.5-4c4,0.4,4.2-2.7,5-5.6c0.5-1.6,1.2-3.1,2-4.6l7.8,2.5l-2.9,3.5l0.8,0.8l4.3-2.2l-0.2-3.7l4.4-0.4
				l-2.1,4.4c4.4,4.2,3.2,13.8-3,15.8l1.6-3.8l-2.8-3.1c-1.2,3.4-2.6,6.2,1.5,8.4c1.2,1,1.9,2.4,1.9,4c-0.1,0.9-2.1,1.6-3.4,2.2
				c-0.7,0.3-1.5,0.2-3.4,0.4l4.6,3.6l-7.4,7.6c-0.5-0.7-2.4-2-2.4-3.3c-0.1-3.4-1.9-3.6-4.4-3.5c-0.8,0.1-2,0-2.2-0.4
				c-2.7-5.1-7-1.7-10.5-2.3c-0.1,0.1-0.2,0.4-0.2,0.4c2.5,2.5,5,4.9,7.5,7.5c1.7,1.8,3.3,3.6,5,5.4l1-1.1l-3.5-3
				c2.2-2.1,4.4-2.2,5.8,0.2s3.1,2.9,5.7,2.8c2.9-0.1,5.8,0.2,8.6,0.8c0.8,0.1,1.5,1.4,2,2.4c0.5,1.3,0.9,2.6,1.2,3.9h-5.4
				c-0.2,0.3-0.6,1.8-1.2,1.8c-1.9,0-3.8-0.1-5.7-0.4l-0.1-1.5c-3.1,2.4-5.9,5.5-9.3,7c-2.4,1-6,0.5-8.4-0.7
				c-1.9-0.9-2.9-3.9-4.5-6.4l-3.6,1.2c0.6,1.5,1.3,2.9,2.3,5.1c-0.6,1.9-2,3.3-4,0.9c-1.8,2.1-3.7,3.5-4.6,5.4
				c-0.9,2-1.3,4.2-1.2,6.4c0.3,4.9,1.1,9.7,1.8,15.1l3.3-1.7l-0.3,0.8c3.2,0.4,6.6,1.6,9.7,1.2c10.4-1.4,20.5,0.9,30.7,1.7v1.3
				h-81.6c9-3.3,29-4.4,33.2-1.5c0.5-2.8,1.4-5.4,1.4-7.9c0.1-6.7,0-13.5-0.3-20.2c0-1.5-0.5-3.6-1.5-4.5c-2.5-2.2-5.8-3.6-8.2-5.9
				c-2.3-2.2-3.9-2.1-5.9-0.1c-0.3,0.3-1,0-2.4,0l6.2-6.9h-6.2l3.5-4.7l-5.1,1c0-2.2-0.8-4.9,0.2-5.9c2.5-2.6,2.9-4-0.2-6.7
				c-2.2-2-3.1-5.5-4.8-7.9l-6.3-6.5l9.5-2.5l-5.9-6.7l3.2-1.7l1,0.9l1-9.5l-5.9,2.9c-0.3-2.4-0.8-4.7-1.4-7
				c-1.2-4.1-4.6-5.1-8.5-5.2l1.1-1.1c-1.4-1.9-3.4-3.7-3.8-5.9s1-4.4,1.6-6.8c-4.2-3-5-6.7-1.3-10.3c-1.8-2.2-3.6-4.5-5.5-6.7
				c-1.3-1.5-2.2-11.5-1.3-13.4c0.8-1.7,1-3.7,1.8-5.4c0.7-1.3,1.6-2.6,2.5-3.8l1.3,0.7c-0.7-1.3-1.2-2.6-1.6-4
				c-0.2-1.1,0.2-2.4,0.4-3.9l4.9,2.1l-1.2-6.6l0.8-0.3l2.2,4.3l1-6l5.3,0.8c-1.8-2-3.5-4.2-5.1-6.4c-0.1-0.2,2.2-2,3-2.8
				c1.4-6.5,8.7-3.7,11.1-8.5c1.4,3.3,2.1,5.5-1.5,6.8c1,0.2,2.9,0.8,3,0.6c0.7-1.8,1.2-3.7,1.6-5.6l2.6,0.5l-0.1-0.1l3,8.3
				c-0.3,0.9-0.5,1.9-0.8,2.8h-0.1l0.9-1.3v5.5l7-3l-6.5-5.2l3.1-2.6C336.9,58.4,337,58.5,337.1,58.6z M359.8,154.4l1.3-1.1l0.2-3.1
				v0.1l-3-0.4l0.1,0.1c-0.6,0.8-1.2,1.6-1.8,2.4h0.9l0.4,1.8l1.8,0.1L359.8,154.4z M344.2,165.2l9.9-2.2c-2.2-3.1-8.1-3.9-11.7-1.1
				c-0.2,0.1-0.2,0.5-0.3,0.9L344.2,165.2z M382.4,136.5c-3.6-2.2-3.6-2.3-6.2,1.6c-0.3,1-0.1,2.2,0.6,3
				C382.1,144,379.4,137.1,382.4,136.5z M375.4,178.6l-5,3.1l3.8-0.2v3.8c5.9-6.4,5.9-6.4,0-9.9L375.4,178.6z M394.4,95.3l-5.7,3.3
				l5.9,4.3l1.1-0.7C395.2,99.8,394.8,97.5,394.4,95.3L394.4,95.3z M382.4,98.3l-5.5-1.3c1.5,1.9,3.7,2.5,5.1,4c1.6,1.6,2.4,4,3.6,6
				l1.1-0.6L382.4,98.3z M353.3,165.8l-0.9,1.2l3.2,7.3c0.6-1.4,1.3-3.2,2.3-5.6L353.3,165.8z M357.8,158.7l6.7,9.6
				C365.3,164,361.8,158.9,357.8,158.7L357.8,158.7z M375.3,104.1l-2.4,5.8l7.1-0.4L375.3,104.1z M358.6,172.7
				c0.8,1.8-0.5,5.4,3.3,4.2c0.9-0.3,0.9-3.1,1.5-5L358.6,172.7z M374,116l9-0.7C380.3,112,377.8,111.9,374,116z"/>
			<path d="M402.5,105.7v0.2c0.5-2,1.1-3.9,1.8-6.5l10.3,7.7l-3.2-0.4l-1.8,5.1l2.9,0.9c-0.5,1.2-1,2.4-1.8,4.1l-6.2-7.4l2.8-2.3
				c-2-0.2-3.4-0.4-4.8-0.6c-0.1,0-0.1-0.2-0.2-0.4C402.3,106,402.4,105.8,402.5,105.7z"/>
			<path d="M337.1,58.6c-0.1-0.1-0.2-0.2-0.4-0.3c-0.2-2.3-0.4-4.5-0.5-6.8l-0.8,0.1l-0.4,4l-4.9-1.9l0.1,0.1c0.1-2.5,0.2-5.1,0.4-8
				l7.9,3.7l2.1,9.5L337.1,58.6z"/>
			<path d="M377.8,154.9c-0.8,1.5-1.5,3-2,4.6c-0.7,2.9-0.9,6-5,5.6l-1.5,4c-1.2-4.7-1.1-4.6,2-8.1c2-2.3,2-6.5,6.3-6.4h0.1
				L377.8,154.9z"/>
			<path d="M406.1,125.6v0.1c0.3-1.5,0.6-3,1-4.6l1.4-0.2c0.6,2.1,1.1,4.3,2,7.2l2.4,0.8l0.1,1.2c-1.2,0.3-3.1,1.1-3.5,0.6
				C408,129.4,407.2,127.4,406.1,125.6z"/>
			<path d="M377.8,154.5h-0.1c-0.3-2.4-0.6-4.8-1-7h-7.2l-0.1-0.7l7.9-1.6c0.3,2.5,5.3,4.1,1.9,8.1L377.8,154.5z"/>
			<path d="M351.1,65.5c-0.5,3-2.1,2.9-4.1,1.5c-3.1-4.2-2.3-6.9,2.5-7.9l-2.4,3.1L351.1,65.5z"/>
			<path d="M344.2,165.2l-2.1-2.4c0.1-0.3,0.1-0.7,0.3-0.9c3.6-2.9,9.5-2.1,11.7,1.1L344.2,165.2z"/>
			<path d="M330.2,53.7l4.9,1.9l0.4-4l0.8-0.1c0.2,2.3,0.4,4.5,0.5,6.8l-3.1,2.5c-0.1,0.2-0.2,0.3-0.3,0.4l-0.1,0.2L333,62h0.2
				L330.2,53.7z"/>
			<path d="M382.4,136.5c-3,0.6-0.3,7.6-5.6,4.6c-0.7-0.8-0.9-2-0.6-3C378.8,134.2,378.8,134.3,382.4,136.5z"/>
			<path d="M333.4,61.3c0.1-0.1,0.2-0.3,0.3-0.4c2,1.6,3.9,3.2,6.5,5.2l-7,3v-5.5H333l0-1.5l0.2-0.5L333.4,61.3z"/>
			<path d="M375.4,178.6l-1.1-3.2c5.8,3.6,5.8,3.6,0,9.9v-3.8l-3.8,0.2L375.4,178.6z"/>
			<path d="M394.4,95.3c0.4,2.2,0.8,4.5,1.3,6.8l-1.1,0.7l-5.9-4.3L394.4,95.3z"/>
			<path d="M382.4,98.3l4.3,8l-1.1,0.6c-1.2-2-2-4.4-3.6-6c-1.4-1.4-3.6-2-5.1-4L382.4,98.3z"/>
			<path d="M353.3,165.8l4.6,2.9c-1,2.4-1.8,4.3-2.3,5.6l-3.2-7.3L353.3,165.8z"/>
			<path d="M357.8,158.8c4,0.1,7.5,5.2,6.7,9.6L357.8,158.8z"/>
			<path d="M375.3,104.1l4.7,5.4l-7.1,0.4L375.3,104.1z"/>
			<path d="M358.5,172.8l4.8-0.8c-0.5,1.9-0.6,4.7-1.5,5C358,178.2,359.3,174.5,358.5,172.8z"/>
			<path d="M374,116c3.7-4.2,6.3-4.1,9-0.7L374,116z"/>
			<path d="M358.3,149.9l3,0.4h-0.2l0.2-0.2l-0.2,3.1l0.1,0.1h-1.1l0.1-0.1h-1l0.1,0.1l-1.8-0.9h-0.9
				C357.2,151.6,357.8,150.8,358.3,149.9c0.1,0,0.2,0,0.2,0L358.3,149.9z"/>
			<path d="M333,62v1.5v0.1l-0.6,1.2c0.3-0.9,0.5-1.9,0.8-2.8L333,62z"/>
			<path d="M357.6,152.5l1.8,0.9l-1.5,0.9L357.6,152.5z"/>
			<path d="M333,63.5h0.1l-0.9,1.3l0.7-1.2L333,63.5z"/>
			<path d="M333,63.6l-0.7,1.2h0.1L333,63.6z"/>
			<polygon points="361.3,150.1 361.1,150.3 361.3,150.3 			"/>
			<path d="M356.7,152.5L356.7,152.5z"/>
			<path d="M357.9,154.3l1.5-0.9l-0.1-0.1l0.5,1L357.9,154.3z"/>
			<path d="M359.7,154.4l-0.5-1h1l-0.4,1.1L359.7,154.4z"/>
			<path d="M359.8,154.4l0.4-1.1l-0.1,0.1h1.1l-0.1-0.1L359.8,154.4z"/>
			<path class="st1" d="M333.4,61.3l-0.1,0.2L333.4,61.3z"/>
			<path d="M358.3,149.9l0.2,0.1c0,0-0.1,0-0.1,0L358.3,149.9z"/>
			<path d="M361.2,153.4h-1.1H361.2z"/>
		</g>
		<g id="yMxmIj-2">
			<path class="st1" d="M229.5,154.5l1.4-1.2c0.9-0.4,2.1-1.5,2.8-1.2c4.5,1.9,4.2-0.5,3.1-3.8l5.7,0.5l-3.8-6.9l6,0.4
				c0.2-1,0.4-2,0.7-3s0.6-1.9,1.1-3.8l4.9,7.4c0.5-2.7,0.8-4.1,1.1-5.6l4.1,3.4l0.9-0.9l-3.1-4.3l4.2-2c-0.9-1.9-1.9-4.1-3-6.5
				l2.3-1.4c1,1.8,1.9,3.8,3.2,5.2c0.5,0.5,2.3-0.4,3.6-0.6l-0.2-1.2l-2.4-0.8c-0.8-2.9-1.4-5.1-2-7.2l-1.4,0.2l-1,4.6l-2.1-3.1
				l-1.6,3.2c-1.4-0.8-3.2-1.4-4-2.6c-1.2-1.8-1.7-4.2-2.5-6.3c2.1-1.1,4.1-2.3,1.4-5.3c-0.4-0.5,0.1-2.7,0.9-3.5
				c1.1-1.1,2.8-1.7,4.2-2.4c-0.1,0.1-0.1,0.3-0.1,0.4c0,0.1,0.1,0.4,0.2,0.4c1.4,0.2,2.8,0.4,4.8,0.6c-1.6,1.3-2.2,1.8-2.8,2.3
				l6.2,7.4l1.8-4.1l-2.9-0.9l1.8-5.1l3.2,0.4L256,99.4c-0.7,2.6-1.2,4.5-1.8,6.5l-3.1-3c1.4-1.3,2.9-2.2,3.4-3.4
				c1.8-4.7-2.2-11.6-6.8-13.3c-2.1-1-3.9-2.6-5-4.7c-1.5-2.7-2.2-5.9-3.1-8.9s-1.9-6-2.5-8.2l-4.4-4.8l-3.1,2.2l-5.1-5.8
				c0,3.5-0.7,6.1,0.1,8c2.2,4.8,2.5,4.9-1,9.1l1.6-4.1l-7.4-17.1l-4.3,1.7l-4.6-7.7l-4.7,6.1h4.9c-1.6,3.4-2.9,6-4.4,9l3.8,2.2
				l-0.8,2.3l-4.8-4.4l-1.6,1.2l1.5,3.5l-4-3.3l2.4-3.1c-4.8,1-5.6,3.8-2.5,7.9c-2-1.1-4-2.4-5.9-3.8c-1.5-1.4-2.8-3-4-4.6l3.5,0.4
				l-2.1-9.4l-7.9-3.7l-0.4,8l-2.6-0.5c-0.4,1.9-1,3.8-1.7,5.6c-0.1,0.2-1.9-0.4-3-0.6c3.6-1.3,3-3.5,1.5-6.8
				c-2.5,4.8-9.7,2-11.1,8.5c-0.9,0.8-3.2,2.7-3.1,2.8c1.6,2.2,3.3,4.4,5.1,6.4l-5.3-0.8l-1,6l-2.2-4.3l-0.8,0.3l1.1,6.7l-4.9-2.1
				c-0.2,1.6-0.6,2.8-0.4,3.9c0.4,1.4,0.9,2.7,1.6,4l-1.3-0.7c-1,1.2-1.8,2.5-2.5,3.8c-0.8,1.7-1.1,3.7-1.8,5.4
				c-0.9,1.9,0,12,1.3,13.4c1.9,2.2,3.7,4.5,5.5,6.7c-3.7,3.6-2.9,7.4,1.3,10.3c-0.6,2.4-2,4.8-1.6,6.8s2.5,3.9,3.8,5.9l-1.1,1.1
				c3.9,0.1,7.3,1.1,8.5,5.2c0.6,2.3,1,4.6,1.4,7l5.8-2.9l-1,9.5l-0.9-0.9l-3.2,1.7l5.9,6.7l-9.4,2.5l6.3,6.5c1.8,2.4,2.6,6,4.9,7.9
				c3.1,2.7,2.7,4,0.2,6.7c-0.9,1-0.1,3.7-0.1,5.9l5.1-1l-3.4,4.7h6.2l-6.3,6.9c1.4,0,2.2,0.2,2.4,0c2-2,3.6-2.1,5.9,0.1
				s5.7,3.7,8.2,5.9c1,0.9,1.4,2.9,1.5,4.5c0.2,6.7,0.4,13.4,0.3,20.2c0,2.6-0.9,5.1-1.4,7.9c-4.2-3-24.2-1.8-33.2,1.5h81.6v-1.3
				c-10.2-0.8-20.3-3.1-30.7-1.7c-3.1,0.4-6.5-0.8-9.7-1.2l0.4-0.9l-3.4,1.6c-0.7-5.4-1.4-10.2-1.8-15.1c-0.1-2.2,0.2-4.4,1.2-6.4
				c0.9-1.9,2.8-3.4,4.6-5.4c2.1,2.4,3.4,1,4.1-0.9c-1-2.2-1.6-3.6-2.3-5.1l3.7-1.2c1.7,2.5,2.6,5.5,4.5,6.4c2.4,1.2,6,1.7,8.4,0.7
				c3.4-1.5,6.3-4.6,9.3-7l0.1,1.5c1.9,0.3,3.8,0.4,5.7,0.4c0.6,0,1-1.6,1.2-1.8h5.4c-0.3-1.3-0.7-2.7-1.2-3.9
				c-0.4-0.9-1.2-2.2-2-2.4c-2.8-0.6-5.7-0.8-8.6-0.8c-2.6,0.2-4.3-0.2-5.7-2.8s-3.6-2.4-5.8-0.2l3.5,3l-1.1,1.1
				c-1.6-1.8-3.2-3.6-4.9-5.4c-2.5-2.5-5-5-7.5-7.5c0,0,0.1-0.2,0.2-0.4c3.5,0.6,7.9-2.7,10.5,2.3c0.2,0.4,1.5,0.4,2.2,0.4
				c2.5-0.2,4.3,0,4.4,3.5c0.1,1.4,1.9,2.6,2.4,3.3l7.4-7.6l-4.6-3.6c1.9-0.2,2.7-0.1,3.4-0.4c1.2-0.6,3.3-1.3,3.4-2.2
				c0-1.6-0.7-3-1.9-4c-4.1-2.2-2.7-5-1.5-8.4l2.8,3.1l-1.6,3.8c6.3-2.1,7.5-11.6,3-15.8l2.1-4.4l-4.4,0.4l0.2,3.7l-4.5,2.2
				l-0.8-0.8l2.9-3.5l-7.8-2.5L229.5,154.5z"/>
			<path d="M188.9,58.6c1.2,1.6,2.5,3.2,4,4.6c1.9,1.4,3.8,2.7,5.9,3.8c2,1.4,3.6,1.5,4.1-1.5l-1.4-3.5l1.5-1.1l4.8,4.4l0.8-2.3
				l-3.8-2.2c1.5-3.1,2.7-5.7,4.4-9h-4.9l4.7-6.1l4.6,7.7l4.3-1.7l7.4,17.1l-1.6,4.1c3.5-4.2,3.2-4.3,1-9.1c-0.9-1.8-0.1-4.5-0.1-8
				l5.1,5.8l3.1-2.2l4.4,4.8c0.7,2.2,1.6,5.2,2.5,8.2s1.6,6.2,3.1,8.9c1.1,2.1,2.9,3.7,5,4.7c4.6,1.7,8.6,8.6,6.8,13.3
				c-0.5,1.3-2.1,2.1-3.4,3.4l3.1,3v-0.2c-1.4,0.8-3.1,1.3-4.2,2.4c-0.8,0.8-1.4,3-0.9,3.5c2.7,3,0.6,4.2-1.4,5.3
				c0.8,2.2,1.3,4.5,2.5,6.3c0.8,1.2,2.6,1.8,4,2.6l1.6-3.2l2.1,3.1v-0.1l-2.3,1.4c1.1,2.4,2.1,4.5,3,6.5l-4.1,2l3.1,4.3l-0.9,0.9
				l-4.1-3.4c-0.3,1.4-0.6,2.9-1.1,5.6l-4.9-7.4c-0.5,1.9-0.9,2.8-1.1,3.8s-0.5,2-0.7,3l-6-0.4l3.8,6.9l-5.7-0.5
				c1,3.3,1.4,5.7-3.1,3.8c-0.7-0.3-1.8,0.8-2.8,1.2c3.4-4-1.5-5.6-1.9-8.1l-7.9,1.6l0.1,0.7h7.2l0.9,7c-4.3-0.1-4.3,4.2-6.3,6.4
				c-3.1,3.4-3.1,3.4-2,8.1l1.5-4c4,0.4,4.2-2.7,5-5.6c0.5-1.6,1.2-3.1,2-4.6l7.8,2.5l-2.9,3.5l0.8,0.8l4.5-2.2l-0.2-3.7l4.4-0.4
				l-2.1,4.4c4.4,4.2,3.2,13.8-3,15.8l1.6-3.8l-2.8-3.1c-1.2,3.4-2.6,6.2,1.5,8.4c1.2,1,1.9,2.4,1.9,4c-0.1,0.9-2.1,1.6-3.4,2.2
				c-0.7,0.3-1.6,0.2-3.4,0.4l4.6,3.6l-7.4,7.6c-0.5-0.7-2.4-2-2.4-3.3c-0.1-3.4-1.9-3.6-4.4-3.5c-0.8,0.1-2,0-2.2-0.4
				c-2.7-5.1-7-1.7-10.5-2.3c-0.1,0.1-0.2,0.4-0.2,0.4c2.5,2.5,5,4.9,7.5,7.5c1.7,1.8,3.3,3.6,4.9,5.4l1.1-1.1l-3.5-3
				c2.2-2.1,4.4-2.2,5.8,0.2s3.1,2.9,5.7,2.8c2.9-0.1,5.8,0.2,8.6,0.8c0.8,0.1,1.5,1.4,2,2.4c0.5,1.3,0.9,2.6,1.2,3.9h-5.4
				c-0.2,0.3-0.6,1.8-1.2,1.8c-1.9,0-3.8-0.1-5.7-0.4l-0.1-1.5c-3.1,2.4-5.9,5.5-9.3,7c-2.4,1-6,0.5-8.4-0.7
				c-1.9-0.9-2.9-3.9-4.5-6.4l-3.7,1.2c0.7,1.5,1.3,2.9,2.3,5.1c-0.6,1.9-2,3.3-4.1,0.9c-1.8,2.1-3.7,3.5-4.6,5.4
				c-0.9,2-1.3,4.2-1.2,6.4c0.3,4.9,1.1,9.7,1.8,15.1l3.2-1.6l-0.3,0.8c3.2,0.4,6.6,1.6,9.7,1.2c10.4-1.4,20.5,0.9,30.7,1.7v1.3
				h-81.6c9-3.3,29-4.4,33.2-1.5c0.5-2.8,1.4-5.4,1.4-7.9c0.1-6.7,0-13.5-0.3-20.2c-0.1-1.5-0.4-3.6-1.5-4.5
				c-2.5-2.2-5.8-3.6-8.2-5.9s-3.9-2.1-5.9-0.1c-0.3,0.3-1,0-2.4,0l6.3-6.9h-6.2l3.4-4.7l-5.1,1c0-2.2-0.8-4.9,0.1-5.9
				c2.5-2.6,2.9-4-0.2-6.7c-2.2-2-3.1-5.5-4.9-7.9l-6.3-6.5l9.4-2.5l-5.9-6.7l3.2-1.7l0.9,0.9l1-9.5l-5.8,3c-0.3-2.4-0.8-4.7-1.4-7
				c-1.2-4.1-4.6-5.1-8.5-5.2l1.1-1.1c-1.4-1.9-3.4-3.7-3.8-5.9s1-4.4,1.6-6.8c-4.2-3-7.6-5.7-3.9-9.3c-1.8-2.2-1-5.5-2.9-7.7
				c-1.3-1.5-2.2-11.5-1.3-13.4c0.8-1.7,1-3.7,1.8-5.4c0.7-1.3,1.6-2.6,2.5-3.8l1.3,0.7c-0.7-1.3-1.2-2.6-1.6-4
				c-0.2-1.1,0.2-2.4,0.4-3.9l4.8,2.1l-1.2-6.6l0.8-0.3l2.2,4.3l1-6l5.3,0.8c-1.8-2-3.5-4.2-5-6.4c-0.1-0.2,2.2-2,3.1-2.8
				c1.4-6.5,8.7-3.7,11.1-8.5c1.4,3.3,2.1,5.5-1.5,6.8c1,0.2,2.9,0.8,3,0.6c0.7-1.8,1.2-3.7,1.6-5.6l2.6,0.5l-0.1-0.1
				c1,2.8,2,5.5,3,8.3l-0.8,2.8H184l0.9-1.3v5.5l7-3l-6.5-5.2l3.1-2.6C188.6,58.4,188.8,58.5,188.9,58.6z M211.5,154.4l1.3-1.1
				l0.2-3.1v0.1l-3-0.4l0.1,0.1l-1.8,2.4h0.9l0.4,1.8l1.8,0.1L211.5,154.4z M195.9,165.2l9.9-2.2c-2.2-3.1-8.1-3.9-11.7-1.1
				c-0.2,0.1-0.2,0.5-0.3,0.9L195.9,165.2z M234.1,136.5c-3.6-2.2-3.6-2.3-6.2,1.6c-0.3,1-0.1,2.2,0.6,3
				C233.8,144,231.1,137.1,234.1,136.5z M227.1,178.6l-5,3.1l3.8-0.2v3.8c5.9-6.4,5.9-6.4,0.1-9.9L227.1,178.6z M246.1,95.3
				l-5.7,3.3l5.9,4.3l1.1-0.7C246.9,99.8,246.5,97.5,246.1,95.3L246.1,95.3z M234.1,98.3l-5.5-1.3c1.5,1.9,3.7,2.5,5.1,4
				c1.6,1.6,2.4,4,3.6,6l1.1-0.6C236.8,103.4,235.3,100.5,234.1,98.3L234.1,98.3z M205,165.8l-0.9,1.2l3.2,7.3l2.3-5.6L205,165.8z
				 M209.5,158.8l6.7,9.6C217,164,213.5,158.9,209.5,158.8L209.5,158.8z M227,104.1c-0.9,2.2-1.7,4-2.4,5.8l7.1-0.4L227,104.1z
				 M210.2,172.8c0.8,1.8-0.5,5.4,3.3,4.2c0.9-0.3,1-3.1,1.5-5L210.2,172.8z M225.7,116l9-0.7C232,112,229.5,111.9,225.7,116z"/>
			<path d="M254.2,105.7v0.2c0.5-2,1.1-3.9,1.8-6.5l10.3,7.7l-3.2-0.4l-1.8,5.1l2.9,0.9l-1.8,4.1l-6.2-7.4c0.6-0.5,1.2-1,2.8-2.3
				c-2-0.2-3.4-0.4-4.8-0.6c-0.1,0-0.1-0.2-0.2-0.4C254.1,106,254.1,105.8,254.2,105.7z"/>
			<path d="M188.9,58.6c-0.1-0.1-0.2-0.2-0.4-0.3c-0.2-2.3-0.4-4.5-0.6-6.8l-0.8,0.1l-0.4,4l-4.9-1.9l0.1,0.1c0.1-2.5,0.2-5.1,0.4-8
				l7.9,3.7l2.1,9.5L188.9,58.6z"/>
			<path d="M229.5,154.9c-0.8,1.5-1.5,3-2,4.6c-0.7,2.9-0.9,6-5,5.6l-1.5,4c-1.2-4.7-1.1-4.6,2-8.1c2-2.3,2-6.5,6.3-6.4h0.1
				L229.5,154.9z"/>
			<path d="M257.9,125.6v0.1c0.3-1.5,0.6-3,1-4.6l1.4-0.2c0.6,2.1,1.1,4.3,2,7.2l2.4,0.8l0.2,1.2c-1.2,0.3-3.1,1.1-3.6,0.6
				C259.7,129.4,258.9,127.4,257.9,125.6z"/>
			<path d="M229.5,154.5h-0.1c-0.3-2.4-0.6-4.8-0.9-7h-7.2l-0.1-0.7l7.9-1.6c0.3,2.5,5.3,4.1,1.9,8.1L229.5,154.5z"/>
			<path d="M202.9,65.5c-0.5,3-2.1,2.9-4.1,1.5c-3.1-4.2-2.3-6.9,2.5-7.9l-2.4,3.1L202.9,65.5z"/>
			<path d="M195.9,165.2l-2.1-2.4c0.1-0.3,0.1-0.7,0.3-0.9c3.6-2.9,9.5-2.1,11.7,1.1L195.9,165.2z"/>
			<path d="M181.9,53.7l4.9,1.9l0.4-4l0.8-0.1c0.2,2.3,0.4,4.5,0.6,6.8c-1,0.8-2.1,1.7-3.1,2.5c-0.1,0.2-0.2,0.3-0.3,0.4l-0.1,0.2
				l-0.2,0.5h0.2L181.9,53.7z"/>
			<path d="M234.1,136.5c-3,0.6-0.3,7.6-5.6,4.6c-0.7-0.8-0.9-2-0.6-3C230.5,134.2,230.6,134.3,234.1,136.5z"/>
			<path d="M185.1,61.3c0.1-0.1,0.2-0.3,0.3-0.4c2,1.6,3.9,3.2,6.5,5.2l-7,3v-5.5h-0.1v-1.5l0.2-0.5L185.1,61.3z"/>
			<path d="M227.1,178.6l-1.1-3.2c5.8,3.6,5.8,3.6-0.1,9.9v-3.8l-3.8,0.2L227.1,178.6z"/>
			<path class="st1" d="M246.1,95.3c0.4,2.2,0.8,4.5,1.3,6.8l-1.1,0.7l-5.9-4.3L246.1,95.3z"/>
			<path d="M234.1,98.3c1.1,2.2,2.7,5.1,4.3,8l-1.1,0.6c-1.2-2-2-4.4-3.6-6c-1.4-1.4-3.6-2-5.1-4L234.1,98.3z"/>
			<path d="M205,165.8l4.6,2.9l-2.3,5.6l-3.2-7.3L205,165.8z"/>
			<path d="M209.5,158.8c4,0.1,7.6,5.2,6.7,9.6L209.5,158.8z"/>
			<path d="M227,104.1l4.7,5.4l-7.1,0.4C225.4,108.1,226.1,106.3,227,104.1z"/>
			<path d="M210.3,172.8l4.7-0.8c-0.5,1.9-0.6,4.7-1.5,5C209.7,178.2,211,174.5,210.3,172.8z"/>
			<path d="M225.7,116c3.7-4.2,6.3-4.1,9-0.7L225.7,116z"/>
			<path d="M210.1,149.9l3,0.4h-0.2l0.2-0.2c-0.1,1.1-0.1,2.1-0.2,3.1l0.1,0.1h-1.1l0.1-0.1h-1l0.1,0.1l-1.8-0.9h-0.9
				C208.9,151.6,209.5,150.8,210.1,149.9c0.1,0,0.2,0,0.2,0L210.1,149.9z"/>
			<path d="M184.7,62v1.5l-0.1,0.1l-0.6,1.2l0.8-2.8L184.7,62z"/>
			<path d="M209.3,152.5l1.8,0.9l-1.5,0.9L209.3,152.5z"/>
			<path class="st1" d="M184.7,63.5h0.1l-0.9,1.3c0.2-0.4,0.5-0.8,0.7-1.2L184.7,63.5z"/>
			<path d="M184.7,63.6c-0.2,0.4-0.5,0.8-0.7,1.2h0.1L184.7,63.6z"/>
			<polygon points="213,150.1 212.8,150.3 213,150.3 			"/>
			<path d="M208.4,152.5L208.4,152.5z"/>
			<path d="M209.6,154.3l1.5-0.9l-0.1-0.1c0.1,0.3,0.3,0.7,0.4,1L209.6,154.3z"/>
			<path d="M211.4,154.4c-0.1-0.4-0.3-0.7-0.4-1h1l-0.4,1.1L211.4,154.4z"/>
			<path d="M211.5,154.4l0.4-1.1l-0.1,0.1h1.1l-0.1-0.1C212.4,153.6,212,154,211.5,154.4z"/>
			<path class="st1" d="M185.1,61.3l-0.1,0.2L185.1,61.3z"/>
			<path d="M210.1,149.9l0.2,0.1c0,0-0.1,0-0.1,0L210.1,149.9z"/>
			<path d="M212.9,153.4h-1.1H212.9z"/>
		</g>
		<g id="W3ptpP">
			<path class="st1" d="M168.8,90.9l0.1-0.1l-1.1,1.1c-0.1-0.2-0.2-0.3-0.3-0.4c-1.5-4-2.6-7.8-0.8-12.6c1.7-4.4,2.7-9.1-0.5-13.7
				c-1.2-1.7-1.6-4.7-2.3-6.9l-3-2.4l-0.1,0.1c1-0.8,2.2-1.2,2.8-2.3c0.9-2.1,1.7-4.3,2.3-6.5l-3,1.5l-1.2-5.3
				c-1.5,1.3-2.6,2.4-3.7,3.3c-0.6,0.4-1.1,0.8-1.8,1.1c-0.1-1.1-0.2-2.2-0.1-3.3c0.2-0.9,0.5-1.7,1-2.5c1.4-2.2,3.8-4,1.5-7.7
				c-0.1-0.2,1-2,1.7-3.5l-2.4-1.4V7.3c-5.6,2.1-2.8-5.3-5.1-7.3c-3,7-7.6,1.8-11.4,2l-0.4,7.1h-0.7l-1.3-8.9l-1.2,0.4v6.4
				c-4.7-4-8.4-5.1-7.1,6.4l-1.1-3.2l-3,2.6c-0.8,4.2-1.4,7.9-2.2,11.6c-0.7,3.5-1.5,6.9-2.2,10.2l-3-3.3c0.2,2.3,0.5,3.2,0.3,3.9
				c-0.4,1.6-0.8,3.6-1.6,4.6c-0.4,0.5-1.9-0.7-2.9-1.3c-0.7-0.5-1.3-1.1-1.8-1.7c0,1.2,0.2,2.5,0.4,3.7c1.1,3.2,2.3,6.3,3.5,9.5
				l-0.7,0.8l-2.8-2.7l-0.6,2.6l-1.3-5.2l-0.9,0.3l1.3,13c-1.8,0.3-2.7,2-1.8,4.8c0.3,0.9,1.2,1.3,1.8,2l1.2-0.7
				c0,5.4,1.1,11.5-0.3,15.9c-1.8,5.5,0.9,8.5,1.4,12.7c0.2,1.9,0.2,3.9-0.2,5.8c-0.5,2.6-1.4,5-2.2,7.4l0.7,0.3l-2.4,1.5
				c0.4,2.6,1,4.4,0.9,6.2c-0.2,3.3-1.4,6.5-1.3,9.7c0.1,3.9,1.2,7.8,1.8,12l-2.2,7.2c0.8,0.3,1.6,0.5,1.6,0.7
				c0.1,1.5,0.1,2.9-0.1,4.4c-0.9,4.3,0.3,9.3,2.8,10.9c1,0.6,2.1,1,3.1,1.6l-0.3,1.6c-1.5-0.4-2.9-0.8-4.4-1
				c-0.4-0.1-1.1,0.3-1.1,0.6c-0.1,2.1-0.5,4.4,0,6.2c0.2,0.9,2.1,0.9,3.5,1.4c-0.2,0.4-0.2,0.8-0.2,1.2c1.8,5.8,3.6,11.6,5.5,17.3
				c0.3,1.1,0.9,2.1,1.7,2.9c2.9,2.4,5.9,4.5,9,6.9l3.3-6.4c1.7,8.9,0.4,16.9-0.5,24.6s-2.4,15.6-3.8,23.6c4,2.9,9-1.1,9.7-9.2
				l1.2,3.6l0.6-0.2v-27.2c1.6-1.4,3-2.1,4-3.6c1.1-1.9,2.1-3.9,2.9-5.9c1.8-4.4,4.3-5.1,7.3-5.4c-1.1-8.7-1.1-8.7-4-8.4
				c-1.3-7.4,4.9-1.9,5.1-6.4l5.7,9.6c-0.1-4.3-1.5-8.4,2.6-10.2c0-1.7-0.2-3.4-0.7-5.1c-0.5-1.3-1.8-2.1-2.7-3.2
				c0.6-0.1,1.4,0,1.8-0.5c1-1.1,1.8-2.4,3.4-4.6l-5.6-2.2c0.2,3.1,0.3,5.3,0.5,7.5c-0.6-0.9-1.7-1.8-1.6-2.5
				c0.2-2.9,0.8-5.7,1.2-8.2h3.2l-1.8-4.8l3.6-5.7l-1.5-3.6l-3.2,4.8c-0.1-3.8,3.9-8.1-2-9.9l3.1-5.1l6.9-2.2
				c-3.3-4.7-5-0.9-6.9,1.5c0-1,0.1-2,0.1-1.9c-1.7-1.6-3.4-2.6-4.3-4.3c-0.8-1.5-0.8-3.9-1.2-5.8c-0.4-2.2-0.6-6.2-1.1-6.4
				c-2.3-0.5-1.9-1.7-1.1-3.7c2-5.4,5.7-6.8,9.4-8.3l-0.1,0.2c0.5-1.7,1.1-3.5,1.6-5.2l2.5-5.2l0.8-0.5l-0.1-0.1l0.8-0.5v0.2
				L168.8,90.9z M167.5,111.7l3.3-3c-3.7-2.5-6.1-1.5-8.3,0.9l1.1-2.6l-0.9-1c-0.8,1.5-2.3,3-2.2,4.4c0.2,3.8,1.1,7.5,1.6,11.2
				c0.2,1.4,0.1,3,0.2,5.6c1.2-0.7,3.2-1.3,4.5-2.9c1.9-2.3,1.6-5.3,0-8c0.9,0,1.9,0.1,2.8,0.2c2.9,0.6,2.9,0.6,2.5-3.3L167.5,111.7
				z"/>
			<path d="M161.7,168.7c0.9,1,2.1,1.8,2.7,3.2c0.5,1.6,0.8,3.4,0.7,5.1c-4.1,1.8-2.7,5.9-2.6,10.2l-5.7-9.6
				c-0.2,4.5-6.4-0.9-5.1,6.4c2.8-0.4,2.8-0.4,4,8.4c-3,0.3-5.5,1-7.3,5.4c-0.8,2-1.8,4-2.9,5.9c-0.9,1.5-2.4,2.2-4,3.6v27.1
				l-0.6,0.2l-1.2-3.6c-0.7,8.1-5.7,12.1-9.7,9.2c1.3-8,2.9-15.7,3.8-23.6s2.2-15.7,0.5-24.6l-3.3,6.4c-3.2-2.4-6.2-4.5-9-6.9
				c-0.8-0.8-1.4-1.8-1.7-2.9c-1.9-5.7-3.7-11.5-5.5-17.3c-0.1-0.4,0-0.8,0.2-1.2c-1.3-0.5-3.2-0.5-3.5-1.4c-0.5-1.8-0.1-4.1,0-6.2
				c0-0.3,0.7-0.6,1.1-0.6c1.5,0.3,3,0.7,4.4,1l0.3-1.6c-1-0.5-2.1-0.9-3.1-1.6c-2.5-1.5-3.7-6.6-2.8-10.9c0.2-1.4,0.3-2.9,0.1-4.4
				c0-0.2-0.8-0.4-1.6-0.7l2.2-7.2c-0.7-4.1-1.7-8-1.8-12c-0.1-3.2,1.1-6.4,1.3-9.7c0.1-1.8-0.5-3.6-0.9-6.2l2.4-1.5l-0.7-0.3
				c0.8-2.5,1.7-4.9,2.2-7.4c0.3-1.9,0.4-3.9,0.2-5.8c-0.5-4.2-3.1-7.2-1.4-12.7c1.4-4.5,0.3-10.6,0.3-15.9l-1.2,0.7
				c-0.6-0.7-1.5-1.2-1.8-2c-0.9-2.8,0-4.5,1.8-4.8l-1.3-13l0.9-0.3l1.3,5.2l0.6-2.6l2.8,2.7l0.7-0.8c-1.2-3.2-2.4-6.3-3.5-9.5
				c-0.3-1.2-0.4-2.5-0.4-3.7c0.6,0.6,1.2,1.2,1.8,1.7c1,0.6,2.5,1.8,2.9,1.3c0.9-1,1.2-3,1.6-4.6c0.2-0.7-0.1-1.5-0.3-3.9l3,3.3
				c0.7-3.3,1.5-6.7,2.2-10.2c0.8-3.7,1.4-7.4,2.2-11.6l3-2.6l1.1,3.2c-1.4-11.5,2.3-10.3,7-6.4V0.7l1.2-0.4l1.3,8.9h0.7l0.4-7.1
				c3.8-0.2,8.4,5.1,11.4-2c2.3,2-0.5,9.5,5.1,7.3v21.9l2.4,1.4c-0.7,1.5-1.8,3.3-1.7,3.5c2.3,3.8-0.1,5.5-1.5,7.7
				c-0.5,0.8-0.8,1.6-1,2.5c-0.1,1.1,0,2.2,0.1,3.3c0.6-0.3,1.2-0.7,1.8-1.1c1.2-1,2.3-2,3.7-3.3l1.2,5.3l3-1.5
				c-0.6,2.2-1.4,4.4-2.3,6.5c-0.6,1.1-1.9,1.6-2.8,2.3c0.7-1.2,1.3-2.4,2-3.6l-0.7-1.5l-7,5.1l-5-8.1c1.6-2.9,3.2-5.7,5.1-9l-3-0.9
				c-1.3,5.9-4.3,3.5-6.3,3.7l0.8-5c-1.3,1.9-4.7,3.6-1.6,6.4c2.5,2.2,0.8,3.2,0,5.9l-0.3-2.3l-1,0.5c0.2,0.6,0.3,1.6,0.5,1.6
				c0.6,0.2,1.3,0.1,1.8-0.2c1.2-1.1,2.4-2.4,3.5-3.6l0.4,3.2L149,53l9.5,8.9l0.7-1l-0.7-4.8L161,56l3,2.4c0.7,2.3,1.1,5.2,2.3,6.9
				c3.2,4.5,2.2,9.3,0.5,13.7c-1.9,4.7-0.7,8.5,0.8,12.5c-2.9-3.7-4.1,0.3-6.1,3.4c0-4.5-0.9-6.9-3.9-4.5v-4.4l-0.2-2.1h0.1
				l-1.9,1.9v-0.1l1,1.6l-2.1,8.9l0.9,0.8l3.1-4.3c-0.8,5.6,2.5,5.8,4.8,7.4c0.4,0.3,1.6-1.6,2.4-2.4c-0.5,1.7-1.1,3.5-1.6,5.2
				l0.1-0.2c-3.7,1.5-7.4,2.9-9.4,8.3c-0.7,2-1.1,3.2,1.1,3.7c0.6,0.1,0.8,4.2,1.1,6.4c0.4,2,0.4,4.3,1.2,5.8
				c0.9,1.7,2.6,2.7,4.3,4.3c0-0.1,0,0.9-0.1,1.9c0,0.2,0,0.4,0,0.6l-3.1,5.1c5.9,1.9,1.9,6.1,2,9.9l3.2-4.8l1.6,3.5l-3.6,5.7
				l1.8,4.8h-3.1c-0.4,2.5-1,5.3-1.2,8.2c-0.1,0.8,1,1.7,1.6,2.5L161.7,168.7z M133.4,123.2c-0.4,1.6-1.2,3.1-1.3,4.7
				c0,3,0.1,6,0.5,9c0.2,1.7,0.6,3.4,0.9,5.1l1.1-0.5l-0.8-11.1l0.1-0.2l-0.8-7.1l1.7-0.5l0.4,4l0.5-0.1c0.4-2.5,0.9-5.1,1.1-6.2
				l-1.4-6.3l-2.2,1.9L133.4,123.2z M150,20.7l-0.6-11.8l1.1-1.3L146.1,4c-0.6,1.6-1.6,3.2-1.7,4.8c-0.1,3.7,0.4,7.5,0.6,11.2
				c0.4,4.9,0.8,9.8,1.1,14.9c1.9-0.9,2.5-3,1.9-5.8s-1.2-5.3-2-8.5L150,20.7z M159.1,132.3c-1-3-3.1-2.2-5.2-1.9
				c-3.1,0.6-6.3,2.9-9-0.9c-0.6,2.2-1.1,4.2-1.6,6l11.5-1.8v6.6C156.3,137.7,157.6,135.3,159.1,132.3L159.1,132.3z M134,29.2
				c3.2-9.4,3.2-9.4-0.3-13.8c-0.3,2.3-1.2,4.9-0.7,6.4c1.3,3.5-0.2,5.5-1.5,8.9h4.7v-1.2L134,29.2z M138.9,44.5l0.9-8.8l2.3,0.3
				l0.2-0.8l-4.5-4.4l-0.6,1.1l1.3,2.9l-1.7-0.5l0.5,1.1c-0.8,0.9-1.6,1.9-2.3,3c-0.3,0.7-0.3,1.4-0.1,2.1
				C136.2,42,137.5,43.3,138.9,44.5L138.9,44.5z M164.9,70.7c-4.2,1.6-4.2,1.6-3.6,10.7l4.2-4.2L164.9,70.7z M131,93.1
				c-0.2-1.2-0.4-2.5-0.5-3.7c0-1,0.5-2.2,0.2-2.9c-0.6-1.3-1.3-2.6-2.3-3.7c-0.2-0.2-1.4,0.8-1.6,1.5
				C125.7,87.8,127.8,92.5,131,93.1z M149.9,82l-2-12.2l-1.5,0.4c0.2,2.3,0.4,4.6,0.5,6.8l-0.6-0.6l-1.6,3.5L149.9,82z M155.9,32.9
				l1.1-1.7c-5.8-2.9-2.7-8.1-2.1-13l-4.1,5.1l2.3,1.4l-1.3,5.7L155.9,32.9z M135.8,88.3c0.5-1.9,0.9-3.8,1.2-5.8
				c0-2.3-0.1-4.5-0.4-6.8C133.5,80.9,133.8,87.3,135.8,88.3z M152.6,173.3l-7.4-1.4l-0.2,1.7l6.7,4L152.6,173.3z M142.6,111.7
				c5.7,3.8,3.3-6.1,7.2-6.7l-4-0.5L142.6,111.7z M141.2,24.6l0.5-0.3l-0.8-5.1c3.3,0,1.8-2.7,0.9-6.5c-1.3,2.2-2.8,3.8-2.7,5
				C139.4,20.1,140.5,22.3,141.2,24.6z M143.9,51.7l-3.3-1.7c0.2,3.4,0.5,6.5,0.7,9.5l0.9,0.1L143.9,51.7z M132.9,178.3l6.4,2
				c-0.7-4.4-3.5-3.2-5.5-3.8C133.5,176.4,133,178.1,132.9,178.3L132.9,178.3z M142.9,154.2l-3.7-5.3l-0.9,0.3
				c0.1,1.2,0.4,2.4,0.9,3.6c1,1.6,2.1,3.1,3.4,4.5L142.9,154.2z M130.2,82.8l1.3-0.4L130,71.9l-1.4,0.5L130.2,82.8z M160,67.3
				l1.7,0.7l1.8-7.2l-1.7-0.8L160,67.3z"/>
			<path d="M166.8,116.3c1.6,2.7,2,5.7,0,8c-1.4,1.6-3.3,2.2-4.5,2.9c-0.1-2.6,0-4.1-0.2-5.6c-0.5-3.8-1.4-7.5-1.6-11.2
				c-0.1-1.4,1.4-2.9,2.2-4.4l0.9,1c-0.4,0.9-0.7,1.7-1.1,2.6c1.6,0.7,3.2,1.5,4.8,2.2L166.8,116.3z"/>
			<path d="M157.6,86.1v4.4c3-2.4,3.9,0,3.9,4.5c1.9-3.2,3.1-7.2,6.1-3.4l0.3,0.4c0.3,0,0.4,0.2,0.4,0.5c-0.8,1.8-1.6,3.5-2.5,5.2
				c-0.8,0.8-2,2.7-2.4,2.4c-2.2-1.6-5.6-1.8-4.8-7.4l-3.1,4.3l-0.9-0.8c0.7-3,1.4-5.9,2.1-8.9L157.6,86.1z"/>
			<path d="M167.3,111.7c-1.6-0.7-3.2-1.5-4.8-2.2c2.2-2.4,4.6-3.4,8.3-0.9c-1.4,1.3-2.4,2.2-3.3,3L167.3,111.7z"/>
			<path d="M167.3,111.7l0.2-0.1l4.6,1.6c0.4,3.9,0.4,3.9-2.5,3.3c-0.9-0.1-1.8-0.2-2.8-0.2C167,114.8,167.2,113.3,167.3,111.7z"/>
			<path d="M161.8,168.8c-0.1-2.2-0.3-4.4-0.5-7.5l5.6,2.2c-1.6,2.2-2.4,3.6-3.4,4.6c-0.4,0.5-1.2,0.3-1.8,0.5L161.8,168.8z"/>
			<path d="M162.6,133.8c0-0.2,0-0.4,0-0.6c1.9-2.4,3.6-6.2,6.9-1.5L162.6,133.8z"/>
			<path d="M164.2,102.8l-0.1,0.2L164.2,102.8z"/>
			<path d="M169.7,91.3l-0.8,0.5L169.7,91.3z"/>
			<path d="M169.7,91.3l-0.8,0.5l0.1,0.1v-1.1l-0.1,0.1l0.8,0.5L169.7,91.3z"/>
			<path d="M168.9,90.8V92l-0.8,0.5c0-0.3-0.1-0.5-0.4-0.5L168.9,90.8z"/>
			<path d="M169.6,91.5l-0.8-0.5L169.6,91.5z"/>
			<path d="M150,20.7h-3.9c0.7,3.1,1.4,5.8,2,8.4s0,4.9-1.9,5.8c-0.4-5.1-0.8-10-1.1-14.9c-0.3-3.7-0.7-7.5-0.6-11.2
				c0-1.7,1.1-3.3,1.7-4.8l4.4,3.6l-1.1,1.3L150,20.7z"/>
			<path d="M159.1,132.3c-1.6,3-2.8,5.4-4.2,8.1v-6.6l-11.5,1.8c0.5-1.8,1-3.8,1.6-6c2.6,3.7,5.9,1.5,9,0.9
				C156.1,130.1,158.1,129.3,159.1,132.3z"/>
			<path d="M161,55.9l-2.5,0.2l0.7,4.8l-0.7,1L149,53l1.2-4.9l-0.1-0.1l5,8.1l7-5.1l0.7,1.5c-0.7,1.2-1.3,2.4-2,3.6
				C160.9,56,160.9,56,161,55.9z"/>
			<path d="M150.2,48.1l-0.4-3.2c-1.1,1.3-2.2,2.5-3.5,3.6c-0.5,0.4-1.2,0.4-1.8,0.2c-0.2-0.1-0.3-1.1-0.5-1.6l1-0.5l0.3,2.3
				c0.7-2.7,2.4-3.7,0-5.9c-3.2-2.8,0.3-4.5,1.6-6.4l-0.8,5c2-0.1,4.9,2.2,6.3-3.7l2.9,1c-1.9,3.3-3.5,6.1-5.1,9L150.2,48.1z"/>
			<path d="M134,29.2l2.2,0.2v1.2h-4.7c1.3-3.3,2.8-5.4,1.5-8.9c-0.6-1.5,0.4-4.1,0.7-6.4C137.2,19.8,137.2,19.8,134,29.2z"/>
			<path d="M138.9,44.5c-1.4-1.3-2.7-2.6-3.9-4c-0.2-0.7-0.2-1.4,0.1-2.1c0.7-1.1,1.4-2.1,2.3-3l-0.5-1.1l1.7,0.5l-1.3-2.8l0.6-1.1
				l4.5,4.3l-0.2,0.8l-2.3-0.3L138.9,44.5z"/>
			<path d="M164.9,70.7l0.6,6.5l-4.2,4.2C160.7,72.3,160.7,72.3,164.9,70.7z"/>
			<path d="M131,93.1c-3.2-0.6-5.3-5.3-4.2-8.7c0.2-0.7,1.5-1.7,1.6-1.5c1,1.1,1.7,2.3,2.3,3.7c0.3,0.7-0.2,1.9-0.2,2.9
				C130.6,90.7,130.8,91.9,131,93.1z"/>
			<path d="M133.3,123.1l0.8,7.1l-0.1,0.2l0.8,11.1l-1.1,0.5c-0.3-1.7-0.8-3.4-0.9-5.1c-0.3-3-0.5-6-0.5-9c0-1.6,0.8-3.1,1.3-4.7
				L133.3,123.1z"/>
			<path d="M149.9,82l-5.2-2l1.6-3.5L147,77c-0.2-2.3-0.4-4.6-0.5-6.8l1.5-0.4L149.9,82z"/>
			<path d="M133.4,123.2v-7.3l2.2-1.9l1.4,6.3c-0.2,1.1-0.6,3.7-1.1,6.2l-0.5,0.1l-0.4-4l-1.7,0.5L133.4,123.2z"/>
			<path d="M155.9,32.8l-4.2-2.5l1.3-5.7l-2.3-1.4l4.1-5.1c-0.5,4.9-3.6,10.1,2.1,13L155.9,32.8z"/>
			<path d="M135.8,88.3c-2-1-2.3-7.4,0.8-12.6c0.3,2.2,0.4,4.5,0.4,6.8C136.7,84.5,136.3,86.4,135.8,88.3z"/>
			<path d="M152.6,173.3l-0.9,4.3l-6.7-4l0.2-1.7L152.6,173.3z"/>
			<path d="M142.6,111.7l3.1-7.2l4,0.5C145.8,105.6,148.3,115.5,142.6,111.7z"/>
			<path d="M141.2,24.6c-0.7-2.3-1.9-4.5-2.1-6.9c-0.1-1.2,1.4-2.7,2.7-5c0.9,3.8,2.4,6.5-0.9,6.5l0.8,5.1L141.2,24.6z"/>
			<path d="M143.9,51.7l-1.7,7.9l-0.9-0.1c-0.2-3-0.4-6-0.7-9.5L143.9,51.7z"/>
			<path d="M132.9,178.3c0.1-0.2,0.6-1.9,0.9-1.8c2,0.6,4.8-0.5,5.5,3.8L132.9,178.3z"/>
			<path d="M142.8,154.2l-0.3,3.1c-1.2-1.4-2.3-2.9-3.4-4.5c-0.4-1.2-0.7-2.4-0.9-3.6l0.9-0.3L142.8,154.2z"/>
			<path d="M130.2,82.8l-1.6-10.4l1.4-0.5l1.5,10.4L130.2,82.8z"/>
			<path d="M160,67.3l1.9-7.3l1.6,0.8l-1.9,7.2L160,67.3z"/>
			<path d="M157.6,86.1l-1,1.3c-0.3-0.6-0.7-1.1-1-1.6l0.1-0.1l-0.1,0.2l1.9-1.9l-0.1,0.2V84L157.6,86.1z"/>
			<path d="M155.6,85.9l0.1-0.2l-0.1,0.1L155.6,85.9z"/>
			<path d="M157.4,84v0.2l0.1-0.2H157.4z"/>
		</g>
		<g id="W3ptpP-2">
			<path class="st1" d="M285.6,93.5l0.1-0.1l-1.1,1.1l-0.3-0.4c-1.5-4-2.6-7.8-0.8-12.6c1.7-4.4,2.7-9.1-0.5-13.7
				c-1.2-1.7-1.6-4.7-2.3-6.9l-3-2.4l-0.1,0.1c1-0.8,2.2-1.2,2.8-2.3c0.9-2.1,1.7-4.3,2.3-6.5l-3,1.5l-1.1-5.3
				c-1.5,1.3-2.6,2.4-3.7,3.3c-0.6,0.4-1.1,0.8-1.8,1.1c-0.1-1.1-0.2-2.2-0.1-3.3c0.2-0.9,0.5-1.7,1-2.5c1.4-2.2,3.8-4,1.5-7.7
				c-0.1-0.2,1-2,1.7-3.5l-2.4-1.4v-22c-5.6,2.1-2.8-5.3-5.1-7.3c-3,7-7.6,1.8-11.4,2l-0.4,7.1l-0.7,0.1l-1.3-8.9l-1.2,0.4v6.4
				c-4.7-3.9-8.4-5.1-7.1,6.4l-1.1-3.2l-2.9,2.6c-0.8,4.2-1.4,7.9-2.2,11.6c-0.7,3.5-1.5,6.9-2.2,10.2l-3-3.3
				c0.2,2.3,0.5,3.2,0.3,3.9c-0.4,1.6-0.8,3.6-1.6,4.6c-0.4,0.5-1.9-0.7-2.9-1.3c-0.7-0.5-1.3-1.1-1.8-1.7c0,1.2,0.2,2.5,0.4,3.7
				c1.1,3.2,2.3,6.3,3.5,9.5l-0.7,0.8l-2.8-2.7l-0.6,2.6l-1.4-5.2l-0.9,0.3l1.3,13c-1.8,0.3-2.7,2-1.8,4.8c0.3,0.9,1.2,1.3,1.8,2
				l1.2-0.6c0,5.4,1.1,11.5-0.3,15.9c-1.8,5.5,0.9,8.5,1.4,12.7c0.2,1.9,0.2,3.9-0.1,5.8c-0.6,2.5-1.3,5-2.2,7.4l0.7,0.3l-2.4,1.5
				c0.4,2.5,1,4.4,0.9,6.2c-0.2,3.3-1.4,6.5-1.3,9.7c0.1,3.9,1.2,7.8,1.9,12c-0.6,2.1-1.4,4.8-2.2,7.2c0.8,0.3,1.6,0.5,1.6,0.7
				c0.1,1.5,0.1,2.9-0.1,4.4c-0.9,4.3,0.3,9.3,2.8,10.8c1,0.6,2.1,1.1,3.1,1.6l-0.3,1.6c-1.5-0.4-3-0.8-4.4-1.1
				c-0.4-0.1-1.1,0.3-1.1,0.6c-0.1,2.1-0.5,4.4,0,6.2c0.2,0.9,2.1,0.9,3.5,1.4c-0.2,0.4-0.2,0.8-0.2,1.2c1.8,5.8,3.6,11.6,5.5,17.3
				c0.3,1.1,0.9,2.1,1.7,2.9c2.9,2.4,5.9,4.5,9,6.9l3.3-6.4c1.7,8.9,0.4,16.9-0.5,24.6s-2.5,15.6-3.8,23.6c4,2.9,9-1.1,9.7-9.2
				l1.2,3.6l0.6-0.2v-27.2c1.6-1.4,3-2.1,4-3.6c1.1-1.9,2.1-3.9,2.9-5.9c1.8-4.4,4.4-5.1,7.3-5.4c-1.1-8.7-1.1-8.7-4-8.4
				c-1.3-7.4,4.9-1.9,5.1-6.4l5.7,9.6c-0.1-4.3-1.5-8.4,2.6-10.2c0-1.7-0.2-3.4-0.7-5.1c-0.5-1.3-1.8-2.1-2.7-3.2
				c0.6-0.1,1.4,0,1.8-0.5c1.2-1.5,2.4-3,3.4-4.6l-5.6-2.2l0.5,7.5c-0.6-0.9-1.7-1.8-1.6-2.5c0.2-2.9,0.8-5.7,1.2-8.2h3.2l-1.8-4.8
				l3.6-5.7l-1.7-3.5l-3.2,4.8c0-3.8,4-8.1-2-9.9l3.1-5.1l6.9-2.1c-3.3-4.7-5-0.9-6.9,1.5c0-1,0.1-2,0.1-1.9
				c-1.7-1.6-3.4-2.6-4.3-4.3c-0.8-1.5-0.8-3.9-1.2-5.8c-0.4-2.2-0.6-6.2-1.1-6.4c-2.3-0.5-1.9-1.7-1.1-3.7c2-5.4,5.7-6.8,9.4-8.3
				l-0.1,0.2c0.5-1.7,1.1-3.5,1.6-5.2L285,95l0.8-0.5l-0.1-0.1l0.8-0.5V94L285.6,93.5z M284.4,114.2l3.3-3c-3.7-2.5-6.1-1.5-8.3,0.9
				l1.1-2.6l-0.9-1c-0.8,1.5-2.3,3-2.2,4.4c0.2,3.8,1.1,7.5,1.6,11.3c0.2,1.4,0.1,3,0.2,5.6c1.2-0.7,3.2-1.3,4.5-2.9
				c1.9-2.3,1.6-5.3,0-8c0.9,0,1.9,0.1,2.8,0.2c2.9,0.6,2.9,0.6,2.5-3.3L284.4,114.2z"/>
			<path d="M278.5,171.2c0.9,1,2.1,1.8,2.7,3.2c0.5,1.6,0.7,3.4,0.7,5.1c-4.1,1.8-2.7,5.9-2.6,10.2l-5.7-9.6c-0.2,4.5-6.4-1-5.1,6.4
				c2.8-0.4,2.8-0.4,4,8.4c-3,0.3-5.5,1-7.3,5.4c-0.8,2-1.8,4-2.9,5.9c-0.9,1.5-2.4,2.2-4,3.6v27.1l-0.6,0.2l-1.2-3.6
				c-0.7,8.1-5.7,12.1-9.7,9.2c1.3-8,2.9-15.7,3.8-23.6s2.2-15.7,0.5-24.6l-3.3,6.4c-3.2-2.4-6.1-4.5-9-6.9
				c-0.8-0.8-1.4-1.8-1.7-2.9c-1.9-5.7-3.7-11.5-5.5-17.3c0-0.4,0-0.8,0.2-1.2c-1.4-0.5-3.2-0.5-3.5-1.4c-0.5-1.8-0.1-4.1,0-6.2
				c0-0.2,0.7-0.6,1.1-0.6c1.5,0.3,3,0.7,4.4,1.1l0.3-1.6c-1.1-0.5-2.1-1-3.1-1.6c-2.5-1.5-3.7-6.6-2.8-10.8
				c0.2-1.4,0.3-2.9,0.1-4.4c0-0.2-0.8-0.4-1.6-0.7c0.8-2.5,1.6-5.2,2.2-7.2c-0.7-4.1-1.7-8-1.9-12c-0.1-3.2,1.1-6.4,1.3-9.7
				c0.1-1.8-0.5-3.6-0.9-6.2l2.4-1.5l-0.7-0.3c0.9-2.4,1.6-4.9,2.2-7.4c0.3-1.9,0.4-3.9,0.1-5.8c-0.5-4.2-3.1-7.2-1.4-12.7
				c1.4-4.5,0.3-10.6,0.3-15.9l-1.2,0.6c-0.6-0.7-1.5-1.1-1.8-2c-0.9-2.8,0-4.5,1.8-4.8l-1.3-13l0.9-0.3l1.4,5.2l0.6-2.6l2.8,2.7
				l0.7-0.8c-1.2-3.2-2.4-6.3-3.5-9.5c-0.3-1.2-0.4-2.5-0.4-3.7c0.5,0.6,1.2,1.2,1.8,1.7c1,0.6,2.5,1.8,2.9,1.3c0.9-1,1.2-3,1.6-4.6
				c0.2-0.7-0.1-1.5-0.3-3.9l2.9,3.3c0.7-3.3,1.5-6.7,2.2-10.2c0.7-3.7,1.4-7.4,2.2-11.6l2.9-2.6l1.1,3.2
				c-1.3-11.5,2.5-10.4,7.1-6.4V3.2l1.2-0.4l1.3,8.9l0.7-0.1l0.4-7.1c3.8-0.2,8.4,5.1,11.4-2c2.3,2-0.5,9.4,5.1,7.3v22l2.4,1.4
				c-0.7,1.5-1.8,3.3-1.7,3.5c2.3,3.8-0.1,5.5-1.5,7.7c-0.5,0.8-0.8,1.6-1,2.5c-0.1,1.1,0,2.2,0.1,3.3c0.6-0.3,1.2-0.7,1.8-1.1
				c1.1-1,2.3-2,3.7-3.3l1.2,5.3l3-1.5c-0.6,2.2-1.4,4.4-2.3,6.5c-0.6,1.1-1.9,1.6-2.8,2.3c0.7-1.2,1.3-2.4,2-3.6l-0.8-1.5l-7,5.1
				c-1.7-2.8-3.4-5.4-5-8.1l5.1-9l-2.9-0.9c-1.3,5.8-4.3,3.5-6.3,3.7l0.7-5c-1.3,1.9-4.7,3.6-1.6,6.4c2.5,2.2,0.8,3.2,0,5.9
				l-0.2-2.3l-1,0.5c0.2,0.6,0.3,1.6,0.5,1.6c0.6,0.2,1.3,0.2,1.8-0.2c1.2-1.1,2.4-2.4,3.5-3.6l0.4,3.2l-1.2,4.9l9.5,8.9l0.7-1
				l-0.7-4.8l2.5-0.2l3,2.4c0.7,2.3,1,5.2,2.3,6.9c3.2,4.6,2.2,9.3,0.5,13.7c-1.9,4.7-0.7,8.5,0.8,12.5c-2.9-3.7-4.1,0.2-6.1,3.4
				c0-4.5-0.9-6.9-3.9-4.5v-4.4l-0.2-2.1h0.1l-1.9,1.9v-0.1l1,1.6l-2.1,8.9l0.9,0.8l3.1-4.3c-0.8,5.6,2.5,5.8,4.8,7.4
				c0.4,0.3,1.6-1.6,2.4-2.4c-0.5,1.7-1.1,3.5-1.6,5.2l0.1-0.2c-3.7,1.5-7.4,2.9-9.4,8.3c-0.7,2-1.1,3.2,1.1,3.7
				c0.6,0.1,0.8,4.2,1.1,6.4c0.4,2,0.4,4.4,1.2,5.8c1,1.7,2.6,2.7,4.3,4.3c0-0.1,0,0.9-0.1,1.9c0,0.2,0,0.4,0,0.6l-3.1,5.1
				c5.9,1.9,1.9,6.1,2,9.9l3.2-4.8l1.7,3.5l-3.6,5.7l1.8,4.8h-3.2c-0.4,2.5-1,5.3-1.2,8.2c0,0.8,1.1,1.7,1.6,2.5L278.5,171.2z
				 M250.3,125.8c-0.4,1.6-1.2,3.1-1.3,4.7c0,3,0.1,6,0.5,8.9c0.2,1.7,0.6,3.4,1,5.1l1.1-0.5l-0.8-11.1l0.1-0.2l-0.8-7.1l1.7-0.5
				l0.4,4l0.5-0.1c0.4-2.5,0.9-5,1.1-6.2l-1.4-6.3l-2.2,1.9L250.3,125.8z M266.9,23.2l-0.6-11.8l1.1-1.3L263,6.5
				c-0.6,1.5-1.6,3.2-1.7,4.8c-0.1,3.7,0.4,7.5,0.6,11.2c0.4,4.9,0.8,9.8,1.1,14.9c1.9-0.9,2.5-3,1.9-5.8s-1.2-5.3-2-8.4L266.9,23.2
				z M276,134.8c-1-3-3.1-2.2-5.2-1.9c-3.1,0.6-6.3,2.8-9-0.9c-0.6,2.2-1.1,4.2-1.6,6l11.5-1.8v6.6L276,134.8z M250.8,31.8
				c3.2-9.4,3.2-9.4-0.3-13.8c-0.3,2.3-1.2,4.9-0.7,6.4c1.3,3.5-0.2,5.5-1.5,8.8h4.7V32L250.8,31.8z M255.7,47l0.9-8.8l2.3,0.3
				l0.2-0.8l-4.5-4.3l-0.6,1.1l1.3,2.9l-1.7-0.5l0.5,1.1c-0.8,0.9-1.6,1.9-2.3,3c-0.3,0.7-0.3,1.4-0.1,2.1
				C253,44.4,254.3,45.8,255.7,47z M281.7,73.2c-4.2,1.6-4.2,1.6-3.6,10.7l4.2-4.2L281.7,73.2z M247.8,95.7
				c-0.2-1.2-0.4-2.5-0.5-3.7c0-1,0.5-2.2,0.2-2.9c-0.6-1.3-1.3-2.6-2.3-3.7c-0.2-0.2-1.4,0.8-1.6,1.5
				C242.5,90.4,244.6,95.1,247.8,95.7z M266.8,84.5l-2-12.2l-1.5,0.4c0.2,2.3,0.4,4.6,0.5,6.9l-0.6-0.6l-1.6,3.5L266.8,84.5z
				 M272.8,35.4l1.1-1.7c-5.8-2.9-2.7-8.1-2.1-13l-4.1,5.1l2.3,1.4l-1.3,5.7L272.8,35.4z M252.6,90.8c0.5-1.9,0.9-3.8,1.2-5.8
				c0-2.3-0.1-4.5-0.4-6.8C250.3,83.5,250.6,89.8,252.6,90.8z M269.4,175.8l-7.4-1.4l-0.2,1.7l6.7,4L269.4,175.8z M259.4,114.3
				c5.7,3.8,3.3-6.1,7.2-6.7l-4-0.5L259.4,114.3z M258.1,27.1l0.5-0.2l-0.8-5.1c3.3,0,1.8-2.7,0.9-6.5c-1.3,2.2-2.8,3.7-2.7,5
				C256.2,22.6,257.3,24.8,258.1,27.1L258.1,27.1z M260.7,54.3l-3.3-1.7c0.2,3.4,0.5,6.4,0.7,9.5l0.9,0.1L260.7,54.3z M249.7,180.9
				l6.4,2c-0.7-4.3-3.5-3.2-5.5-3.8C250.3,178.9,249.8,180.6,249.7,180.9L249.7,180.9z M259.7,156.8c-1.6-2.3-2.7-3.8-3.7-5.3
				l-0.9,0.3c0.1,1.2,0.4,2.4,0.9,3.6c1,1.6,2.1,3.1,3.4,4.5L259.7,156.8z M247.1,85.3l1.3-0.4l-1.5-10.4l-1.4,0.5L247.1,85.3z
				 M276.8,69.8l1.7,0.7l1.8-7.2l-1.6-0.8L276.8,69.8z"/>
			<path d="M283.7,118.9c1.6,2.7,2,5.7,0,8c-1.4,1.6-3.3,2.2-4.5,2.9c-0.1-2.6,0-4.1-0.2-5.6c-0.5-3.8-1.4-7.5-1.6-11.3
				c-0.1-1.4,1.5-2.9,2.2-4.4l0.9,1c-0.4,0.8-0.7,1.7-1.1,2.6c1.6,0.7,3.2,1.4,4.8,2.2L283.7,118.9z"/>
			<path d="M274.4,88.6V93c3-2.4,3.9,0,3.9,4.5c1.9-3.2,3.1-7.2,6.1-3.4l0.3,0.4c0.2,0,0.4,0.2,0.4,0.6c-0.8,1.8-1.6,3.5-2.5,5.2
				c-0.8,0.8-2,2.7-2.4,2.4c-2.2-1.5-5.6-1.8-4.8-7.4l-3.1,4.3l-0.9-0.8l2.1-8.9L274.4,88.6z"/>
			<path d="M284.2,114.3c-1.6-0.7-3.2-1.5-4.8-2.2c2.2-2.4,4.6-3.4,8.3-0.9l-3.3,3L284.2,114.3z"/>
			<path d="M284.2,114.3l0.2-0.1l4.5,1.6c0.5,3.9,0.5,3.9-2.5,3.3c-0.9-0.1-1.8-0.2-2.8-0.2C283.8,117.3,284,115.8,284.2,114.3z"/>
			<path d="M278.6,171.4l-0.5-7.5l5.6,2.2c-1,1.6-2.2,3.1-3.4,4.6c-0.4,0.5-1.2,0.4-1.8,0.5L278.6,171.4z"/>
			<path d="M279.4,136.3c0-0.2,0-0.4,0-0.6c1.9-2.4,3.6-6.2,6.9-1.5L279.4,136.3z"/>
			<path d="M281.1,105.3l-0.1,0.2L281.1,105.3z"/>
			<path d="M286.5,93.9l-0.8,0.5L286.5,93.9z"/>
			<path d="M286.5,93.9l-0.8,0.5l0.1,0.1v-1.1l-0.1,0.1l0.8,0.6L286.5,93.9z"/>
			<path d="M285.8,93.4v1.1L285,95c0-0.4-0.1-0.5-0.4-0.6L285.8,93.4z"/>
			<path d="M286.5,94l-0.8-0.6L286.5,94z"/>
			<path d="M266.9,23.2H263c0.7,3.1,1.4,5.8,2,8.4s0,4.9-1.9,5.8c-0.4-5.1-0.8-10-1.1-14.9c-0.3-3.7-0.7-7.5-0.6-11.2
				c0-1.6,1.1-3.3,1.7-4.8l4.4,3.6l-1.1,1.3L266.9,23.2z"/>
			<path d="M276,134.8l-4.2,8.1v-6.6l-11.5,1.8c0.5-1.8,1-3.8,1.6-6c2.6,3.7,5.9,1.5,9,0.9C272.9,132.6,274.9,131.9,276,134.8z"/>
			<path d="M277.9,58.5l-2.5,0.2l0.7,4.8l-0.7,1l-9.5-8.9l1.2-4.9l-0.1-0.2c1.7,2.7,3.3,5.3,5,8.1l7-5.1l0.7,1.5
				c-0.7,1.2-1.3,2.4-2,3.6L277.9,58.5z"/>
			<path d="M267,50.6l-0.4-3.2c-1.1,1.3-2.2,2.5-3.5,3.6c-0.5,0.4-1.2,0.5-1.8,0.2c-0.2-0.1-0.3-1-0.5-1.6l1-0.5l0.2,2.3
				c0.8-2.7,2.4-3.7,0-5.9c-3.2-2.8,0.3-4.5,1.6-6.4l-0.7,5c2-0.1,5,2.2,6.3-3.7l2.9,0.9l-5.1,9L267,50.6z"/>
			<path d="M250.8,31.8L253,32v1.2h-4.7c1.3-3.3,2.8-5.4,1.5-8.8c-0.6-1.5,0.4-4.1,0.7-6.4C254,22.4,254,22.4,250.8,31.8z"/>
			<path d="M255.7,47c-1.4-1.3-2.7-2.6-3.9-4c-0.2-0.7-0.2-1.4,0.1-2c0.7-1.1,1.4-2.1,2.3-3l-0.5-1.1l1.7,0.5l-1.3-2.9l0.6-1.1
				l4.5,4.3l-0.2,0.8l-2.3-0.3L255.7,47z"/>
			<path d="M281.7,73.2l0.6,6.5l-4.3,4.2C277.5,74.8,277.5,74.8,281.7,73.2z"/>
			<path d="M247.8,95.7c-3.2-0.6-5.4-5.3-4.2-8.7c0.2-0.7,1.4-1.7,1.6-1.5c1,1.1,1.7,2.3,2.3,3.7c0.3,0.7-0.2,1.9-0.2,2.9
				C247.4,93.2,247.6,94.4,247.8,95.7z"/>
			<path d="M250.2,125.6l0.8,7.1l-0.1,0.2l0.8,11.1l-1.1,0.5c-0.3-1.7-0.8-3.4-1-5.1c-0.3-3-0.5-6-0.5-8.9c0-1.6,0.8-3.1,1.3-4.7
				L250.2,125.6z"/>
			<path d="M266.8,84.5l-5.2-2c0.5-1.2,1.1-2.3,1.6-3.5l0.6,0.6c-0.2-2.3-0.4-4.6-0.5-6.9l1.5-0.4L266.8,84.5z"/>
			<path d="M250.3,125.8v-7.3l2.2-1.9l1.4,6.3c-0.2,1.2-0.6,3.7-1.1,6.2l-0.5,0.1l-0.4-4l-1.7,0.5L250.3,125.8z"/>
			<path d="M272.7,35.4l-4.2-2.4l1.3-5.7l-2.3-1.4l4.1-5.1c-0.5,4.9-3.7,10.1,2.1,13L272.7,35.4z"/>
			<path d="M252.6,90.8c-2-1-2.3-7.3,0.8-12.6c0.3,2.2,0.4,4.5,0.4,6.8C253.6,87,253.2,88.9,252.6,90.8z"/>
			<path d="M269.4,175.8l-0.9,4.2l-6.7-4l0.2-1.7L269.4,175.8z"/>
			<path d="M259.4,114.2l3.1-7.2l4,0.5C262.7,108.1,265.1,118,259.4,114.2z"/>
			<path d="M258,27.1c-0.7-2.3-1.9-4.5-2.1-6.9c-0.1-1.2,1.5-2.7,2.7-5c0.9,3.8,2.4,6.5-0.9,6.5l0.8,5.1L258,27.1z"/>
			<path d="M260.7,54.3l-1.7,7.9l-0.9-0.1c-0.2-3-0.4-6-0.7-9.5L260.7,54.3z"/>
			<path d="M249.7,180.9c0.1-0.2,0.6-1.9,0.9-1.8c2,0.6,4.8-0.5,5.5,3.8L249.7,180.9z"/>
			<path d="M259.6,156.8l-0.3,3.1c-1.2-1.4-2.3-2.9-3.4-4.5c-0.5-1.2-0.7-2.4-0.9-3.6l0.9-0.3C257,152.9,258,154.4,259.6,156.8z"/>
			<path d="M247.1,85.3l-1.6-10.3l1.4-0.5l1.5,10.4L247.1,85.3z"/>
			<path d="M276.8,69.8l1.9-7.3l1.6,0.8l-1.8,7.2L276.8,69.8z"/>
			<path d="M274.4,88.6l-1,1.3c-0.3-0.6-0.7-1.1-1-1.6l0.1-0.1l-0.1,0.2l1.9-1.9c0,0.1-0.1,0.2-0.1,0.2v-0.2L274.4,88.6z"/>
			<path d="M272.4,88.4l0.1-0.2l-0.1,0.1L272.4,88.4z"/>
			<path d="M274.2,86.5v0.2c0-0.1,0.1-0.2,0.1-0.2H274.2z"/>
		</g>
		<g id="PY8cEr">
			<path class="st1" d="M347.6,244c-3.7,3.2-4.1,3.2-7.3-0.1c-0.4-0.3-0.9-0.5-1.5-0.5c-2.6-0.2-5.2-0.4-8.1-0.6
				c-1.1,3.3-4.3,2-7,1.9c-1.1-3.3-3.2-3.9-6.1-1.6c-1.5,1.2-2.7,3-4.4,0.2c-0.2-0.3-1.1-0.3-1.6-0.1c-1.8,0.7-3.5,2-5.3,2.1
				c-2.5,0.1-5.1-0.6-7.7-1.1c-0.9-0.3-1.8-0.7-2.6-1.2l-1.8,1.4l-1.8-2.5c-0.1,0.9-0.1,1.3-0.1,1.2l-5.8,0.7
				c1.1-2.2-1.1-5.7,3.3-7.1l-2.9-1c2.8-2.4,4.9-4.6,7.4-6.3c0.7-0.5,2.5,0.8,3.8,1.1c1,0.1,1.9,0.2,2.9,0.2v-3.8l3.1,2.5
				c0.8-0.8,1.5-1.8,2.2-2c0.5-0.1,1.3,1.1,1.9,1.7c1,1,2,1.9,3,3c2.3-3.8,2.2-3.8-1.2-4.9c-0.5-0.2-0.8-0.8-1.3-1.1
				c0.4-0.3,0.8-0.9,1.3-1c1-0.2,2-0.3,3-0.2c1.8,0.2,3.5,0.6,5.6,0.9l-1.5-4l-2.5-0.2l-0.4-3.2l7.9,4c0.1-2,0.2-3.6,0.3-5.2
				l-0.8-0.3c0.8-1.5,1.8-2.9,2.9-4.2c0.6-0.6,2-0.2,3-0.3l0.1,0.8l-2.4,1.3l7.8,0.5c0-3.3-1.2-4.1-4-3.1c-0.4-0.5-0.6-1-0.8-1.6
				c-0.4-2-0.5-4.4-2.9-1.2c-0.2,0.3-1.3,0.3-1.7,0c-0.5-0.4-0.7-0.9-0.7-1.5c0.5-1.1,1.1-2.2,1.8-3.2c-0.3-0.4-1-1.8-1.6-1.7
				c-4.5,0.2-3.3-3-3.6-5.7c2.5,0.6,2.9,1.8,1.4,4.2l5.1-0.7l2.4-5.8c-1.6,1.6-3.4-2.3-4.1,1.9c-0.6-0.8-1.1-1.3-1.5-1.9
				c-1.4-1.6-1.5-4.8-5-3.9c-0.7,0.2-2.1-1-2.5-1.9s-1.7-2.5,0.7-2.9c0.2,0,0-1.1,0.2-1.6c0.1-1,0.5-1.9,1.1-2.7
				c0.5-0.5,1.6-0.4,2.5-0.4c0.6,0.1,1.2,0.2,1.7,0.4c-2.5-2.6-5-4.7-4.2-9c2.8,0.8,4.1-0.1,4.1-3.4c0.6,1.4,1.1,2.8,1.7,4.2
				l1.2-0.2c-0.1-1.9-0.2-3.8-0.2-5.6c-2.7-2.6-4.1,4.4-6.7,1.5l3.6-5.9l-0.8-0.6h3.6l0.4,2.4l0.6,0.1l0.9-2.4l4,0.5L329,162l3,0.8
				c-0.5-1-1.2-2-1.9-2.9c-3.5-3.2-7.3-1.1-11.3-0.2c2.6-2.8,0.5-4.9-0.6-7c-0.1-0.2-1.6,0.2-2.7,0.4c-2.9-3.1-2.9-3.1-1.4-5.1
				l2.3,2l0.9-0.9l-5.6-6.6l0.7-1.8c0.4,0.3,0.9,0.9,1.3,0.9c1.5,0.2,3.1,0.2,5.4,0.3c-0.6-0.7-1.1-1.7-1.7-1.8
				c-1.5,0-3.1,0.1-4.6,0.3l-0.5-4.6l-4.9-2.9l0.9,6.7l-2-0.1l-0.5-3.8c-3,1.2-2.6-2.7-4.6-3.1l3.3-0.1l-2.3-2.1
				c0.9-0.5,1.7-1.1,2.5-1.8c0.5-0.4,0.7-1,0.7-1.6c-0.1-0.6-0.9-1.4-1.3-1.4c-3.2,0.1-6.5-2.5-9.7,0.2c-0.2,0.2-0.8-0.1-1.2-0.1
				c-3.5,0.1-3.9-2.9-5.1-5.5l-2.7,2l0.3,0.5l2.9-0.2c-2.6,2.8-0.2,3.3,1.4,4l-1.5,2.4l4.8,1.1c-2.4,1.6-3.9,2.5-5.6-0.8
				c-1.1,2.3-1.7,4.4-3,6c-3,3.8-3.2,3.7-3,4.2l5.4,0.4l-0.1,1.1h-3.9l-0.1,0.6l3.1,0.8l-2.4,5.3l-0.6-0.2l0.5-4.4l-1.6-0.5
				c-0.9,1.2-1.3,2.2-2,2.6c-0.8,0.3-1.7,0.5-2.6,0.5c0.2-2.7-2.8-1.6-3.8-3.2c-0.5-0.8-1.5-1.3-2.9-2.3l-1,5.9l-2-4.4l-3.2-0.2
				c-0.4,1.7-0.7,3.5-1.2,5.2c-1,3-0.1,5.3,2.9,6.7c-1.1,1-2.2,2-4,3.6l6-1l0.4-1l-2.6-1.5c0.5-1.6,0.5-4.3,1.4-4.6
				c2.1-0.8,4.7-0.5,7.4-0.7l-2.3,6.4l-2.8-0.2l-0.6,3.1c-1.1-0.1-2.5-0.5-2.7-0.1c-0.6,0.9-0.5,2.2-1,3.3c-0.6,1.2,2,3.5-1.2,3.8
				c-0.2,0.4-0.3,0.9-0.2,1.4c2.8,1.4,0.4,3.7,1.7,6l-8.1-0.5l1.2,1.8l2.1-0.7l2.2,4.8l-4-2.5l-2.5,3l-3.2-3.4
				c0.5,7.1-3.2,1-4.7,2.6l1.4,2c-2.9,0.3-3.1,0.6-2.1,2.8c1.1-0.6,2.2-1.2,3.4-1.7c1.1-0.6,2.3-0.9,3.6-0.9c1.4,0.3,2.7,0.8,4,1.4
				l-0.3,0.9l-2.3-0.1l0.9,4.4l-2.8-0.9v8l-3.2-5.3l-0.9,0.5c0.6,2,1.4,4,2.4,5.8c0.9,1.5,2.1,1.2,2.4-0.7l3.4,0.9l-0.8,3.2l4.5,1.7
				c-2.5,0.7-4.1,1.4-2.1,4.9l-9.2-2c-3.1,3-0.5,5.2,1.6,6.4c0.8,0.5,3.3-1.8,4.9-2.7c0.4,1,0.6,2.8,1.6,3.7s2.7,0.8,4,1.1l-0.2,0.9
				l-2.6,0.3l-0.3,0.8c1.5,1,3.1,1.9,4.6,2.9l-2.5,1.5l-1.6,2.3l-1.5-0.9l-0.7,0.7c0.8,0.8,1.4,1.6,2,2.5c0.5,1.1,1.2,2.5,0.9,3.5
				c-0.5,1.6-0.6,2.6,1.2,3.1c1,0.4,2,0.8,3,1.3l-1.5,1l1.4,1.2l-2.2,1.4c0.9,0.1,1.5,0.4,2,0.2c1.6-0.6,3.3-2.2,4.8-1.9
				c2.6,0.4,5,1.9,7.4,2.9l0.5,0.8c0.9,1,1.6,2.5,2.7,3c2.2,0.9,2.7,2.4,2.5,4.7c-2.7,0.5-5.4,1.4-8.1,1.4c-5,0-10.1-0.8-15.1-0.7
				c-4.8,0.1-9.5,0.8-14.3,1.2c-3.3,0.2-6.6,0.3-9.8,0.4 M278.8,135.1l-2.7-2c-2.9,0.8-4.4,2.2-3.5,4.6l6.4-2.7l-0.4,4.8
				c1.2-2.2,2-4.6,2.4-7.1c0.1-0.4-0.6-1.1-1.1-1.3c-0.6,0-1,0.4-1.3,0.8C278.6,133.3,278.6,134.2,278.8,135.1z M260.3,225.7
				c-1.8-3.3-5.2-0.2-7.3-1.9C255.2,225,256.6,229.2,260.3,225.7L260.3,225.7z M325.8,152.8l0.7,0.3c0.4-1.1,1.2-2.2,1.2-3.4
				c0-0.6-1.1-1.5-1.9-1.8c-0.5-0.2-1.2,0.4-1.1,0.4L325.8,152.8z M331,199l2.1,1.9l-0.3,0.6h3.4C334.9,198.9,333.7,197.4,331,199z
				 M299.8,119.5c0.1-0.1-0.2,0.6-0.5,1.2l0.8,0.3l1.5-2.9l-4.7-1.4l-0.4,0.9L299.8,119.5z M332.4,231.6c0.3-1.5,0.6-2.8,0.9-4.5
				l-3.5,1.2L332.4,231.6z M250.1,209.2l-0.5-0.2c-0.1,0.4-0.3,0.8-0.4,1.1c0,0,0.3,0.2,0.5,0.3L250.1,209.2z"/>
			<path d="M236.1,244.5c3.3-0.1,6.6-0.2,9.8-0.4c4.8-0.3,9.5-1.1,14.3-1.2c5,0,10.1,0.7,15.1,0.7c2.7,0,5.4-0.9,8.1-1.4
				c0.1-2.3-0.4-3.8-2.5-4.7c-1.1-0.5-1.8-1.9-2.7-3c2.1-0.1,4.2-0.4,6.3-0.9c0.4-0.1,0.7-2,0.4-2.7c-0.5-1.1-1.3-2-2.3-2.8
				c-2.8,1.8-2.6-0.8-3.2-2.3l-5.9,1.2l-0.1,0.8l1.7,0.6l2.6,5.3c-2.5-1-4.9-2.5-7.4-2.9c-1.4-0.2-3.1,1.3-4.8,1.9
				c-0.5,0.2-1.2-0.1-2-0.2l2.2-1.4l-1.4-1.2l1.5-1c-1-0.5-2-1-3-1.3c-1.9-0.5-1.8-1.4-1.2-3.1c0.3-1-0.4-2.4-0.9-3.5
				c-0.6-0.9-1.2-1.8-2-2.5l0.7-0.7l1.5,0.9l1.6-2.3c1.1,1.3,1.9,3.2,4.2,2.4c1.2-2.1,2.5-3.3,4.7-1c0.4,0.3,0.9,0.5,1.4,0.5
				c1.3-0.1,2.6-0.3,4-0.5l-1.1,4l5.1-2.6l-3.3-4.2l1.2-0.8l-7.1-0.9v-6.8c-0.2-0.2-0.8-0.9-1.3-1.6s-1.1-1.5-1.6-2.3
				c-0.5,0.7-1,1.4-1.5,2.2c-0.4,0.7-0.7,1.4-1,2.2l-1.9-1.5l2.5-0.3l-5-1.8c0.5,2.1,0.4,4,1.3,4.8c1.1,0.9,2.9,0.9,3.8,1.2
				l-1.4,4.8l-0.4,0.8l-4.6-2.9l0.3-0.8l2.6-0.3l0.2-0.9c-1.4-0.3-3.1-0.3-4-1.1s-1.3-2.7-1.6-3.7c-1.6,0.9-4,3.2-4.9,2.7
				c-2.1-1.2-4.7-3.4-1.6-6.4l9.2,2c-2-3.5-0.4-4.2,2.1-4.9l-4.6-1.7l0.8-3.2l-3.4-0.9l-0.7-0.3v-8l2.8,0.9l-0.9-4.4l2.3,0.1
				l0.3-0.9c-1.3-0.7-2.6-1.1-4-1.4c-1.2,0-2.4,0.3-3.6,0.9c-1.2,0.5-2.3,1.1-3.4,1.7c-0.9-2.2-0.8-2.5,2.1-2.8l-1.4-2
				c1.5-1.6,5.2,4.5,4.7-2.6l3.2,3.4l2.5-3l4,2.5l-2.2-4.8L259,173l-1.2-1.8l8.1,0.5c-1.3-2.3,1.1-4.6-1.7-6c-0.1-0.5,0-0.9,0.2-1.4
				c3.3-0.3,0.6-2.6,1.2-3.8c0.5-1,0.4-2.3,1-3.3c0.2-0.4,1.6,0.1,2.7,0.1l0.6-3.1l2.8,0.2l2.3-6.4c-2.7,0.2-5.3-0.1-7.4,0.7
				c-0.9,0.4-1,3-1.4,4.6l0.1-0.1c-3-1.4-3.9-3.7-2.9-6.7c0.6-1.7,0.8-3.5,1.2-5.2l3.2,0.2l2,4.4l1.1-5.9c1.3,1.1,2.4,1.5,2.9,2.3
				c0.9,1.5,4,0.4,3.8,3.2c0.9,0,1.8-0.2,2.6-0.5c0.7-0.5,1.1-1.4,2-2.6l1.6,0.5l-0.5,4.4l0.6,0.2l2.4-5.3l-3.1-0.8l0.1-0.6h3.9
				l0.1-1.1l-5.4-0.4c-0.1-0.5,0-0.4,3-4.2c1.2-1.6,1.9-3.6,3-6c1.8,3.3,3.2,2.4,5.6,0.8l-4.8-1.1l1.4-2.5c-1.6-0.8-4-1.3-1.4-4
				l-2.9,0.2l-0.3-0.5l2.7-2c1.1,2.6,1.6,5.5,5.1,5.5c0.4,0,1,0.3,1.2,0.1c3.2-2.7,6.5-0.1,9.7-0.2c0.5,0,1.2,0.8,1.3,1.4
				c0,0.6-0.2,1.2-0.7,1.6c-0.8,0.7-1.6,1.3-2.5,1.8l2.3,2.1l-3.3,0.1c1.9,0.5,1.5,4.3,4.6,3.1l0.5,3.8l2,0.1l-0.9-6.7l4.9,2.9
				c0.2,2,0.4,3.3,0.5,4.6c-0.1,0.1-0.3,0.2-0.5,0.3l-0.7,1.8l5.6,6.6l-0.9,0.9l-2.3-2c-1.5,2-1.5,2,1.4,5.1c1-0.1,2.5-0.6,2.7-0.4
				c1.1,2.1,3.2,4.2,0.6,7c4-0.9,7.8-3.1,11.3,0.2c0.7,0.9,1.4,1.9,1.9,2.9l-3-0.8l0.5,1.7l-4-0.5l-0.9,2.4l-0.6-0.1l-0.4-2.4h-3.6
				l0.8,0.6l-3.6,5.9c2.6,2.8,4-4.1,6.7-1.5c0.1,1.8,0.2,3.7,0.2,5.6l-1.2,0.2c-0.6-1.4-1.1-2.8-1.7-4.2c0.1,3.2-1.3,4.1-4.1,3.4
				c-0.7,4.3,1.8,6.4,4.2,9c-0.5-0.2-1.1-0.3-1.7-0.4c-0.8,0-2-0.1-2.5,0.4c-0.6,0.8-0.9,1.7-1.1,2.7c-0.1,0.5,0,1.6-0.2,1.6
				c-2.4,0.5-1,2.2-0.7,2.9s1.9,2,2.5,1.9c3.6-0.9,3.6,2.3,5,3.9c0.5,0.5,0.9,1.1,1.5,1.9c0.7-4.2,2.5-0.3,4.1-1.9l-2.4,5.8
				l-5.1,0.7c1.5-2.4,1.1-3.6-1.4-4.2c0.4,2.6-0.9,5.9,3.6,5.7c0.6,0,1.3,1.4,1.6,1.7c-0.7,1-1.3,2.1-1.8,3.2c0,0.6,0.2,1.2,0.7,1.5
				c0.5,0.3,1.5,0.3,1.7,0c2.5-3.2,2.6-0.9,2.9,1.2c0.2,0.6,0.5,1.1,0.8,1.6c2.9-1,4-0.3,4,3.1l-7.8-0.5l2.4-1.3l-0.1-0.8
				c-1,0.1-2.4-0.3-3,0.3c-1.1,1.3-2.1,2.7-2.9,4.2l0.8,0.3c-0.1,1.6-0.2,3.1-0.3,5.2l-7.9-4l0.4,3.2l2.5,0.2l1.5,4
				c-2-0.4-3.8-0.7-5.6-0.9c-1-0.1-2,0-3,0.2c-0.5,0.1-0.9,0.6-1.3,1c0.4,0.4,0.8,1,1.3,1.1c3.4,1.1,3.5,1.1,1.2,4.9
				c-1.1-1.1-2-2-3-3c-0.6-0.6-1.4-1.8-1.9-1.7c-0.8,0.2-1.4,1.2-2.2,2l-3.1-2.5v3.8c-1,0-1.9,0-2.9-0.2c-1.3-0.3-3.1-1.6-3.8-1.1
				c-2.5,1.6-4.7,3.9-7.4,6.3l2.9,1c-4.4,1.4-2.2,5-3.3,7.1l5.8-0.7c0,0.2,0-0.3,0.1-1.2l1.8,2.5l1.8-1.5c0.8,0.5,1.7,0.9,2.6,1.2
				c2.5,0.5,5.1,1.2,7.7,1.1c1.8-0.1,3.5-1.4,5.3-2.1c0.5-0.2,1.4-0.2,1.6,0.1c1.6,2.8,2.9,1,4.4-0.2c2.9-2.3,5-1.7,6.1,1.6
				c2.7,0,5.9,1.4,7-1.9c2.9,0.2,5.5,0.4,8.1,0.6c0.5,0,1.1,0.2,1.5,0.5c3.3,3.3,3.6,3.3,7.3,0.1 M282.7,150.8l-2.6,5.2l5.1-2.8
				L282.7,150.8l-1.5-4l-1.2-0.1l-1.7,4.1L282.7,150.8z M300,206.6c-0.9,6.3,5.2,3,7.6,5c0.2,0.2,1-0.5,2-0.9l-3.7-1.9l3.2-2
				c-1.7-0.6-2.9-1.4-4-1.4C303.4,205.6,301.7,206,300,206.6z M290.7,201.4v-5.7l-6.7,4.2l3.1,5.8c0.5-2.5,0.9-4.5,1.3-6.8
				L290.7,201.4z M274.9,199.9l6-4.3l-4.5-2.4l-0.4,2.9l-2.6-2.3l-0.5,0.4L274.9,199.9z M292.4,222.4c-0.8,0.3-1.6,0.6-2.4,1
				c0,0,0.2,1,0.4,1c0.8,0.1,1.6,0.1,2.3-0.1c1.2-0.5,2.3-1,3.4-1.6l-2.5-4.1C290.5,218.6,290.5,218.6,292.4,222.4L292.4,222.4z
				 M285.4,172c-2.4-2.5-0.9-8-6-7.7c0.8,1.8,1.5,3.5,2.2,5.2C282.2,171,282.2,173.2,285.4,172L285.4,172z M321.8,204.1l-7.5,3.2
				l2.7,0.6c-0.6,0.5-1.2,1-1.8,1.5c-0.1,0.1,0.6,1,0.6,1c1.5-0.7,3-1.5,4.3-2.6C321,207.1,321.2,205.7,321.8,204.1z M294.7,213.5
				c0.5,1.4,0.5,2,0.8,2.2c0.7,0.4,1.6,0.5,2.4,0.5c0.3,0,0.8-1.5,0.7-1.6c-1.1-1-2.5-1.8-3.9-2.3c-0.7-0.1-2,1.2-2.4,2.2
				s0.3,2.1,0.6,3.5L294.7,213.5z M288.4,225.1c0.2,2.6,0.3,4.5,0.5,6.9l4.9-4.5L288.4,225.1z M306.6,204l0.2,1.1l5.2,1.8l0.4-0.8
				l-2.7-2l2.8-1.6l-0.4-0.7L306.6,204z M296.9,199.2c-0.6-1.9-1.5-3.4-3.8-2.4c-0.7,0.3-1,1.5-1.5,2.4l2.6,1.2l0.4-0.8l-1.7-1.4
				l0.4-0.6L296.9,199.2z M290.2,167.9c1.1-3.8-3-2.5-3.9-5.3l-0.6,3L290.2,167.9z M305.4,226.2l3-3.4l-4.9-0.9L305.4,226.2z"/>
			<path d="M277.7,233.8l-2.6-5.3l-1.7-0.6l0.1-0.8l5.9-1.2c0.6,1.5,0.4,4.1,3.2,2.3c1,0.7,1.7,1.7,2.3,2.8c0.3,0.8,0,2.6-0.4,2.7
				c-2.1,0.4-4.2,0.7-6.3,0.9L277.7,233.8z"/>
			<path d="M278.8,135.1c-0.2-0.9-0.2-1.9-0.1-2.8c0.3-0.5,0.8-0.8,1.3-0.8c0.5,0.1,1.2,0.9,1.1,1.3c-0.4,2.5-1.2,4.9-2.4,7.1
				l0.4-4.8l-6.4,2.7c-0.9-2.4,0.6-3.8,3.5-4.6L278.8,135.1z"/>
			<path d="M260.3,225.7c-3.6,3.4-5-0.7-7.3-1.9C255.1,225.6,258.5,222.4,260.3,225.7z"/>
			<path d="M266.7,218.7c-2.3,0.9-3.1-1-4.2-2.4c0.9-0.5,1.7-1,2.5-1.5c0.1-0.3,0.3-0.6,0.4-0.8L266.7,218.7z"/>
			<path d="M254.8,192.6l0.7,0.3c-0.4,1.9-1.5,2.2-2.4,0.7c-1-1.9-1.7-3.8-2.4-5.8l0.9-0.5L254.8,192.6z"/>
			<path d="M266.2,153.4l2.6,1.5l-0.4,1l-6,1c1.8-1.6,2.9-2.6,4-3.6L266.2,153.4z"/>
			<path d="M312.5,140.7c0.2-0.1,0.3-0.2,0.5-0.3c1.5-0.2,3.1-0.3,4.6-0.3c0.6,0.1,1.1,1.1,1.7,1.8c-2.3-0.1-3.9-0.1-5.4-0.3
				C313.3,141.6,312.9,141,312.5,140.7z"/>
			<path d="M325.8,152.8l-1.1-4.5c-0.2,0.1,0.6-0.6,1.1-0.4c0.8,0.3,1.9,1.2,1.9,1.8c0,1.1-0.7,2.2-1.2,3.4L325.8,152.8z"/>
			<path d="M331,199c2.7-1.6,3.9-0.1,5.2,2.4h-3.4l0.3-0.6L331,199z"/>
			<path d="M299.8,119.5l-3.4-1.8l0.4-0.9l4.7,1.4l-1.5,2.9l-0.8-0.3C299.5,120.1,299.8,119.4,299.8,119.5z"/>
			<path d="M332.4,231.6l-2.6-3.2l3.5-1.2C333,228.7,332.7,230.1,332.4,231.6z"/>
			<path d="M250.1,209.2l-0.3,1.3c-0.2-0.1-0.5-0.2-0.5-0.3c0.1-0.4,0.2-0.8,0.4-1.1L250.1,209.2z"/>
			<path d="M266.7,218.7l-1.2-4.7l1.5-4.8c-0.9-0.2-2.7-0.2-3.8-1.2c-0.9-0.8-0.8-2.6-1.3-4.8l5,1.8l-2.5,0.3l1.9,1.5
				c0.3-0.7,0.6-1.5,1-2.2c0.4-0.8,1-1.5,1.5-2.2c0.5,0.8,1,1.5,1.6,2.3s1.2,1.4,1.3,1.6v6.9l7.1,0.9l-1.2,0.8l3.3,4.2l-5.1,2.6
				l1.1-4c-1.4,0.2-2.7,0.4-4,0.5c-0.5,0-1-0.2-1.4-0.5C269.2,215.4,267.8,216.6,266.7,218.7z"/>
			<path d="M300,206.6c1.7-0.5,3.4-0.9,5.2-1.2c1.1-0.1,2.2,0.7,4,1.4l-3.2,2l3.7,1.9c-1,0.4-1.8,1.1-2,0.9
				C305.2,209.6,299.1,212.9,300,206.6z"/>
			<path d="M290.7,201.4l-2.3-2.5c-0.4,2.3-0.8,4.3-1.3,6.8l-3.1-5.8l6.7-4.2V201.4z"/>
			<path d="M274.8,199.9l-1.9-5.7l0.5-0.4l2.6,2.3l0.4-2.9l4.5,2.4L274.8,199.9z"/>
			<path d="M292.4,222.4c-1.9-3.7-1.9-3.8,1.3-3.8l2.5,4.1c-1.1,0.6-2.3,1.2-3.4,1.6c-0.8,0.2-1.5,0.2-2.3,0.1c-0.2,0-0.4-1-0.4-1
				C290.8,223,291.5,222.7,292.4,222.4z"/>
			<path d="M285.4,172c-3.1,1.2-3.1-1-3.8-2.5c-0.8-1.7-1.5-3.5-2.2-5.2C284.4,164,282.9,169.5,285.4,172z"/>
			<path d="M321.8,204.1c-0.6,1.6-0.8,3-1.6,3.8c-1.3,1-2.8,1.9-4.3,2.6c0,0-0.7-0.9-0.6-1c0.6-0.6,1.2-1.1,1.8-1.5l-2.7-0.6
				L321.8,204.1z"/>
			<path d="M294.7,213.5l-2,4.4c-0.3-1.4-0.9-2.7-0.6-3.5s1.8-2.3,2.4-2.2c1.5,0.5,2.8,1.3,3.9,2.3c0.1,0.1-0.4,1.6-0.7,1.6
				c-0.8,0.1-1.6-0.1-2.4-0.5C295.2,215.5,295.2,214.8,294.7,213.5z"/>
			<path d="M288.4,225.1l5.4,2.4l-4.9,4.5C288.7,229.6,288.6,227.7,288.4,225.1z"/>
			<path d="M306.6,204l5.5-2.3l0.4,0.7l-2.8,1.6l2.7,2l-0.4,0.8l-5.2-1.8L306.6,204z"/>
			<path d="M296.9,199.2l-3.7-1.6l-0.4,0.6l1.7,1.4l-0.4,0.8l-2.6-1.2c0.5-0.8,0.8-2,1.5-2.4C295.4,195.8,296.3,197.3,296.9,199.2z"
				/>
			<path d="M290.2,167.9l-4.5-2.2l0.6-3C287.2,165.4,291.3,164,290.2,167.9z"/>
			<path d="M305.4,226.2l-1.9-4.3l4.9,0.9L305.4,226.2z"/>
			<path d="M282.7,150.8h-4.5l1.7-4.1l1.2,0.1L282.7,150.8L282.7,150.8z"/>
			<path d="M282.6,150.9l2.6,2.2l-5.1,2.9L282.6,150.9L282.6,150.9z"/>
		</g>
		<g id="PY8cEr-2">
			<path class="st1" d="M151.8,241.8c-5.1,5-5.5,4.9-10-0.1c-0.6-0.5-1.3-0.8-2-0.8c-3.5-0.4-7-0.6-11-0.9c-1.6,5.2-5.8,3-9.6,3
				c-1.6-5.2-4.4-6.1-8.3-2.5c-2,1.8-3.7,4.6-6,0.3c-0.2-0.4-1.5-0.4-2.1-0.1c-2.4,1-4.8,3.1-7.3,3.3c-3.4,0.2-7-1-10.4-1.7
				c-1.2-0.5-2.4-1.1-3.5-1.8l-2.4,2.1c-0.8-1.3-1.5-2.4-2.4-3.9c-0.1,1.4-0.2,2.1-0.1,1.8l-7.9,1.1c1.5-3.4-1.5-8.8,4.4-11.1
				l-4-1.5c3.8-3.8,6.7-7.2,10.1-9.7c1-0.7,3.4,1.3,5.2,1.8c1.3,0.2,2.6,0.3,3.9,0.3v-5.9l4.3,3.9c1.1-1.2,2-2.8,3.1-3.1
				c0.7-0.2,1.7,1.6,2.6,2.6c1.3,1.5,2.7,3,4.1,4.7c3.1-5.9,3.1-5.8-1.6-7.6c-0.7-0.2-1.1-1.2-1.7-1.8c0.6-0.5,1.1-1.4,1.8-1.5
				c1.3-0.4,2.7-0.5,4.1-0.4c2.4,0.3,4.8,0.9,7.6,1.4l-2-6.2l-3.4-0.4l-0.6-4.9l10.7,6.2c0.2-3.2,0.3-5.5,0.4-8l-1-0.5
				c1.4-2.4,2.4-4.8,4-6.5c0.8-0.8,2.7-0.3,4.1-0.4l0.2,1.3l-3.3,2L132,197c0-5.1-1.6-6.4-5.5-4.7c-0.5-0.8-0.9-1.6-1.1-2.5
				c-0.5-3.2-0.6-6.8-4-1.8c-0.3,0.5-1.8,0.5-2.4,0.1c-0.7-0.6-1.1-1.5-1-2.4c0.7-1.7,1.5-3.3,2.4-4.9c-0.4-0.6-1.3-2.7-2.2-2.7
				c-6.2,0.2-4.5-4.7-4.9-8.8c3.4,0.9,4,2.9,1.9,6.6l6.9-1.1c1.2-3.2,2-5.4,3.3-8.9c-2.1,2.5-4.6-3.6-5.6,2.9
				c-0.9-1.2-1.5-2.1-2.1-2.9c-1.9-2.5-2-7.5-6.8-6c-0.9,0.3-2.9-1.6-3.4-2.9c-0.5-1.1-2.3-3.8,1-4.6c0.2-0.1,0.1-1.7,0.3-2.5
				c0.4-1.5,0.6-3.2,1.4-4.2c0.7-0.8,2.2-0.6,3.3-0.7c0.8,0.1,1.6,0.3,2.3,0.6c-3.4-3.9-6.8-7.3-5.8-13.9c3.8,1.2,5.7-0.2,5.5-5.2
				c0.8,2.2,1.5,4.4,2.3,6.6l1.7-0.3c-0.1-3-0.2-5.9-0.3-8.7c-3.7-4.1-5.7,6.8-9.1,2.4l4.9-9.2l-1.1-0.9h4.9l0.5,3.7l0.8,0.1
				l1.3-3.7l5.5,0.8l-0.6-2.6l4.1,1.2c-1.2-2.1-1.7-3.5-2.6-4.5c-4.8-5-9.9-1.7-15.3-0.3c3.5-4.4,0.6-7.6-0.8-10.9
				c-0.2-0.4-2.2,0.3-3.6,0.5c-4-4.8-4-4.8-1.9-7.9l3.2,3l1.3-1.5c-2.6-3.4-5.1-6.8-7.7-10.2l0.9-2.7c0.6,0.5,1.2,1.4,1.8,1.5
				c2.1,0.3,4.2,0.3,7.4,0.5c-0.8-1.1-1.5-2.7-2.3-2.8c-2.1-0.1-4.2,0.1-6.3,0.4l-0.8-7.2l-6.6-4.5c0.4,3.2,0.7,6.6,1.2,10.4
				l-2.8-0.1l-0.7-5.9c-4.2,1.8-3.6-4.1-6.2-4.9l4.5-0.2l-3.1-3.3c1.2-0.8,2.4-1.8,3.4-2.8c0.6-0.7,1-1.6,1-2.5
				c-0.2-0.9-1.2-2.2-1.8-2.2c-4.4,0.2-8.9-3.9-13.2,0.4c-0.3,0.3-1.1-0.1-1.7-0.1c-4.7,0.1-5.4-4.4-6.9-8.5L67.3,53l0.4,0.8
				l3.9-0.2c-3.5,4.3-0.3,5,1.9,6.2c-0.7,1.3-1.2,2.3-1.9,3.8l6.6,1.7c-3.2,2.5-5.3,3.9-7.7-1.2c-1.5,3.6-2.4,6.9-4.1,9.3
				c-4.2,5.8-4.3,5.7-4.2,6.4l7.3,0.6l-0.1,1.7h-5.3L64,82.9l4.2,1.3c-1.1,2.9-2.2,5.5-3.2,8.2l-0.8-0.3l0.7-6.8l-2.2-0.8
				c-1.2,1.8-1.7,3.4-2.7,4.1s-2.3,0.6-3.5,0.8c0.3-4.2-3.8-2.5-5.1-4.9c-0.7-1.3-2.1-2-3.9-3.6L46,89.9l-2.7-6.8l-4.4-0.4
				c-0.5,2.7-0.9,5.4-1.7,8.1c-1.4,4.6-0.2,8.2,3.9,10.4l-5.4,5.6l8.2-1.6l0.6-1.5l-3.5-2.4c0.6-2.5,0.7-6.6,2-7.2
				c2.9-1.3,6.3-0.8,10.1-1.1c-1.3,4.3-2.2,7.1-3.1,10l-3.8-0.3l-0.8,4.9c-1.5-0.1-3.4-0.7-3.7-0.2c-0.8,1.4-0.7,3.5-1.4,5
				c-0.8,1.9,2.8,5.4-1.7,6c-0.3,0.7-0.3,1.4-0.2,2.1c3.8,2.1,0.5,5.7,2.3,9.2l-11-0.8l1.7,2.9l2.9-1.1l3,7.4l-5.4-3.9l-3.4,4.6
				l-4.4-5.4c0.7,11-4.4,1.6-6.4,4l2,3.1c-4,0.4-4.1,0.9-2.9,4.3c1.5-1,3.1-1.9,4.7-2.6c1.5-0.7,3.3-1.6,4.8-1.4
				c1.9,0.2,3.6,1.4,5.4,2.2l-0.5,1.4l-3.1-0.2l1.2,6.8l-3.8-1.4v12.4l-4.4-8.2l-1.2,0.8c1,3,1.7,6.3,3.2,9c1.2,2.3,2.8,1.9,3.3-1.1
				L31,164l-1.1,4.9l6.2,2.7c-3.4,1-5.6,2.1-2.8,7.5l-12.5-3.2c-4.2,4.7-0.6,8,2.2,10c1.1,0.8,4.5-2.8,6.6-4.2
				c0.5,1.5,0.9,4.3,2.2,5.8c1.2,1.3,3.6,1.2,5.5,1.7l-0.3,1.3l-3.5,0.5l-0.4,1.2l6.3,4.5l-3.5,2.4l-2.2,3.6l-2.1-1.3l-1,1.1
				c1,1.2,1.9,2.5,2.7,3.9c0.7,1.7,1.7,3.9,1.3,5.4c-0.7,2.5-0.9,3.9,1.7,4.8c1.4,0.6,2.8,1.2,4.1,2l-2,1.6l1.9,1.9l-3,2.1
				c1.2,0.1,2.1,0.6,2.8,0.3c2.2-0.9,4.5-3.3,6.5-3c3.5,0.7,6.8,3,10.1,4.6l0.6,1.2c1.2,1.6,2.2,3.8,3.7,4.6c3,1.5,3.6,3.8,3.5,7.3
				c-3.7,0.8-7.4,2.2-11,2.2c-6.8,0-13.7-1.2-20.6-1.1c-6.5,0.1-12.9,1.3-19.4,1.8c-4.4,0.4-8.9,0.5-13.4,0.7 M58.1,73.1l-3.6-3.1
				c-4,1.2-5.9,3.5-4.7,7.2l8.8-4.1L58,80.4c1.6-3.5,2.7-7.2,3.2-11.1c0.1-0.6-0.9-1.8-1.5-2c-0.5-0.2-1.6,0.7-1.8,1.3
				C57.7,69.6,58,70.8,58.1,73.1z M32.9,213.5c-2.4-5.1-7.1-0.3-9.9-2.9C26,212.4,27.9,218.8,32.9,213.5z M122.1,100.5l1,0.4
				c0.6-1.8,1.6-3.5,1.6-5.2c0-1-1.5-2.3-2.6-2.8c-0.6-0.3-1.7,0.7-1.4,0.6C121.2,96.4,121.6,98.4,122.1,100.5L122.1,100.5z
				 M129.1,172.1l2.9,2.9l-0.4,0.9h4.6C134.5,171.9,132.8,169.6,129.1,172.1L129.1,172.1z M131,222.5c0.4-2.3,0.8-4.4,1.3-6.9
				l-4.8,1.9L131,222.5z M19,187.8l-0.7-0.2c-0.2,0.6-0.4,1.2-0.5,1.8c0,0.1,0.5,0.3,0.7,0.4L19,187.8z"/>
			<path d="M0,242.6c4.5-0.2,8.9-0.3,13.4-0.7c6.5-0.5,12.9-1.7,19.4-1.8c6.9-0.1,13.7,1.1,20.6,1.1c3.7,0,7.3-1.4,11-2.2
				c0.2-3.5-0.5-5.8-3.5-7.3c-1.5-0.8-2.5-3-3.7-4.6c2.9-0.2,5.8-0.7,8.6-1.3c0.5-0.1,1-3.1,0.5-4.3c-0.6-1.7-2.9-4.5-3.1-4.3
				c-3.8,2.8-3.6-1.1-4.4-3.5l-8,1.9l-0.1,1.2l2.3,1l3.5,8.2c-3.4-1.6-6.6-3.9-10.1-4.6c-1.9-0.4-4.2,2-6.5,3
				c-0.7,0.3-1.6-0.1-2.8-0.3l3-2.1l-1.9-2l2-1.6c-1.3-0.8-2.7-1.4-4.1-2c-2.6-0.8-2.4-2.2-1.7-4.8c0.4-1.5-0.5-3.7-1.3-5.4
				c-0.7-1.4-1.6-2.7-2.7-3.9l1-1.1l2.1,1.3l2.2-3.6c1.5,2.1,2.5,5,5.7,3.7c1.6-3.3,3.4-5.1,6.4-1.5c0.5,0.5,1.2,0.8,1.9,0.8
				c1.8-0.1,3.5-0.5,5.4-0.8c-0.6,2.3-0.9,3.7-1.5,6.3l7-4.1l-4.5-6.5l1.7-1.2l-9.7-1.4v-10.7c-0.2-0.3-1-1.3-1.8-2.4
				s-1.5-2.3-2.2-3.5c-0.7,1.1-1.4,2.2-2,3.4c-0.5,1-0.8,2.1-1.3,3.4l-2.6-2.4l3.4-0.4l-6.8-2.9c0.7,3.3,0.6,6.2,1.8,7.4
				c1.4,1.4,4,1.4,5.2,1.8l-2,7.5l-0.5,1.3l-6.3-4.4l0.4-1.2l3.5-0.5l0.3-1.4c-1.9-0.5-4.3-0.4-5.5-1.7c-1.4-1.5-1.7-4.2-2.2-5.8
				c-2.1,1.4-5.5,5-6.6,4.2c-2.8-1.9-6.4-5.3-2.2-10l12.5,3.2c-2.8-5.4-0.6-6.5,2.8-7.5l-6.2-2.7l1-4.9l-4.7-1.3l-1-0.5v-12.4
				l3.8,1.4l-1.1-6.8l3.1,0.2l0.5-1.4c-1.8-0.8-3.6-2-5.4-2.2c-1.6-0.2-3.3,0.7-4.8,1.4c-1.6,0.8-3.2,1.7-4.7,2.7
				c-1.2-3.4-1.1-3.9,2.9-4.3l-2-3.1c2-2.4,7.1,7,6.4-4l4.4,5.4l3.4-4.6l5.4,3.9l-3-7.4l-2.9,1.1l-1.7-2.9l11,0.8
				c-1.8-3.5,1.5-7.1-2.3-9.2c-0.1-0.7,0-1.4,0.2-2.1c4.5-0.5,0.9-4.1,1.7-6c0.7-1.6,0.6-3.6,1.4-5c0.3-0.6,2.2,0.1,3.7,0.2l0.8-4.9
				l3.8,0.3c0.9-2.9,1.8-5.7,3.1-10c-3.7,0.3-7.2-0.2-10.1,1.1c-1.3,0.6-1.3,4.7-2,7.2l0.1-0.1c-4.1-2.2-5.3-5.8-4-10.4
				c0.8-2.6,1.1-5.4,1.7-8.1l4.4,0.4l2.9,6.7l1.4-9.1c1.8,1.6,3.3,2.4,3.9,3.6c1.3,2.3,5.4,0.7,5.1,4.9c1.2-0.2,2.6-0.1,3.5-0.8
				s1.5-2.2,2.7-4.1l2.2,0.8l-0.7,6.8l0.8,0.3c1-2.6,2.1-5.2,3.2-8.2L64,82.9l0.1-0.9h5.3l0.1-1.7l-7.3-0.6c-0.2-0.8,0-0.6,4.2-6.4
				c1.7-2.4,2.5-5.7,4.1-9.3c2.4,5.1,4.4,3.7,7.7,1.2l-6.6-1.7c0.8-1.5,1.3-2.5,1.9-3.8c-2.2-1.2-5.4-2-1.9-6.2l-3.9,0.2L67.3,53
				l3.7-3.2c1.5,4,2.2,8.6,6.9,8.5c0.6,0,1.4,0.4,1.7,0.1c4.3-4.2,8.8-0.2,13.2-0.4c0.6,0,1.6,1.3,1.8,2.2c0,0.9-0.4,1.8-1,2.5
				c-1.1,1-2.2,1.9-3.4,2.8l3.1,3.3L88.7,69c2.6,0.8,2.1,6.7,6.2,4.9l0.7,5.9l2.8,0.1c-0.4-3.8-0.8-7.2-1.2-10.4l6.6,4.5
				c0.3,3.1,0.5,5.2,0.8,7.2c-0.2,0.2-0.4,0.4-0.6,0.4l-0.9,2.7c2.5,3.3,5.1,6.7,7.7,10.2l-1.2,1.4l-3.2-3c-2.1,3.1-2.1,3.1,1.9,7.9
				c1.4-0.2,3.4-0.9,3.6-0.5c1.5,3.2,4.3,6.5,0.8,10.9c5.4-1.4,10.6-4.8,15.3,0.3c0.9,0.9,1.4,2.4,2.6,4.5l-4.1-1.2l0.6,2.6
				l-5.5-0.8l-1.3,3.7l-0.8-0.1l-0.5-3.7H114l1.1,0.9l-4.9,9.2c3.5,4.4,5.4-6.4,9.1-2.4c0.1,2.8,0.2,5.8,0.3,8.7L118,133
				c-0.8-2.2-1.5-4.4-2.3-6.6c0.1,5-1.8,6.4-5.5,5.2c-1,6.6,2.4,10,5.8,13.9c-0.7-0.3-1.5-0.5-2.3-0.6c-1.2,0-2.7-0.1-3.3,0.7
				c-0.9,1-1.1,2.7-1.4,4.2c-0.2,0.8-0.1,2.4-0.3,2.5c-3.3,0.7-1.4,3.4-1,4.6c0.5,1.3,2.5,3.2,3.4,2.9c4.9-1.5,5,3.5,6.8,6
				c0.6,0.8,1.2,1.7,2.1,2.9c1-6.5,3.5-0.4,5.6-2.9c-1.3,3.6-2.1,5.7-3.3,8.9l-6.9,1.1c2-3.7,1.5-5.6-1.9-6.6
				c0.5,4.1-1.2,9.1,4.9,8.8c0.8,0,1.8,2.1,2.2,2.7c-0.9,1.6-1.8,3.2-2.4,4.9c-0.1,0.9,0.3,1.8,1,2.4c0.6,0.4,2,0.4,2.4-0.1
				c3.4-4.9,3.5-1.4,4,1.8c0.2,0.9,0.6,1.7,1.1,2.5c3.9-1.6,5.5-0.4,5.5,4.7l-10.6-0.8l3.3-2l-0.2-1.3c-1.4,0.1-3.3-0.4-4.1,0.4
				c-1.6,1.7-2.6,4.1-4,6.5l1,0.5c-0.1,2.5-0.2,4.9-0.4,8l-10.7-6.2l0.6,4.9l3.4,0.4l2,6.2c-2.8-0.5-5.2-1.1-7.6-1.4
				c-1.4-0.1-2.7,0-4.1,0.4c-0.7,0.2-1.2,1-1.8,1.5c0.6,0.6,1,1.5,1.7,1.8c4.7,1.8,4.7,1.7,1.6,7.6c-1.4-1.6-2.8-3.2-4.1-4.7
				c-0.9-1-1.9-2.8-2.6-2.6c-1.1,0.2-1.9,1.8-3.1,3.1l-4.3-3.9v5.9c-1.3,0-2.6,0-3.9-0.3c-1.8-0.5-4.2-2.5-5.2-1.8
				c-3.4,2.6-6.3,6-10.1,9.7l4,1.5c-5.9,2.2-2.9,7.7-4.4,11.1l7.9-1.1c0,0.3,0-0.4,0.1-1.8c0.9,1.5,1.6,2.5,2.4,3.9l2.4-2.1
				c1.1,0.7,2.3,1.3,3.5,1.8c3.5,0.8,7,1.9,10.4,1.7c2.4-0.1,4.8-2.2,7.3-3.3c0.6-0.3,1.9-0.3,2.1,0.1c2.2,4.3,4,1.5,6-0.3
				c4-3.6,6.8-2.7,8.3,2.5c3.7,0.1,8,2.2,9.6-3c4,0.3,7.5,0.6,11,0.9c0.7,0,1.4,0.3,2,0.8c4.4,5.1,4.9,5.1,10,0.1 M63.4,97.3l-3.5,8
				l6.9-4.3l-3.5-3.5l-2-6.4L59.6,91l-2.3,6.3H63.4z M87,183.8c-1.2,9.8,7.1,4.6,10.4,7.8c0.3,0.2,1.4-0.7,2.7-1.4l-5-2.9l4.3-3.1
				c-2.3-1-3.9-2.2-5.4-2.1C91.7,182.1,89.4,183.1,87,183.8z M74.3,175.7V167l-9.1,6.5l4.2,9c0.7-3.9,1.2-7,1.8-10.6L74.3,175.7z
				 M52.8,173.5l8.2-6.6l-6.1-3.6l-0.5,4.4l-3.5-3.6l-0.7,0.6L52.8,173.5z M76.6,208.3c-1.2,0.6-2.2,1-3.2,1.5
				c-0.1,0,0.3,1.5,0.5,1.5c1,0.2,2.1,0.2,3.1-0.1c1.6-0.8,3.2-1.6,4.7-2.5l-3.3-6.3C74,202.5,74,202.5,76.6,208.3L76.6,208.3z
				 M67,130.2c-3.3-3.9-1.3-12.4-8.2-11.9c1,2.7,2,5.4,3,8.1C62.8,128.6,62.8,132.2,67,130.2z M116.7,180l-10.2,5l3.7,1
				c-0.9,0.7-1.7,1.5-2.4,2.4c-0.1,0.1,0.8,1.6,0.9,1.6c2-1.2,4.2-2.3,5.8-4C115.6,184.6,115.8,182.4,116.7,180z M79.8,194.5
				c0.6,2.1,0.7,3.2,1,3.4c1,0.6,2.1,0.8,3.2,0.8c0.4-0.1,1.1-2.4,0.9-2.5c-1.7-1.4-3.4-3.1-5.4-3.6c-0.9-0.2-2.8,1.9-3.3,3.4
				c-0.4,1.3,0.4,3.2,0.8,5.4C78,199,78.6,197.4,79.8,194.5z M71.1,212.5c0.3,4.1,0.4,7,0.7,10.7l6.7-6.9L71.1,212.5z M96,179.8
				l0.3,1.7l7.1,2.7l0.6-1.2l-3.7-3.2l3.8-2.5l-0.6-1.1L96,179.8z M82.8,172.3c-0.9-2.9-2.1-5.3-5.1-3.7c-1,0.5-1.4,2.4-2.1,3.6
				l3.5,1.8l0.5-1.2l-2.4-2.2l0.5-0.9L82.8,172.3z M73.7,123.8c1.4-6-4.1-3.9-5.3-8.2l-0.9,4.7L73.7,123.8z M94.4,214.3l4.1-5.3
				l-6.7-1.3L94.4,214.3z"/>
			<path d="M56.6,225.9l-3.5-8.2l-2.3-1l0.1-1.2l8-1.9c0.8,2.4,0.6,6.3,4.4,3.5c0.2-0.1,2.5,2.6,3.1,4.3c0.4,1.2,0,4.1-0.5,4.3
				c-2.8,0.6-5.7,1.1-8.6,1.3L56.6,225.9z"/>
			<path d="M58.1,73.1c-0.1-2.3-0.5-3.5-0.2-4.4c0.2-0.6,1.3-1.5,1.8-1.3c0.7,0.2,1.6,1.4,1.5,2c-0.5,3.8-1.6,7.5-3.2,11l0.5-7.4
				l-8.8,4.1c-1.2-3.7,0.8-5.9,4.7-7.2L58.1,73.1z"/>
			<path d="M32.9,213.5c-5,5.4-6.9-1.1-9.9-2.9C25.8,213.2,30.5,208.4,32.9,213.5z"/>
			<path d="M41.6,202.6c-3.2,1.3-4.2-1.6-5.7-3.7l3.5-2.4c0.2-0.4,0.4-0.9,0.5-1.3C40.4,197.7,41,200.2,41.6,202.6z"/>
			<path d="M25.4,162.2l1,0.5c-0.5,2.9-2.1,3.4-3.3,1.1c-1.5-2.7-2.2-6-3.2-9l1.2-0.8L25.4,162.2z"/>
			<path d="M41,101.3l3.5,2.4l-0.6,1.5l-8.2,1.6l5.4-5.6L41,101.3z"/>
			<path d="M103.9,81.7c0.2-0.1,0.5-0.2,0.6-0.4c2.1-0.3,4.2-0.5,6.3-0.4c0.8,0.1,1.5,1.7,2.3,2.8c-3.2-0.2-5.3-0.2-7.4-0.5
				C105.1,83.1,104.5,82.2,103.9,81.7z"/>
			<path d="M122.1,100.5c-0.4-2-0.9-4-1.5-7c-0.3,0.1,0.8-0.9,1.4-0.6c1.1,0.5,2.6,1.8,2.6,2.8c0,1.8-1,3.5-1.6,5.2L122.1,100.5z"/>
			<path d="M129.1,172.1c3.7-2.5,5.4-0.2,7.1,3.8h-4.6l0.4-0.9L129.1,172.1z"/>
			<path d="M131,222.5l-3.6-5l4.8-1.9C131.8,218.2,131.4,220.2,131,222.5z"/>
			<path d="M19,187.8l-0.5,2c-0.2-0.1-0.7-0.3-0.7-0.4c0.1-0.6,0.3-1.2,0.5-1.8L19,187.8z"/>
			<path d="M41.6,202.6l-1.7-7.3c0.7-2.6,1.4-5.2,2-7.5c-1.2-0.4-3.7-0.4-5.2-1.8c-1.2-1.2-1.1-4.1-1.8-7.4l6.8,2.8l-3.4,0.4
				l2.7,2.4c0.5-1.2,0.8-2.4,1.3-3.4c0.6-1.2,1.3-2.3,2-3.4c0.7,1.2,1.4,2.4,2.2,3.5s1.6,2.1,1.8,2.4v10.7l9.7,1.4l-1.7,1.2l4.5,6.5
				l-7,4.1c0.6-2.6,0.9-3.9,1.5-6.3c-1.9,0.3-3.6,0.7-5.4,0.8c-0.7,0-1.4-0.3-1.9-0.8C45,197.5,43.2,199.3,41.6,202.6z"/>
			<path d="M87,183.8c2.5-0.7,4.7-1.7,7-1.8c1.5-0.1,3,1.1,5.4,2.1l-4.4,3.1l5,2.9c-1.3,0.7-2.4,1.7-2.7,1.4
				C94.1,188.4,85.8,193.6,87,183.8z"/>
			<path d="M74.3,175.7l-3.1-3.9c-0.6,3.6-1.1,6.7-1.8,10.6l-4.2-9l9.1-6.4V175.7z"/>
			<path d="M52.7,173.5l-2.6-8.8l0.7-0.6l3.5,3.6l0.5-4.4l6.1,3.6L52.7,173.5z"/>
			<path d="M76.5,208.3c-2.6-5.8-2.6-5.8,1.8-5.9l3.3,6.3c-1.5,0.9-3.1,1.8-4.7,2.5c-1,0.3-2.1,0.4-3.2,0.1c-0.2,0-0.6-1.5-0.5-1.5
				C74.3,209.3,75.3,208.8,76.5,208.3z"/>
			<path d="M67,130.2c-4.3,1.9-4.3-1.6-5.1-3.8c-1-2.7-2-5.4-3-8.1C65.8,117.8,63.7,126.3,67,130.2z"/>
			<path d="M116.7,180c-0.9,2.4-1.1,4.7-2.2,5.9c-1.6,1.8-3.8,2.8-5.8,4c0,0-1-1.4-0.9-1.6c0.8-0.8,1.6-1.6,2.4-2.4l-3.7-1
				L116.7,180z"/>
			<path d="M79.8,194.5c-1.1,2.9-1.8,4.4-2.7,6.8c-0.4-2.2-1.2-4.1-0.8-5.4c0.5-1.5,2.4-3.6,3.3-3.4c1.9,0.5,3.7,2.2,5.4,3.6
				c0.2,0.1-0.5,2.5-0.9,2.5c-1.1,0.1-2.3-0.2-3.2-0.8C80.4,197.7,80.4,196.6,79.8,194.5z"/>
			<path d="M71.1,212.5l7.3,3.8l-6.7,6.9C71.6,219.5,71.4,216.6,71.1,212.5z"/>
			<path d="M96,179.8l7.6-3.5l0.6,1.1l-3.8,2.5l3.7,3.2l-0.6,1.2l-7.1-2.7L96,179.8z"/>
			<path d="M82.8,172.3l-5-2.5l-0.5,0.9l2.4,2.2l-0.5,1.2l-3.5-1.8c0.7-1.2,1.1-3.1,2.1-3.6C80.7,167,81.9,169.4,82.8,172.3z"/>
			<path d="M73.7,123.8l-6.2-3.5l0.9-4.7C69.6,120,75.1,117.9,73.7,123.8z"/>
			<path d="M94.4,214.3l-2.6-6.7l6.7,1.3L94.4,214.3z"/>
			<path d="M63.4,97.3h-6.1l2.3-6.3l1.7,0.1l2,6.4L63.4,97.3z"/>
			<path d="M63.3,97.5l3.5,3.5l-6.9,4.4l3.5-8L63.3,97.5z"/>
		</g>
	</g>
</g>
</svg>
